<mxfile host="Electron" modified="2024-07-19T12:53:26.790Z" agent="Mozilla/5.0 (Macintosh; Intel Mac OS X 10_15_7) AppleWebKit/537.36 (KHTML, like Gecko) draw.io/24.4.13 Chrome/124.0.6367.207 Electron/30.0.6 Safari/537.36" etag="Lx_FD5iTjoew4SElQIPM" version="24.4.13" type="device" pages="3">
  <diagram id="f106602c-feb2-e66a-4537-3a34d633f6aa" name="Page-1">
    <mxGraphModel dx="1504" dy="843" grid="1" gridSize="10" guides="1" tooltips="1" connect="1" arrows="1" fold="1" page="1" pageScale="1" pageWidth="1169" pageHeight="827" background="none" math="0" shadow="0">
      <root>
        <mxCell id="0" />
        <mxCell id="1" parent="0" />
        <mxCell id="2" value="Kubernetes: Developer&#39;s View" style="shadow=1;fontSize=14;align=left;spacingLeft=50;html=1;" parent="1" vertex="1">
          <mxGeometry x="50" y="10" width="260" height="40" as="geometry" />
        </mxCell>
        <mxCell id="716" style="edgeStyle=orthogonalEdgeStyle;rounded=0;html=1;labelBackgroundColor=none;startFill=1;startSize=4;endArrow=blockThin;endFill=1;endSize=4;jettySize=auto;orthogonalLoop=1;strokeColor=#4284F3;strokeWidth=2;fontSize=12;fontColor=#000000;align=center;dashed=0;" parent="1" edge="1">
          <mxGeometry relative="1" as="geometry">
            <Array as="points">
              <mxPoint x="1000" y="300" />
              <mxPoint x="1000" y="180" />
            </Array>
            <mxPoint x="965" y="180" as="targetPoint" />
          </mxGeometry>
        </mxCell>
        <mxCell id="717" style="edgeStyle=orthogonalEdgeStyle;rounded=0;html=1;labelBackgroundColor=none;startFill=1;startSize=4;endArrow=blockThin;endFill=1;endSize=4;jettySize=auto;orthogonalLoop=1;strokeColor=#4284F3;strokeWidth=2;fontSize=12;fontColor=#000000;align=center;dashed=0;" parent="1" edge="1">
          <mxGeometry relative="1" as="geometry">
            <Array as="points">
              <mxPoint x="1000" y="300" />
              <mxPoint x="1000" y="390" />
            </Array>
            <mxPoint x="965" y="300" as="sourcePoint" />
          </mxGeometry>
        </mxCell>
        <mxCell id="eO07zqcxzYHQwjbRKe_j-738" style="edgeStyle=orthogonalEdgeStyle;rounded=0;orthogonalLoop=1;jettySize=auto;html=1;exitX=1;exitY=0.5;exitDx=0;exitDy=0;exitPerimeter=0;" parent="1" source="eO07zqcxzYHQwjbRKe_j-756" target="eO07zqcxzYHQwjbRKe_j-731" edge="1">
          <mxGeometry relative="1" as="geometry">
            <mxPoint x="570" y="150" as="sourcePoint" />
          </mxGeometry>
        </mxCell>
        <mxCell id="eO07zqcxzYHQwjbRKe_j-720" value="worker node" style="html=1;outlineConnect=0;whiteSpace=wrap;fillColor=#dae8fc;shape=mxgraph.archimate.application;appType=node;strokeColor=#6c8ebf;align=left;verticalAlign=top;" parent="1" vertex="1">
          <mxGeometry x="50" y="420" width="200" height="270" as="geometry" />
        </mxCell>
        <mxCell id="eO07zqcxzYHQwjbRKe_j-722" style="edgeStyle=orthogonalEdgeStyle;rounded=0;orthogonalLoop=1;jettySize=auto;html=1;exitX=0.5;exitY=1;exitDx=0;exitDy=0;exitPerimeter=0;" parent="1" source="eO07zqcxzYHQwjbRKe_j-720" target="eO07zqcxzYHQwjbRKe_j-720" edge="1">
          <mxGeometry relative="1" as="geometry" />
        </mxCell>
        <mxCell id="eO07zqcxzYHQwjbRKe_j-736" value="images" style="edgeStyle=orthogonalEdgeStyle;rounded=0;orthogonalLoop=1;jettySize=auto;html=1;" parent="1" source="eO07zqcxzYHQwjbRKe_j-725" target="eO07zqcxzYHQwjbRKe_j-734" edge="1">
          <mxGeometry x="-0.5522" y="-10" relative="1" as="geometry">
            <Array as="points">
              <mxPoint x="1050" y="460" />
            </Array>
            <mxPoint as="offset" />
          </mxGeometry>
        </mxCell>
        <mxCell id="eO07zqcxzYHQwjbRKe_j-737" style="edgeStyle=orthogonalEdgeStyle;rounded=0;orthogonalLoop=1;jettySize=auto;html=1;exitX=0.5;exitY=1;exitDx=0;exitDy=0;exitPerimeter=0;entryX=1;entryY=0.75;entryDx=0;entryDy=0;" parent="1" source="eO07zqcxzYHQwjbRKe_j-725" target="eO07zqcxzYHQwjbRKe_j-735" edge="1">
          <mxGeometry relative="1" as="geometry">
            <Array as="points">
              <mxPoint x="1110" y="581" />
            </Array>
          </mxGeometry>
        </mxCell>
        <mxCell id="3q0PopQuauLMCxIyagHW-768" value="lifecycle mgmt instruction&lt;div&gt;(manifests, charts, operators&lt;/div&gt;" style="edgeLabel;html=1;align=center;verticalAlign=middle;resizable=0;points=[];" vertex="1" connectable="0" parent="eO07zqcxzYHQwjbRKe_j-737">
          <mxGeometry x="-0.2097" y="-1" relative="1" as="geometry">
            <mxPoint x="-19" y="-26" as="offset" />
          </mxGeometry>
        </mxCell>
        <mxCell id="eO07zqcxzYHQwjbRKe_j-725" value="developer&lt;div&gt;&lt;br&gt;&lt;/div&gt;" style="aspect=fixed;sketch=0;html=1;dashed=0;whitespace=wrap;verticalLabelPosition=top;verticalAlign=bottom;fillColor=#2875E2;strokeColor=#ffffff;points=[[0.005,0.63,0],[0.1,0.2,0],[0.9,0.2,0],[0.5,0,0],[0.995,0.63,0],[0.72,0.99,0],[0.5,1,0],[0.28,0.99,0]];shape=mxgraph.kubernetes.icon2;prIcon=user;labelPosition=center;align=center;" parent="1" vertex="1">
          <mxGeometry x="1085" y="440" width="50" height="48" as="geometry" />
        </mxCell>
        <mxCell id="eO07zqcxzYHQwjbRKe_j-731" value="" style="image;aspect=fixed;html=1;points=[];align=center;fontSize=12;image=img/lib/azure2/networking/DNS_Zones.svg;" parent="1" vertex="1">
          <mxGeometry x="820" y="55" width="40" height="40" as="geometry" />
        </mxCell>
        <mxCell id="eO07zqcxzYHQwjbRKe_j-867" value="" style="edgeStyle=orthogonalEdgeStyle;rounded=0;orthogonalLoop=1;jettySize=auto;html=1;" parent="1" source="eO07zqcxzYHQwjbRKe_j-732" target="eO07zqcxzYHQwjbRKe_j-758" edge="1">
          <mxGeometry relative="1" as="geometry" />
        </mxCell>
        <mxCell id="3q0PopQuauLMCxIyagHW-772" style="edgeStyle=orthogonalEdgeStyle;rounded=0;orthogonalLoop=1;jettySize=auto;html=1;exitX=0.5;exitY=1;exitDx=0;exitDy=0;exitPerimeter=0;entryX=0.5;entryY=0;entryDx=0;entryDy=0;" edge="1" parent="1" source="eO07zqcxzYHQwjbRKe_j-732" target="3q0PopQuauLMCxIyagHW-771">
          <mxGeometry relative="1" as="geometry" />
        </mxCell>
        <mxCell id="eO07zqcxzYHQwjbRKe_j-732" value="load balancer" style="outlineConnect=0;dashed=0;verticalLabelPosition=top;verticalAlign=bottom;align=center;html=1;shape=mxgraph.aws3.classic_load_balancer;fillColor=#F58534;gradientColor=none;direction=south;labelPosition=center;" parent="1" vertex="1">
          <mxGeometry x="476.5" y="184" width="57" height="40" as="geometry" />
        </mxCell>
        <mxCell id="eO07zqcxzYHQwjbRKe_j-734" value="" style="editableCssRules=.*;html=1;shape=image;verticalLabelPosition=bottom;labelBackgroundColor=#ffffff;verticalAlign=top;aspect=fixed;imageAspect=0;image=data:image/svg+xml,PHN2ZyB4bWxucz0iaHR0cDovL3d3dy53My5vcmcvMjAwMC9zdmciIHhtbG5zOnY9Imh0dHBzOi8vdmVjdGEuaW8vbmFubyIgd2lkdGg9IjM3Ny4xNTkzMDIxNjAyNjMwNSIgaGVpZ2h0PSIzMzYuMTYyNDk5MDAzMzEwOCIgdmlld0JveD0iLTAuMDU4MDAwMDA1NzgxNjUwNTQgMC4xMTI5OTk5OTgwMzMwNDY3MiA5OS43OTAwMDA5MTU1MjczNCA4OC45NDMwMDA3OTM0NTcwMyI+JiN4YTs8c3R5bGUgdHlwZT0idGV4dC9jc3MiPiYjeGE7CS5zdDB7ZmlsbDojNjY5ZGY2O30mI3hhOwkuc3Qxe2ZpbGw6I2FlY2JmYTt9JiN4YTsJLnN0MntmaWxsOiM0Mjg1ZjQ7fSYjeGE7PC9zdHlsZT4mI3hhOwk8cGF0aCBjbGFzcz0ic3QwIiBkPSJNNTMuMjQzIDYyLjA5VjQ3LjA5NGwxMy4yMDEgOC40MTZ2MTUuMDM4em0tMzMuMDIxIDBWNDcuMDk0bDEzLjIwMSA4LjQxNnYxNS4wMzh6bTE2LjUxMS0zMi4yODVWMTQuODFsMTMuMjAxIDguNDE2djE1LjAzOHptNjIuOTk5IDMzLjk2VjI1LjQwM2wtOS41NjItMS44ODR2NDIuMTMxem0tOTkuNzg4IDBWMjUuNDAzbDkuNTYyLTEuODg0djQyLjEzMXoiLz4mI3hhOwk8cGF0aCBjbGFzcz0ic3QxIiBkPSJNNTMuMTg1IDQ3LjA5NGwxMy4yNTgtOC4yODcgMTMuMDE2IDguMjM0LTEzLjAxNiA4LjQ2OXptLTMzLjAyMSAwbDEzLjI1OC04LjI4NyAxMy4wMTYgOC4yMzQtMTMuMDE2IDguNDY5ek0zNi42NzUgMTQuODFsMTMuMjU4LTguMjg3IDEzLjAxNiA4LjIzNC0xMy4wMTYgOC40Njl6bTYzLjA1NiA0OC45NTZ2MTIuMjE3TDc3LjAxIDg5LjA1NVY3Ny43NTJ6bTAtMzguMzYzVjEzLjE4Nkw3Ny4wMS4xMTN2MTEuMzAzek0tLjA1OCA2My43NjZ2MTIuMjE3bDIyLjcyMSAxMy4wNzNWNzcuNzUyem0wLTM4LjM2M1YxMy4xODZMMjIuNjYzLjExM3YxMS4zMDN6Ii8+JiN4YTsJPHBhdGggY2xhc3M9InN0MiIgZD0iTTY2LjQ0NCA3MC41NDdWNTUuNTFsMTMuMDE2LTguNDY5djE1LjR6bS0zMy4wMjEgMFY1NS41MWwxMy4wMTYtOC40Njl2MTUuNHptMTYuNTExLTMyLjI4NVYyMy4yMjVsMTMuMDE2LTguNDY5djE1LjR6bTQ5Ljc5OCAyNS41MDNsLTkuNTYyIDUuODh2LTMuOTk2em0wLTM4LjM2M2wtOS41NjItNS44OHYzLjk5NnpNLS4wNTggNjMuNzY2bDkuNTYyIDUuODh2LTMuOTk2em0wLTM4LjM2M2w5LjU2Mi01Ljg4djMuOTk2eiIvPiYjeGE7PC9zdmc+;" parent="1" vertex="1">
          <mxGeometry x="1030" y="370" width="40" height="36" as="geometry" />
        </mxCell>
        <mxCell id="3q0PopQuauLMCxIyagHW-733" style="edgeStyle=orthogonalEdgeStyle;rounded=0;orthogonalLoop=1;jettySize=auto;html=1;exitX=0;exitY=0.5;exitDx=0;exitDy=0;" edge="1" parent="1" source="eO07zqcxzYHQwjbRKe_j-735" target="3q0PopQuauLMCxIyagHW-730">
          <mxGeometry relative="1" as="geometry" />
        </mxCell>
        <mxCell id="eO07zqcxzYHQwjbRKe_j-735" value="" style="editableCssRules=.*;html=1;shape=image;verticalLabelPosition=bottom;labelBackgroundColor=#ffffff;verticalAlign=top;aspect=fixed;imageAspect=0;image=data:image/svg+xml,PHN2ZyB4bWxucz0iaHR0cDovL3d3dy53My5vcmcvMjAwMC9zdmciIHhtbG5zOnY9Imh0dHBzOi8vdmVjdGEuaW8vbmFubyIgd2lkdGg9IjIxLjk5OTAwMDU0OTMxNjQwNiIgaGVpZ2h0PSIyMC4zOTM5OTkwOTk3MzE0NDUiIHZpZXdCb3g9IjAgMCAyMS45OTkwMDA1NDkzMTY0MDYgMjAuMzkzOTk5MDk5NzMxNDQ1Ij4mI3hhOwk8c3R5bGUgdHlwZT0idGV4dC9jc3MiPiYjeGE7CS5zdDB7ZmlsbDojNDI4NWY0O2ZpbGwtcnVsZTpldmVub2RkfSYjeGE7CTwvc3R5bGU+JiN4YTsJPHBhdGggY2xhc3M9InN0MCIgZD0iTTUgMHYyLjQ1OEwxLjk5OSA0LjE5N3YxMi4wMUw1IDE3LjkzOHYyLjQ1NmwtNS0yLjg4N1YyLjg4NnptMTIgMGw0Ljk5OSAyLjg4NnYxNC42MjFMMTcgMjAuMzk0di0yLjQ1NmwzLTEuNzMxVjQuMTk3bC0zLTEuNzM5em0tNi4wMTYgNi42NzNsMi45NDctMS42NDYtMi45NDctMS42NDYtMi45NDcgMS42NDZ6bTMuMjY4LTEuMDk2bC0yLjg3MSAxLjY3OHYzLjI4N2wyLjg3MS0xLjY3NnpNNy43NzMgOC44NjZsMi44NzEgMS42NzRWNy4yNTZMNy43NzMgNS41Nzd6bS0uMjEyIDMuODc4bDIuODItMS42NDYtMi44Mi0xLjY0Ni0yLjgyIDEuNjQ2em0zLjEzMi0xLjA5OGwtMi44NzEgMS42Nzh2My4yODdsMi44NzEtMS42NzZ6bS02LjI2NCAzLjI4OUw3LjMgMTYuNjA5di0zLjI4NWwtMi44NzEtMS42Nzl6bTEwLjAyOS0yLjE5MWwyLjgyLTEuNjQ2LTIuODItMS42NDYtMi44MiAxLjY0NnptMy4xMzItMS4wOThsLTIuODcxIDEuNjc4djMuMjg3bDIuODcxLTEuNjc2em0tNi4yNjQgMy4yODlsMi44NzEgMS42NzR2LTMuMjg1bC0yLjg3MS0xLjY3OXoiLz4mI3hhOzwvc3ZnPg==;" parent="1" vertex="1">
          <mxGeometry x="1030" y="554" width="40" height="36" as="geometry" />
        </mxCell>
        <mxCell id="eO07zqcxzYHQwjbRKe_j-754" value="" style="image;aspect=fixed;html=1;points=[];align=center;fontSize=12;image=img/lib/azure2/networking/DNS_Zones.svg;" parent="1" vertex="1">
          <mxGeometry x="860" y="624.91" width="40" height="40" as="geometry" />
        </mxCell>
        <mxCell id="eO07zqcxzYHQwjbRKe_j-866" value="" style="edgeStyle=orthogonalEdgeStyle;rounded=0;orthogonalLoop=1;jettySize=auto;html=1;" parent="1" source="eO07zqcxzYHQwjbRKe_j-756" target="eO07zqcxzYHQwjbRKe_j-732" edge="1">
          <mxGeometry relative="1" as="geometry" />
        </mxCell>
        <mxCell id="eO07zqcxzYHQwjbRKe_j-756" value="User/Client" style="sketch=0;points=[[0,0,0],[0.25,0,0],[0.5,0,0],[0.75,0,0],[1,0,0],[0,1,0],[0.25,1,0],[0.5,1,0],[0.75,1,0],[1,1,0],[0,0.25,0],[0,0.5,0],[0,0.75,0],[1,0.25,0],[1,0.5,0],[1,0.75,0]];outlineConnect=0;fontColor=#232F3E;fillColor=#01A88D;strokeColor=#ffffff;dashed=0;verticalLabelPosition=bottom;verticalAlign=top;align=center;html=1;fontSize=12;fontStyle=0;aspect=fixed;shape=mxgraph.aws4.resourceIcon;resIcon=mxgraph.aws4.desktop_and_app_streaming;" parent="1" vertex="1">
          <mxGeometry x="480" y="50" width="50" height="50" as="geometry" />
        </mxCell>
        <mxCell id="eO07zqcxzYHQwjbRKe_j-758" value="" style="aspect=fixed;sketch=0;html=1;dashed=0;whitespace=wrap;verticalLabelPosition=bottom;verticalAlign=top;fillColor=#2875E2;strokeColor=#ffffff;points=[[0.005,0.63,0],[0.1,0.2,0],[0.9,0.2,0],[0.5,0,0],[0.995,0.63,0],[0.72,0.99,0],[0.5,1,0],[0.28,0.99,0]];shape=mxgraph.kubernetes.icon2;kubernetesLabel=1;prIcon=svc" parent="1" vertex="1">
          <mxGeometry x="475" y="300.4" width="60" height="57.6" as="geometry" />
        </mxCell>
        <mxCell id="eO07zqcxzYHQwjbRKe_j-764" value="" style="group;verticalAlign=bottom;movable=1;resizable=1;rotatable=1;deletable=1;editable=1;locked=0;connectable=1;" parent="1" vertex="1" connectable="0">
          <mxGeometry x="81.66" y="450" width="72" height="65.09" as="geometry" />
        </mxCell>
        <mxCell id="eO07zqcxzYHQwjbRKe_j-795" value="" style="group" parent="eO07zqcxzYHQwjbRKe_j-764" vertex="1" connectable="0">
          <mxGeometry width="70" height="60" as="geometry" />
        </mxCell>
        <mxCell id="eO07zqcxzYHQwjbRKe_j-721" value="pod" style="rounded=0;whiteSpace=wrap;html=1;fillColor=#d5e8d4;strokeColor=#82b366;verticalAlign=top;arcSize=27;align=left;shadow=1;glass=0;" parent="eO07zqcxzYHQwjbRKe_j-795" vertex="1">
          <mxGeometry x="-1.789999999999992" width="70" height="60" as="geometry" />
        </mxCell>
        <mxCell id="eO07zqcxzYHQwjbRKe_j-728" value="app" style="editableCssRules=.*;html=1;shape=image;verticalLabelPosition=middle;labelBackgroundColor=none;verticalAlign=middle;aspect=fixed;imageAspect=0;image=data:image/svg+xml,PHN2ZyB4bWxucz0iaHR0cDovL3d3dy53My5vcmcvMjAwMC9zdmciIHhtbG5zOnY9Imh0dHBzOi8vdmVjdGEuaW8vbmFubyIgd2lkdGg9IjE0LjAwMDI5OTQ1MzczNTM1MiIgaGVpZ2h0PSIxNS45OTI5MjI3ODI4OTc5NSIgdmlld0JveD0iLTAuMDAwMTQ5NjA4NDAwNTMzOTA3MTIgLTAuMDAwNDYxNzIyMDgzODU1NDIwMzUgMTQuMDAwMjk5NDUzNzM1MzUyIDE1Ljk5MjkyMjc4Mjg5Nzk1Ij4mI3hhOwk8c3R5bGUgdHlwZT0idGV4dC9jc3MiPiYjeGE7CS5zdDB7ZmlsbDojNDI4NWY0O30mI3hhOwk8L3N0eWxlPiYjeGE7CTxwYXRoIGNsYXNzPSJzdDAiIGQ9Ik0xMy42NyAzLjczNkw3LjM2LjA5NmEuNzIuNzIgMCAwIDAtLjcyIDBMLjMzIDMuNzM2YS43Mi43MiAwIDAgMC0uMzMuNjJ2Ny4yOGEuNzIuNzIgMCAwIDAgLjM2LjYybDYuMjggMy42NGEuNzIuNzIgMCAwIDAgLjcyIDBsNi4zMS0zLjY0YS43Mi43MiAwIDAgMCAuMzMtLjYydi03LjI4YS43Mi43MiAwIDAgMC0uMzMtLjYyem0tLjg3IDcuMmwtMi4yLTEuMjd2LTMuMzRsLTMuMjUgMS44N3YzLjhsMi45LTEuNjcgMi4yIDEuMjctNS40NSAzLjEtNS40NS0zLjE1IDIuMi0xLjI3IDIuOSAxLjcydi0zLjhMMy40IDYuMzI2djMuMzRsLTIuMiAxLjI3di02LjI5bDUuNDUtMy4xNHYyLjQ5bC0yLjkgMS43Mkw3IDcuNTg2bDMuMjUtMS44OC0yLjktMS43MXYtMi40OWw1LjQ1IDMuMTR6Ii8+JiN4YTs8L3N2Zz4=;labelPosition=center;align=center;direction=south;" parent="eO07zqcxzYHQwjbRKe_j-795" vertex="1">
          <mxGeometry x="12.450000000000001" y="14.27" width="45.09" height="39.45" as="geometry" />
        </mxCell>
        <mxCell id="eO07zqcxzYHQwjbRKe_j-770" value="&lt;font style=&quot;font-size: 10px;&quot;&gt;hostpath&lt;/font&gt;" style="shadow=0;dashed=0;html=1;strokeColor=none;fillColor=#4495D1;labelPosition=center;verticalLabelPosition=bottom;verticalAlign=middle;align=center;outlineConnect=0;shape=mxgraph.veeam.2d.file_system_browser;" parent="1" vertex="1">
          <mxGeometry x="160.61" y="585" width="30" height="20" as="geometry" />
        </mxCell>
        <mxCell id="eO07zqcxzYHQwjbRKe_j-792" style="rounded=0;orthogonalLoop=1;jettySize=auto;html=1;" parent="1" source="eO07zqcxzYHQwjbRKe_j-787" target="eO07zqcxzYHQwjbRKe_j-783" edge="1">
          <mxGeometry relative="1" as="geometry" />
        </mxCell>
        <mxCell id="eO07zqcxzYHQwjbRKe_j-793" style="rounded=0;orthogonalLoop=1;jettySize=auto;html=1;exitX=0.609;exitY=0.95;exitDx=0;exitDy=0;entryX=1;entryY=0.5;entryDx=0;entryDy=0;exitPerimeter=0;" parent="1" source="eO07zqcxzYHQwjbRKe_j-787" target="eO07zqcxzYHQwjbRKe_j-785" edge="1">
          <mxGeometry relative="1" as="geometry" />
        </mxCell>
        <mxCell id="eO07zqcxzYHQwjbRKe_j-787" value="req/limit" style="text;html=1;align=center;verticalAlign=middle;whiteSpace=wrap;rounded=0;fontSize=10;" parent="1" vertex="1">
          <mxGeometry x="83" y="540" width="64" height="20" as="geometry" />
        </mxCell>
        <mxCell id="eO07zqcxzYHQwjbRKe_j-788" style="edgeStyle=orthogonalEdgeStyle;rounded=0;orthogonalLoop=1;jettySize=auto;html=1;entryX=0.5;entryY=0;entryDx=0;entryDy=0;" parent="1" source="eO07zqcxzYHQwjbRKe_j-721" target="eO07zqcxzYHQwjbRKe_j-787" edge="1">
          <mxGeometry relative="1" as="geometry" />
        </mxCell>
        <mxCell id="eO07zqcxzYHQwjbRKe_j-802" value="" style="rounded=0;orthogonalLoop=1;jettySize=auto;html=1;" parent="1" source="eO07zqcxzYHQwjbRKe_j-794" target="eO07zqcxzYHQwjbRKe_j-770" edge="1">
          <mxGeometry relative="1" as="geometry" />
        </mxCell>
        <mxCell id="eO07zqcxzYHQwjbRKe_j-803" value="" style="rounded=0;orthogonalLoop=1;jettySize=auto;html=1;entryX=0.5;entryY=0;entryDx=0;entryDy=0;" parent="1" source="eO07zqcxzYHQwjbRKe_j-794" edge="1">
          <mxGeometry relative="1" as="geometry">
            <mxPoint x="214.74" y="582.5" as="targetPoint" />
          </mxGeometry>
        </mxCell>
        <mxCell id="eO07zqcxzYHQwjbRKe_j-794" value="volumes" style="text;html=1;align=center;verticalAlign=middle;whiteSpace=wrap;rounded=0;fontSize=10;" parent="1" vertex="1">
          <mxGeometry x="158.20999999999998" y="540" width="64" height="20" as="geometry" />
        </mxCell>
        <mxCell id="eO07zqcxzYHQwjbRKe_j-811" value="" style="group" parent="1" vertex="1" connectable="0">
          <mxGeometry x="80" y="582.5" width="27.060000000000002" height="37.5" as="geometry" />
        </mxCell>
        <mxCell id="eO07zqcxzYHQwjbRKe_j-783" value="" style="shape=image;verticalLabelPosition=bottom;labelBackgroundColor=none;verticalAlign=middle;aspect=fixed;imageAspect=0;image=data:image/png,iVBORw0KGgoAAAANSUhEUgAAAH8AAABzCAYAAACxf91oAAAKt2lDQ1BJQ0MgUHJvZmlsZQAASImVlwdQU1kXx+976Y2WEAEpoTdBOgGkhB5A6dVGSEIIJYQUml1ZXMG1oCKCZUFXBBRclSJrRRTbIlixLsgioKyLBRuW7wFD2N1vvu+b78zcub933rn/c8+be2fOA4BixBGL02EVADJEMklEgDcjLj6BgRsCOEAC6sAVmHO4UjErLCwEIDY9/93e3QXQxHzLakLr39//V1Pl8aVcAKAwhJN4Um4GwieQ8ZUrlsgAQCEMDHNk4gnuQZgmQTaI8MgECyYZPaFDS5pi2mRMVIQPwmYA4MkcjkQAANkB8TOyuQJEhxyFsI2IJxQhXICwR0ZGJg/hdoTNkBgxwhP6zKS/6Aj+ppmk0ORwBAqeqmXS8L5CqTidk/d/fo7/bRnp8ukcJsggp0gCI6YY6knLDFawKGlB6DQLedPxUE+KPDB6mrlSn4Rp5nF8gxVr0xeETHOy0J+t0JGxo6aZL/WLnGZJZoQiV7LEhzXNHMlMXnlatMKfwmcr9PNTomKnOVsYs2CapWmRwTMxPgq/RB6h2D9fFOA9k9dfUXuG9C/1CtmKtbKUqEBF7ZyZ/fNFrBlNaZxibzy+r99MTLQiXizzVuQSp4cp4vnpAQq/NDtSsVaGHMiZtWGKb5jKCQqbZhAFUoAciAAP8IEEJIFMkA5kgAF8gRBIgRh54gDkOMn4ubKJ4nwyxXkSoSBFxmAht47PYIu41nMYdjZ2yEmcuMNTR+QNffJuQvSrM76scwC4FCFOwYyPYwjAyWcAUN/N+AxfI8drCwCnu7hySfaUb/KuYQARKAMa0AS6wBCYAStgB5yAG/ACfiAIhCKVxIMlgIvUk4FUkgOWgzWgEBSDLWAHKAf7wH5wCBwBx0AzOAXOg0vgGugCd8BD0AsGwAswCt6BcQiCcBAFokKakB5kDFlCdhAT8oD8oBAoAoqHEiEBJILk0HJoHVQMlUDlUCVUA/0MnYTOQ1egbug+1AcNQ6+hTzAKJsM0WAc2gefCTJgFB8NR8GJYAGfB+XABvAkug6vgw3ATfB6+Bt+Be+EX8BgKoEgoOkofZYVionxQoagEVDJKglqJKkKVoqpQ9ahWVAfqFqoXNYL6iMaiqWgG2grthg5ER6O56Cz0SvRGdDn6ELoJ3Y6+he5Dj6K/YigYbYwlxhXDxsRhBJgcTCGmFHMQ04i5iLmDGcC8w2KxdKwp1hkbiI3HpmKXYTdi92AbsOew3dh+7BgOh9PEWeLccaE4Dk6GK8Ttwh3GncXdxA3gPuBJeD28Hd4fn4AX4dfiS/G1+DP4m/hB/DhBhWBMcCWEEniEPMJmwgFCK+EGYYAwTlQlmhLdiVHEVOIaYhmxnniR+Ij4hkQiGZBcSOEkIWk1qYx0lHSZ1Ef6SFYjW5B9yIvIcvImcjX5HPk++Q2FQjGheFESKDLKJkoN5QLlCeWDElXJWomtxFNapVSh1KR0U+mlMkHZWJmlvEQ5X7lU+bjyDeURFYKKiYqPCkdlpUqFykmVeypjqlRVW9VQ1QzVjaq1qldUh9RwaiZqfmo8tQK1/WoX1PqpKKoh1YfKpa6jHqBepA7QsDRTGpuWSiumHaF10kbV1dQd1GPUc9Ur1E+r99JRdBM6m55O30w/Rr9L/zRLZxZrFn/Whln1s27Oeq8xW8NLg69RpNGgcUfjkyZD008zTXOrZrPmYy20loVWuFaO1l6ti1ojs2mz3WZzZxfNPjb7gTasbaEdob1Me7/2de0xHV2dAB2xzi6dCzojunRdL91U3e26Z3SH9ah6HnpCve16Z/WeM9QZLEY6o4zRzhjV19YP1JfrV+p36o8bmBpEG6w1aDB4bEg0ZBomG243bDMcNdIzmm+03KjO6IExwZhpnGK807jD+L2JqUmsyXqTZpMhUw1Ttmm+aZ3pIzOKmadZllmV2W1zrDnTPM18j3mXBWzhaJFiUWFxwxK2dLIUWu6x7J6DmeMyRzSnas49K7IVyyrbqs6qz5puHWK91rrZ+uVco7kJc7fO7Zj71cbRJt3mgM1DWzXbINu1tq22r+0s7Lh2FXa37Sn2/var7FvsXzlYOvAd9jr0OFId5zuud2xz/OLk7CRxqncadjZyTnTe7XyPSWOGMTcyL7tgXLxdVrmccvno6uQqcz3m+qeblVuaW63b0DzTefx5B+b1uxu4c9wr3Xs9GB6JHj969Hrqe3I8qzyfehl68bwOeg2yzFmprMOsl9423hLvRu/3Pq4+K3zO+aJ8A3yLfDv91Pyi/cr9nvgb+Av86/xHAxwDlgWcC8QEBgduDbzH1mFz2TXs0SDnoBVB7cHk4Mjg8uCnIRYhkpDW+fD8oPnb5j9aYLxAtKA5FISyQ7eFPg4zDcsK+yUcGx4WXhH+LMI2YnlERyQ1cmlkbeS7KO+ozVEPo82i5dFtMcoxi2JqYt7H+saWxPbGzY1bEXctXiteGN+SgEuISTiYMLbQb+GOhQOLHBcVLrq72HRx7uIrS7SWpC85vVR5KWfp8URMYmxibeJnTiinijOWxE7anTTK9eHu5L7gefG284b57vwS/mCye3JJ8pDAXbBNMJzimVKaMiL0EZYLX6UGpu5LfZ8Wmlad9i09Nr0hA5+RmHFSpCZKE7Vn6mbmZnaLLcWF4t4s16wdWaOSYMlBKSRdLG2R0ZBm6brcTP6dvC/bI7si+0NOTM7xXNVcUe71PIu8DXmD+f75Py1DL+Mua1uuv3zN8r4VrBWVK6GVSSvbVhmuKlg1sDpg9aE1xDVpa35da7O2ZO3bdbHrWgt0ClYX9H8X8F1doVKhpPDeerf1+75Hfy/8vnOD/YZdG74W8YquFtsUlxZ/3sjdePUH2x/Kfvi2KXlT52anzXu3YLeIttzd6rn1UIlqSX5J/7b525q2M7YXbX+7Y+mOK6UOpft2EnfKd/aWhZS17DLatWXX5/KU8jsV3hUNu7V3b9j9fg9vz829Xnvr9+nsK9736Ufhjz2VAZVNVSZVpfux+7P3PzsQc6DjJ+ZPNQe1DhYf/FItqu49FHGovca5pqZWu3ZzHVwnrxs+vOhw1xHfIy31VvWVDfSG4qPgqPzo858Tf757LPhY23Hm8foTxid2N1Ibi5qgprym0eaU5t6W+Jbuk0En21rdWht/sf6l+pT+qYrT6qc3nyGeKTjz7Wz+2bFz4nMj5wXn+9uWtj28EHfhdnt4e+fF4IuXL/lfutDB6jh72f3yqSuuV05eZV5tvuZ0rem64/XGXx1/bex06my64Xyjpculq7V7XveZm543z9/yvXXpNvv2tTsL7nTfjb7bc2/Rvd4eXs/Q/fT7rx5kPxh/uPoR5lHRY5XHpU+0n1T9Zv5bQ69T7+k+377rTyOfPuzn9r/4Xfr754GCZ5RnpYN6gzVDdkOnhv2Hu54vfD7wQvxifKTwD9U/dr80e3niT68/r4/GjQ68krz69nrjG8031W8d3raNhY09eZfxbvx90QfND4c+Mj92fIr9NDie8xn3ueyL+ZfWr8FfH33L+PZNzJFwJlsBFDLg5GQAXlcDQIlHeocuAIgLp3rsSYOm/gsmCfwnnurDJ80JgGovAKJXAxCC9Ch7kWGMMBmZJ9qkKC8A29srxnQ/PNm7TxgW+YspMdUkaAZ309RWg3/YVF//l33/cwYK1b/N/wJrOw0JSqibKQAAAFZlWElmTU0AKgAAAAgAAYdpAAQAAAABAAAAGgAAAAAAA5KGAAcAAAASAAAARKACAAQAAAABAAAAf6ADAAQAAAABAAAAcwAAAABBU0NJSQAAAFNjcmVlbnNob3T0oy8xAAAB1mlUWHRYTUw6Y29tLmFkb2JlLnhtcAAAAAAAPHg6eG1wbWV0YSB4bWxuczp4PSJhZG9iZTpuczptZXRhLyIgeDp4bXB0az0iWE1QIENvcmUgNi4wLjAiPgogICA8cmRmOlJERiB4bWxuczpyZGY9Imh0dHA6Ly93d3cudzMub3JnLzE5OTkvMDIvMjItcmRmLXN5bnRheC1ucyMiPgogICAgICA8cmRmOkRlc2NyaXB0aW9uIHJkZjphYm91dD0iIgogICAgICAgICAgICB4bWxuczpleGlmPSJodHRwOi8vbnMuYWRvYmUuY29tL2V4aWYvMS4wLyI+CiAgICAgICAgIDxleGlmOlBpeGVsWURpbWVuc2lvbj4xMTU8L2V4aWY6UGl4ZWxZRGltZW5zaW9uPgogICAgICAgICA8ZXhpZjpQaXhlbFhEaW1lbnNpb24+MTI3PC9leGlmOlBpeGVsWERpbWVuc2lvbj4KICAgICAgICAgPGV4aWY6VXNlckNvbW1lbnQ+U2NyZWVuc2hvdDwvZXhpZjpVc2VyQ29tbWVudD4KICAgICAgPC9yZGY6RGVzY3JpcHRpb24+CiAgIDwvcmRmOlJERj4KPC94OnhtcG1ldGE+CvXtUGYAAArySURBVHgB7V1pbBTnGX7t9XoPn+sbjJ21sTGXcWrTYgoBQkFNUkqVlFb8qFoSRZUq9WdVNapURf3Hr/7on6hS06ZVq0pESVSpUasWQkI4gqmhKZAYDLaxscE2Ptf2nnbfz/U6M+PxXN/O7M7s+wozM9/xHs8z137zHTkj4zNLQJKVCORmZdQU9DICRH4WnwhEfhaTn5cJsccTCXg8PgXxxCLU1ZRDbq655ySz83h8EiLRONRWl4En320qDEtLSzAyNgWxeBw2VAYg350RsENGePHnf1yBSz39kFhchLZgLbx67AB4Pea4Nr8Qgfcu/Qcu/PcuRGJx+NLmOjh5qAMqy0pMOwF+97eL0NU7sHxy720Jwg+e3wcul7knuJZgzEFYi+WVMrfvDMJvz12FCF4VTD57OArBilI4drB9pURqN5/gSfbW2U9gej68rPj+6ATU493mW19tS62hFW0Xrt2G339wFaJ4d2NyZ2QM6gLFcHSfOfZWzGrapP30u3Kzd5V45nEcr/7u3iFNzhspNDW3sEo8qx/Gq//ug0cwNx8xok61zvV7Q6vEs8KReAL6hsdV61lRIO3kWxFkOm0s4HtFpgqRn6nMWOAXkW8ByJlqgsjPVGYs8IvItwDkTDVB5GcqMxb4ReRbAHKmmiDyM5UZC/zKMft7/vjULHT3DMBtbOxIYJu6VHqGx+DTkVFRcl2gBDobN4nSUnVwD9v0uweGReqasL19Z201uF0uUXoqDrr6HkL/xJRI1c6aSthWWyVKYwesyXfzpirYvb0RNmArp9liOvk/e+NtOP95n9lxOEp/x1Mb4Vc/PokfgFJ/MgqBMvW2P4jNmJd7B4X2aF8DAjcGH8FNvFuaLaaSPzUzJ2q3NzsYp+hnXzdv3Tfv+0YSp7R81XNLPmfi525IsP9QXDk5gP9MFaG9XDSWa6E9ufjii0vAvvkLRe79SJifin3LyfdiR4bvPdMh8j2KX7qeLISBhV/h80J+nrnPujDam2T2EPBSrwf8JnfmiOGL7vj8AixihOVeLzAMhHIW+xb0jU0IkyzZF3thgUmvJx9ePX7AAkv2MTE0OpkW8k195tsH/uz01NCVv/x0kjyj5ODTUESuGqUhAgxj6XuALDDsHUk2Qz1RN/lz2Afurx9dh3M3eoA9y5RkPhpTyqa8FQTYO49U3u66CR9+1idNFh278E310K5meBH7IBb6vaI8LQe6ye/6HPvAfdgFUyt94LQYoTLKCAxNz64p8ARfENmfmgxOz0AVtgZ+/Ss71Iquydf1zGc/Px6MTRLxa2DkS5iLRg0rmME78ejsnKH6ushnbc+FBV5wmdyv3lAkNq6UJ2n30BMK+1nsM/hTVfdtf//WBrje2gTd7EMNtkQpCRscEYoYP6uVdDsprzFQCgPYhVwoPmwL8EjaA4T5bJ9dhO1NdbB/a1CapelYN/lV5SXw2snn4E7/MITwlqMkA9i2/+t/XVYqQnmIgBzJz25pgMMdWxXx8XvzYWtDLfh9HsVy62XqJp8pYsae3tawns7V9BL/AACRv4qHnp16fInb365Mvh59cmV1PfPlFFCafREg8u3LHbfnRD43hPZVQOTblztuz4l8bgjtq4DIty933J4T+dwQ2lcBkW9f7rg9J/K5IbSvAiLfvtxxe26oeZfHas5iFDwPz/GocFxdV2w6LTFZTj7E5sF99XRags1Uo+7QYXTN+puw9RYzlYEs9IvIz0LSkyET+UkksnBL5Gch6cmQifwkElm4JfKzkPRkyER+Eoks3BL5WUh6MmRDjTwRHIY1+mQaZub+P3N1Upl02zeSGRMMS/2yw/HYTAhuqUxA7c3Pg03V5eDxGFsvQDf5k9MhOHOhG67htCGhsHLXbTafPYk6AjGZ4Q/ne/rh+tAjxcps0Ya92xpxvYDdUFLkVywrl6mb/K67D+DMxzdgVoV4OWOUJo9Af4gNaBX3vdc6Vm8I78C1FQE4trdVXrlCqi7yo3i778Op0/iIz8WRPtUKLmVf1lTM6CBrWB4RNalhQKccqrrIz8cxYcENFVCAz5i5iMHh1/gkiHUrvyvIOerktMK4cfLZlDIlVo3Y6Wiuhxe/3AqXcOy42li9MC6d8tjgCFInky2Nrd6XBz2SUdrFOFdQAOcnUhI2mdSelqegE8dPGhFdVz4zUFFaBKde2Acv4Ro4OImUovTcH4af/+V9xTKUicPf8tgvbjGY39i1Bb59ZI8iPGzWsmKclKGowKdYbr1M3eQzRWwWCC0zQUxOzKxnl9JVECjBq35TVUClFF82NfLw4Wfr2kS+renjc57I58PP1rWJfFvTx+c8kc+Hn61rE/m2po/PeSKfDz9b1ybybU0fn/NEPh9+tq5N5NuaPj7niXw+/Gxdm8i3NX18zhP5fPjZujaRb2v6+Jwn8vnws3VtIt/W9PE5T+Tz4Wfr2kS+renjc57I58PP1rWJfFvTx+c8kc+Hn61r6+69y9bVe+fcNXjz/FVYoLF4KSE/vsQG64kHbryBy9exPyXJd7ng1MHd8F3s4l3oFw/3UqqXzNN15bMVHi982gt/+OgaEZ9EMAXbgfm1iypqURtNJOBPH3fDeVzg0ojoIn8RyR/HETiztGKWEazXrTMRM0Y+UziH4yfZiuBGRBf5uTm5UIQDNsxe4txIIHauU7w8YsdYBGwJtmJcZcuI6CKfDQ86uHMzHN7RDHm4plsOW8RX5c+IU9lWp7lg7asXewNQw5atq7d3SxAO7GgyBNlaqypqSosL4PWXvwmnBkchJrMAsLD63YER+OV7Z4VJtC+DALujSsfqnWjfDsefaZcp/UUSW+G0sd74cHfd5CdNB+uqkrvrbsP0brAuNmoZ5UUF0NywQa0YV76u2z6XJaqccQgYvvKNRhLPc8Pt1iOi6gkcnTyxkAC2rfK7AJeFN11GQvHlIea1RdZAwOKL48/5Mp8L35fE4U3cZ2/7IXGiBUfWRC4IZDa2BN+/kp755QVu0C4iIDkHCZNsQsBU8isCxdmEZUpj3YlLo5stppJfXVkKe4K1ZsfgOP2bywPw9Pag6XHljIzPiCeDSbHJ4dEpeOvvF+HyvQcQlvkQFInGIYITNwnFjR8sfAZnlRTqkduPYttEGJtEhcJaLD1uNzaqCFNTs89sMZtC8TB7OIuWVFijTVtdDbx8tBNaGs2/aEwnXxqg9PjNdz6A3+CHIqG8sKsFfvHKcWFSyvbfvXgDTp/5p0jfic5d8KPjh6DAwJcxkSKZg9N/fB/e/fctUc4r+9rhh9/5migtHQem3vbTERDZ1I4Aka8dK8eVJPIdR6n2gIh87Vg5riSR7zhKtQdE5GvHynEliXzHUao9oLSTz2aOlopcmrRMKo+ZPRk3UmKCNVhlqqSd/Kb6GmAtW0Jp2lgpPEzpfhHOTV/o+aLPG+sDV1dVJtvilgrDnduCovhyMdaNleZOqKzVb9dPfvra61oLm1GuBoFIxGIQwfEAAb8PjrS1wAlcM8ZnsFOimo+laGMJe8uGcHGoUpzZ+mjbFlyipA2nLVee215N73r5lWXFkINz04dCC1CGnV+fbW2GlzA+uebd9XSYlZ725l0WWBhX7ZgOzS/POM/mj/cbXDlCK0hs4MnMPHZ3xq7orDeylunjteqWKxfB+CZX4/NAgcoiCnI6zEjLCPLNCIx0qiMgftiql6cSDkKAyHcQmXpDIfL1Iuag8kS+g8jUGwqRrxcxB5Un8h1Ept5QiHy9iDmo/P8Agw3FKb5G/b0AAAAASUVORK5CYII=;fontSize=10;" parent="eO07zqcxzYHQwjbRKe_j-811" vertex="1">
          <mxGeometry width="27.06" height="24.5" as="geometry" />
        </mxCell>
        <mxCell id="eO07zqcxzYHQwjbRKe_j-810" value="cpu" style="text;html=1;align=center;verticalAlign=middle;whiteSpace=wrap;rounded=0;fontSize=10;" parent="eO07zqcxzYHQwjbRKe_j-811" vertex="1">
          <mxGeometry x="2.6599999999999966" y="22.5" width="21.74" height="15" as="geometry" />
        </mxCell>
        <mxCell id="eO07zqcxzYHQwjbRKe_j-812" value="" style="group" parent="1" vertex="1" connectable="0">
          <mxGeometry x="96.47" y="582.33" width="61.74000000000001" height="37.67" as="geometry" />
        </mxCell>
        <mxCell id="eO07zqcxzYHQwjbRKe_j-785" value="" style="shape=image;verticalLabelPosition=bottom;labelBackgroundColor=default;verticalAlign=top;aspect=fixed;imageAspect=0;image=data:image/png,iVBORw0KGgoAAAANSUhEUgAAAHgAAADpCAYAAADvXvM0AAAKt2lDQ1BJQ0MgUHJvZmlsZQAASImVlwdQU1kXx+976Y2WEAEpoTdBOgGkhB5A6dVGSEIIJYQUml1ZXMG1oCKCZUFXBBRclSJrRRTbIlixLsgioKyLBRuW7wFD2N1vvu+b78zcub933rn/c8+be2fOA4BixBGL02EVADJEMklEgDcjLj6BgRsCOEAC6sAVmHO4UjErLCwEIDY9/93e3QXQxHzLakLr39//V1Pl8aVcAKAwhJN4Um4GwieQ8ZUrlsgAQCEMDHNk4gnuQZgmQTaI8MgECyYZPaFDS5pi2mRMVIQPwmYA4MkcjkQAANkB8TOyuQJEhxyFsI2IJxQhXICwR0ZGJg/hdoTNkBgxwhP6zKS/6Aj+ppmk0ORwBAqeqmXS8L5CqTidk/d/fo7/bRnp8ukcJsggp0gCI6YY6knLDFawKGlB6DQLedPxUE+KPDB6mrlSn4Rp5nF8gxVr0xeETHOy0J+t0JGxo6aZL/WLnGZJZoQiV7LEhzXNHMlMXnlatMKfwmcr9PNTomKnOVsYs2CapWmRwTMxPgq/RB6h2D9fFOA9k9dfUXuG9C/1CtmKtbKUqEBF7ZyZ/fNFrBlNaZxibzy+r99MTLQiXizzVuQSp4cp4vnpAQq/NDtSsVaGHMiZtWGKb5jKCQqbZhAFUoAciAAP8IEEJIFMkA5kgAF8gRBIgRh54gDkOMn4ubKJ4nwyxXkSoSBFxmAht47PYIu41nMYdjZ2yEmcuMNTR+QNffJuQvSrM76scwC4FCFOwYyPYwjAyWcAUN/N+AxfI8drCwCnu7hySfaUb/KuYQARKAMa0AS6wBCYAStgB5yAG/ACfiAIhCKVxIMlgIvUk4FUkgOWgzWgEBSDLWAHKAf7wH5wCBwBx0AzOAXOg0vgGugCd8BD0AsGwAswCt6BcQiCcBAFokKakB5kDFlCdhAT8oD8oBAoAoqHEiEBJILk0HJoHVQMlUDlUCVUA/0MnYTOQ1egbug+1AcNQ6+hTzAKJsM0WAc2gefCTJgFB8NR8GJYAGfB+XABvAkug6vgw3ATfB6+Bt+Be+EX8BgKoEgoOkofZYVionxQoagEVDJKglqJKkKVoqpQ9ahWVAfqFqoXNYL6iMaiqWgG2grthg5ER6O56Cz0SvRGdDn6ELoJ3Y6+he5Dj6K/YigYbYwlxhXDxsRhBJgcTCGmFHMQ04i5iLmDGcC8w2KxdKwp1hkbiI3HpmKXYTdi92AbsOew3dh+7BgOh9PEWeLccaE4Dk6GK8Ttwh3GncXdxA3gPuBJeD28Hd4fn4AX4dfiS/G1+DP4m/hB/DhBhWBMcCWEEniEPMJmwgFCK+EGYYAwTlQlmhLdiVHEVOIaYhmxnniR+Ij4hkQiGZBcSOEkIWk1qYx0lHSZ1Ef6SFYjW5B9yIvIcvImcjX5HPk++Q2FQjGheFESKDLKJkoN5QLlCeWDElXJWomtxFNapVSh1KR0U+mlMkHZWJmlvEQ5X7lU+bjyDeURFYKKiYqPCkdlpUqFykmVeypjqlRVW9VQ1QzVjaq1qldUh9RwaiZqfmo8tQK1/WoX1PqpKKoh1YfKpa6jHqBepA7QsDRTGpuWSiumHaF10kbV1dQd1GPUc9Ur1E+r99JRdBM6m55O30w/Rr9L/zRLZxZrFn/Whln1s27Oeq8xW8NLg69RpNGgcUfjkyZD008zTXOrZrPmYy20loVWuFaO1l6ti1ojs2mz3WZzZxfNPjb7gTasbaEdob1Me7/2de0xHV2dAB2xzi6dCzojunRdL91U3e26Z3SH9ah6HnpCve16Z/WeM9QZLEY6o4zRzhjV19YP1JfrV+p36o8bmBpEG6w1aDB4bEg0ZBomG243bDMcNdIzmm+03KjO6IExwZhpnGK807jD+L2JqUmsyXqTZpMhUw1Ttmm+aZ3pIzOKmadZllmV2W1zrDnTPM18j3mXBWzhaJFiUWFxwxK2dLIUWu6x7J6DmeMyRzSnas49K7IVyyrbqs6qz5puHWK91rrZ+uVco7kJc7fO7Zj71cbRJt3mgM1DWzXbINu1tq22r+0s7Lh2FXa37Sn2/var7FvsXzlYOvAd9jr0OFId5zuud2xz/OLk7CRxqncadjZyTnTe7XyPSWOGMTcyL7tgXLxdVrmccvno6uQqcz3m+qeblVuaW63b0DzTefx5B+b1uxu4c9wr3Xs9GB6JHj969Hrqe3I8qzyfehl68bwOeg2yzFmprMOsl9423hLvRu/3Pq4+K3zO+aJ8A3yLfDv91Pyi/cr9nvgb+Av86/xHAxwDlgWcC8QEBgduDbzH1mFz2TXs0SDnoBVB7cHk4Mjg8uCnIRYhkpDW+fD8oPnb5j9aYLxAtKA5FISyQ7eFPg4zDcsK+yUcGx4WXhH+LMI2YnlERyQ1cmlkbeS7KO+ozVEPo82i5dFtMcoxi2JqYt7H+saWxPbGzY1bEXctXiteGN+SgEuISTiYMLbQb+GOhQOLHBcVLrq72HRx7uIrS7SWpC85vVR5KWfp8URMYmxibeJnTiinijOWxE7anTTK9eHu5L7gefG284b57vwS/mCye3JJ8pDAXbBNMJzimVKaMiL0EZYLX6UGpu5LfZ8Wmlad9i09Nr0hA5+RmHFSpCZKE7Vn6mbmZnaLLcWF4t4s16wdWaOSYMlBKSRdLG2R0ZBm6brcTP6dvC/bI7si+0NOTM7xXNVcUe71PIu8DXmD+f75Py1DL+Mua1uuv3zN8r4VrBWVK6GVSSvbVhmuKlg1sDpg9aE1xDVpa35da7O2ZO3bdbHrWgt0ClYX9H8X8F1doVKhpPDeerf1+75Hfy/8vnOD/YZdG74W8YquFtsUlxZ/3sjdePUH2x/Kfvi2KXlT52anzXu3YLeIttzd6rn1UIlqSX5J/7b525q2M7YXbX+7Y+mOK6UOpft2EnfKd/aWhZS17DLatWXX5/KU8jsV3hUNu7V3b9j9fg9vz829Xnvr9+nsK9736Ufhjz2VAZVNVSZVpfux+7P3PzsQc6DjJ+ZPNQe1DhYf/FItqu49FHGovca5pqZWu3ZzHVwnrxs+vOhw1xHfIy31VvWVDfSG4qPgqPzo858Tf757LPhY23Hm8foTxid2N1Ibi5qgprym0eaU5t6W+Jbuk0En21rdWht/sf6l+pT+qYrT6qc3nyGeKTjz7Wz+2bFz4nMj5wXn+9uWtj28EHfhdnt4e+fF4IuXL/lfutDB6jh72f3yqSuuV05eZV5tvuZ0rem64/XGXx1/bex06my64Xyjpculq7V7XveZm543z9/yvXXpNvv2tTsL7nTfjb7bc2/Rvd4eXs/Q/fT7rx5kPxh/uPoR5lHRY5XHpU+0n1T9Zv5bQ69T7+k+377rTyOfPuzn9r/4Xfr754GCZ5RnpYN6gzVDdkOnhv2Hu54vfD7wQvxifKTwD9U/dr80e3niT68/r4/GjQ68krz69nrjG8031W8d3raNhY09eZfxbvx90QfND4c+Mj92fIr9NDie8xn3ueyL+ZfWr8FfH33L+PZNzJFwJlsBFDLg5GQAXlcDQIlHeocuAIgLp3rsSYOm/gsmCfwnnurDJ80JgGovAKJXAxCC9Ch7kWGMMBmZJ9qkKC8A29srxnQ/PNm7TxgW+YspMdUkaAZ309RWg3/YVF//l33/cwYK1b/N/wJrOw0JSqibKQAAAFZlWElmTU0AKgAAAAgAAYdpAAQAAAABAAAAGgAAAAAAA5KGAAcAAAASAAAARKACAAQAAAABAAAAeKADAAQAAAABAAAA6QAAAABBU0NJSQAAAFNjcmVlbnNob3QQI2ZpAAAB1mlUWHRYTUw6Y29tLmFkb2JlLnhtcAAAAAAAPHg6eG1wbWV0YSB4bWxuczp4PSJhZG9iZTpuczptZXRhLyIgeDp4bXB0az0iWE1QIENvcmUgNi4wLjAiPgogICA8cmRmOlJERiB4bWxuczpyZGY9Imh0dHA6Ly93d3cudzMub3JnLzE5OTkvMDIvMjItcmRmLXN5bnRheC1ucyMiPgogICAgICA8cmRmOkRlc2NyaXB0aW9uIHJkZjphYm91dD0iIgogICAgICAgICAgICB4bWxuczpleGlmPSJodHRwOi8vbnMuYWRvYmUuY29tL2V4aWYvMS4wLyI+CiAgICAgICAgIDxleGlmOlBpeGVsWURpbWVuc2lvbj4yMzM8L2V4aWY6UGl4ZWxZRGltZW5zaW9uPgogICAgICAgICA8ZXhpZjpQaXhlbFhEaW1lbnNpb24+MTIwPC9leGlmOlBpeGVsWERpbWVuc2lvbj4KICAgICAgICAgPGV4aWY6VXNlckNvbW1lbnQ+U2NyZWVuc2hvdDwvZXhpZjpVc2VyQ29tbWVudD4KICAgICAgPC9yZGY6RGVzY3JpcHRpb24+CiAgIDwvcmRmOlJERj4KPC94OnhtcG1ldGE+CpVmGvsAAA0jSURBVHgB7Z1rbBxXFcfPPv3ceHdtr5/xI47rtHm0eTdtSdIEJW1SGlPUIkQVoiBUqFqJL1SAkECi5QsEJD5UQoCQKCAhSNPwoQVEBYhH2yS0JVGaoLQhr9pxHMexHTvexN7lTohdWZnZnXvu7J29m/9Ikdd3zv+ec/8/z8xmHncC/RdHs4SlZB0IluzIMLAbDgBwif8hADAAl7gDJT48bMEAXOIOlPjwsAUDcIk7UOLDwxZc4oDDXo/vykSaXn/jMO07dJQGxye87t64/hpj1fTJNUto28eWUzAY0F6/54Bffv0telH8w/J/B4ZGx+novgHxS5Ye2bBSuy2e76L3HnpP+yBMSPjbfx72pUzPAY9Npn0ZSLEnPT5w0ZcSPQfsyyiQ1NEBz4/Bdpm+un09dbU22q0qybZT/Rfohd/9pSjGpgXwwrYmWtLTVhQD1lFEJKrFVldDwS7alU3mBhXPn5q5Hrqu/LW/ves6dibQ+q9zU32CejqbqSwamWl2/ROAXVulHvj8vj+xOgkEAtS74i56+rFNVFlRJtUHdtFSdrkLHhoZsw2czmSJ829qOkP73zlGfUMjtv3magTgXO4w112ZmGQqnWXXp6ap/8Kwc4DDGgB2MEaluT4+T0Vuq+2ojVNnS73tulyNOAbncoe5zuk4eXdzA6vHZHUFPbFpNTWLL1uyCwDLOqYQ/6PndiqoeVLsonm+GaMCYGNQ8QoFYJ5vxqgA2BhUvEIBmOebMSoANgYVr1AA5vlmjAqAjUHFKxSAeb4ZowJgY1DxCgVgnm/GqHAuWiOqb/74Fels1tMQ7eIiw8P3LaOGuri0HoClLcsvyGQytkF/OHrCtt1N44EPztC3d/dSbU21m/DZGOyiZ63w7sPA0GXvOrvZ09un++lU/5B0vwAsbVl+QVY8h1SIZVrcuiO7ALCsYy7iU4kaF1FyISvbm2kB7uiQM61Q0eGw/VebL25czUpZWxOjB5b3UCIud/y1ktlXwioDonwO7OrdmC/E8/XYRXtuaXF1CMDFxcPzagDYc0uLq0MALi4enlcDwJ5bWlwdAnABeOifS8d5EADs7E1JrAHgksDoPAgAdvamJNYAcElgdB4EADt7UxJrcC5aI8Zn9/ySla02VkmPbVxFSxa2Ss93CcAsy3OLJq9dtw04eLbPtt1N4/Hzg/T9Lz0u/YwwdtFu3JWMOV+AOzpOXRqh/344KFkJEQBLW5ZfUCU5E07+HsV13VCIkomYm9A5MQA8xw5vfrEu0Hu5hEJB2nb3HTQfUzh4aSu/r6CY18pu+cq29XbNOdvCAu6ClhR1i4nQysswEVpOs/xe+akta7WXgF20dsv1JgRgvX5rzwbA2i3XmxCA9fqtPRsAa7dcb0IA1uu39mwArN1yvQkBWK/f2rMBsHbL9SYEYL1+a88GwNot15sQF/wL4Hc2a/8A+L1f/i4rW7KygnZ/fC09Kt5gGo3IIcMWzLI8t+jyFW9fq3tp4ir95I9v0unz8u8/BODcrFhrRzwGbBVxeXKSzg/Kz/0BwCyEuUVeX/C3slWVRWl+c13uxDZr5XboNh2g6VYHYpXltzaKlnLJ4+dMJxXRKO3evIZaxJtXZBcAlnVMIf6nz3xGWm3dHZKoqaK45PxYM4kAeMYJDT+72vW/YhfHYA1g/UwBwH66ryE3AGsw2c8UAOyn+xpyA7AGk/1MAcB+uq8hNwBrMNnPFADsp/sacgOwBpP9TAHAfrqvITdOVWoweSbFwX+/P/NR6mesupI6WuvxdKGUawUMnnZ4KcezP9vHyhoKBunR1Yvpmd4HSfbhcuyiWZbnFg2PjucOkFxr/cG8+q9jdOLsgKQSUzhIG+ZGcOXqpJswqZj01BSl0/aTu+TqCFtwLneY69oa5e+8yJeqIxGnDryUI59NetY7TeHQ3VzPKqBJzPmxc/NaqmdMwoJv0SzLeaKXntvFEyqosItWMM8EKQCbQEmhRgBWMM8EKQCbQEmhRgBWMM8EKQCbQEmhRgBWMM8EKQCbQEmhRgBWMM8EKQCbQEmhRgBWMM8EKc5Fa6S05xevsrLViYsNG1YuIusqVTBoPxe1U8cA7OSMQnv6+pSt+jeHjtq2u2k8cPIsPb97ByViVW7CZ2Owi561wrsPQyNj3nV2s6d3TvfRiTO4o8NzYzkdOszoz+lqVpPJZMnpOvNskM0H7KJtTFFtaqpN2HYREe9f4CwW2Pu726m7rUFaDsDSlvEFO9evYokTVRW0fnkP1YjbZ2UXAJZ1TCH+Czs2KKh5Ut4+g5cLKh8cAGAfTNeZEoB1uu1DLgD2wXSdKQFYp9s+5AJgH0zXmRKAdbrtQy4A9sF0nSkBWKfbPuQCYB9M15kSpyo1uj0xeY2VzbrIHw2HpS/2W8kAmGU5T/TU915iCevFXNG9D9xD65YupEg4JNUHAEvZ5S54TLxEw245cfGSXXPeNkt3amiYOptTNL/B/lKkUyc4Bjs5o9A+PObtHB1WKX2Xx+jkOdzRoYDFO2lMvOeoEEsK72wohK3yfTrdGJeSvGFuJnNYHHcfWXEXdTYlZ5pc/8Qx2LVV6oHfeHwLqxNrbqzO1pSYCC0qrQdgacv4gjXLFvLFTCW+ZDGNM0UGwKaQYtYJwEzjTJEBsCmkmHUCMNM4U2QAbAopZp0AzDTOFBkAm0KKWScAM40zRQbAppBi1olTlUzjOLLjjCn5SczYUCYuNqTENA6y72uwagRgDimmZteen0srA+LZ4Drx2OgnVi2mJ7euo8pyuQsO2EVLW55fMHh5NH+Qy4hsNkuD4gaCX//jXTpzfsil6qMwAP7IC88+jV9Ne9bXTEfj167ROQCescPfn4l5cjPhuKk2IXbTi++Y7yZ0TgyOwXPs8OaXmir7qRZWdckDsioqi0bo4RV3Ut28aukCAVjaMr7gW5/dxhJHImGKiXk6ZCdBs5IBMMtynqguOY8nVFDhS5aCeSZIAdgESgo1ArCCeSZIAdgESgo1ArCCeSZIAdgESgo1ArCCeSZIAdgESgo1ArCCeSZIAdgESgo1ArCCeSZIAdgESgo1ArCCeSZIAdgESgo1ArCCeSZIAdgESgo1ArCCeSZIAdgESgo1ArCCeSZIAdgESgo1ArCCeSZIAdgESgo1ArCCeSZIAdgESgo1ArCCeSZIAdgESgo1ArCCeSZI8WySRkrjE5OsbKFQSDxhGCbraX/ZBYBlHVOIf3H/X1nqCjFtw9pFHbS8u42sycFlFgCWcctl7BWHJ/z3vnXYZQ9zw6wt9+/HTtIPn36CUvHY3JV5fsMxOI9BnNWXRsY4MkeNNU/HqQuX6Mh/zjjGOK0AYCdnFNpDIe9tjYg+U7XyzxdjF60A0knaUi//8gynvqzdc1y8s+H+nk5qb6pzCnNsB2BHa7xf8bVPb5XuNHgDcDktmt9AnNf1ALC05XzBjnXL+GKm0vuDBbMQyArjAAAXxtei6RWAiwZFYQoB4ML4WjS9AnDRoChMIQBcGF+LplcALhoUhSkEgAvja9H0CsBFg6IwhQBwYXwtml5xqlIjig84L+UQ9ZWJ6YRTyRqKirs6ZBd5hWwGxM868MKvXpv9LPPBevP3QyvvpIfuXUpRAVtmkYuW6fk2jh0asX8px3v9g2xX3h8YosULWqmrpV6qDy2ADw+9SWMfHpIqzOTgtwd4N9flGvPo1Uk6KXbxRQn44PABOhO5mKv+klrXl24Q45G/OJ/LhHhFOXW1NeYKsV2nZQu2zVzCjdGy67ajaxFvL5NdrDs6ktUVtEW8lKO5rkZWjnc2SDumIPjO53ul1dad0BVlEUol5t14+4psB9iCZR1TiO9h7GIV0t2QagF8+lojXZiIq9ZqjH4yXVY0tWoBfG40QMFMpGgGXehCMuNivJQtdBpX/eNUpSubzA0CYHPZuaocgF3ZZG4QAJvLzlXlAOzKJnODANhcdq4qB2BXNpkbBMDmsnNVuZYTHa4quQ2Cfv/GEdYorXPRS7taKVmDN4CzDNQl+sH+P7NSRcS8HJuWLKSndmykKvGssMyCLVjGLZexmXRQnKqcviV6ZDJ9S5vbhr0HjtD2++6hnjbrWrP7Bcdg9165jsxk5ac7ytd5Rpza7hfzdMguACzrmIv4UNT7Cw1dDUnqbm9ykX1uCHbRc/3w5LdAMGPbz4Ning3OUhuvps3ijo6GpPwdIQDMcZyp+frO7SxlWMx0Vy6+SWOmO5Z9+kSxqgp9yW5m0rIFZ6YCFBD/bpcle2Os3h+HOf5pARw4JwYbvo2+z01xUBRGowVwaNj+S0dhhuR/r6EiuV3HcsLzzUrcxovFxgG/bPEccE+D3LMzNl6UZNPWxd2+jMtzwJ/bvIaWiWn3opLzGvsyeg1JY+LJwJUdLfTk1rUast2aItB/cdTTr3tT0xnqE6fU+sSUutPi8+2+lIvHPRvFIyvNqaT4f6x+NzwHrH8IyJjLAc930bmSYZ1+BwBYv+daMwKwVrv1JwNg/Z5rzfg/P+zUdK5gPVkAAAAASUVORK5CYII=;rotation=-90;horizontal=1;" parent="eO07zqcxzYHQwjbRKe_j-812" vertex="1">
          <mxGeometry x="20.69999999999999" y="-9.580000000000041" width="20.34" height="39.5" as="geometry" />
        </mxCell>
        <mxCell id="eO07zqcxzYHQwjbRKe_j-808" value="memory" style="text;html=1;align=center;verticalAlign=middle;whiteSpace=wrap;rounded=0;fontSize=10;" parent="eO07zqcxzYHQwjbRKe_j-812" vertex="1">
          <mxGeometry x="10" y="22.67" width="41.74" height="15" as="geometry" />
        </mxCell>
        <mxCell id="eO07zqcxzYHQwjbRKe_j-871" value="" style="aspect=fixed;sketch=0;html=1;dashed=0;whitespace=wrap;verticalLabelPosition=bottom;verticalAlign=top;fillColor=#2875E2;strokeColor=#ffffff;points=[[0.005,0.63,0],[0.1,0.2,0],[0.9,0.2,0],[0.5,0,0],[0.995,0.63,0],[0.72,0.99,0],[0.5,1,0],[0.28,0.99,0]];shape=mxgraph.kubernetes.icon2;prIcon=pv" parent="1" vertex="1">
          <mxGeometry x="199.43" y="582.5" width="28.82" height="27.67" as="geometry" />
        </mxCell>
        <mxCell id="eO07zqcxzYHQwjbRKe_j-877" value="pv" style="text;html=1;align=center;verticalAlign=middle;whiteSpace=wrap;rounded=0;fontSize=10;" parent="1" vertex="1">
          <mxGeometry x="192.97" y="605" width="41.74" height="15" as="geometry" />
        </mxCell>
        <mxCell id="eO07zqcxzYHQwjbRKe_j-890" value="" style="group;verticalAlign=bottom;movable=1;resizable=1;rotatable=1;deletable=1;editable=1;locked=0;connectable=1;" parent="1" vertex="1" connectable="0">
          <mxGeometry x="157.70999999999998" y="450" width="72" height="65.09" as="geometry" />
        </mxCell>
        <mxCell id="eO07zqcxzYHQwjbRKe_j-891" value="" style="group" parent="eO07zqcxzYHQwjbRKe_j-890" vertex="1" connectable="0">
          <mxGeometry width="70" height="60" as="geometry" />
        </mxCell>
        <mxCell id="eO07zqcxzYHQwjbRKe_j-892" value="pod" style="rounded=0;whiteSpace=wrap;html=1;fillColor=#d5e8d4;strokeColor=#82b366;verticalAlign=top;arcSize=27;align=left;shadow=1;glass=0;" parent="eO07zqcxzYHQwjbRKe_j-891" vertex="1">
          <mxGeometry x="-1.789999999999992" width="70" height="60" as="geometry" />
        </mxCell>
        <mxCell id="eO07zqcxzYHQwjbRKe_j-893" value="app" style="editableCssRules=.*;html=1;shape=image;verticalLabelPosition=middle;labelBackgroundColor=none;verticalAlign=middle;aspect=fixed;imageAspect=0;image=data:image/svg+xml,PHN2ZyB4bWxucz0iaHR0cDovL3d3dy53My5vcmcvMjAwMC9zdmciIHhtbG5zOnY9Imh0dHBzOi8vdmVjdGEuaW8vbmFubyIgd2lkdGg9IjE0LjAwMDI5OTQ1MzczNTM1MiIgaGVpZ2h0PSIxNS45OTI5MjI3ODI4OTc5NSIgdmlld0JveD0iLTAuMDAwMTQ5NjA4NDAwNTMzOTA3MTIgLTAuMDAwNDYxNzIyMDgzODU1NDIwMzUgMTQuMDAwMjk5NDUzNzM1MzUyIDE1Ljk5MjkyMjc4Mjg5Nzk1Ij4mI3hhOwk8c3R5bGUgdHlwZT0idGV4dC9jc3MiPiYjeGE7CS5zdDB7ZmlsbDojNDI4NWY0O30mI3hhOwk8L3N0eWxlPiYjeGE7CTxwYXRoIGNsYXNzPSJzdDAiIGQ9Ik0xMy42NyAzLjczNkw3LjM2LjA5NmEuNzIuNzIgMCAwIDAtLjcyIDBMLjMzIDMuNzM2YS43Mi43MiAwIDAgMC0uMzMuNjJ2Ny4yOGEuNzIuNzIgMCAwIDAgLjM2LjYybDYuMjggMy42NGEuNzIuNzIgMCAwIDAgLjcyIDBsNi4zMS0zLjY0YS43Mi43MiAwIDAgMCAuMzMtLjYydi03LjI4YS43Mi43MiAwIDAgMC0uMzMtLjYyem0tLjg3IDcuMmwtMi4yLTEuMjd2LTMuMzRsLTMuMjUgMS44N3YzLjhsMi45LTEuNjcgMi4yIDEuMjctNS40NSAzLjEtNS40NS0zLjE1IDIuMi0xLjI3IDIuOSAxLjcydi0zLjhMMy40IDYuMzI2djMuMzRsLTIuMiAxLjI3di02LjI5bDUuNDUtMy4xNHYyLjQ5bC0yLjkgMS43Mkw3IDcuNTg2bDMuMjUtMS44OC0yLjktMS43MXYtMi40OWw1LjQ1IDMuMTR6Ii8+JiN4YTs8L3N2Zz4=;labelPosition=center;align=center;direction=south;" parent="eO07zqcxzYHQwjbRKe_j-891" vertex="1">
          <mxGeometry x="12.450000000000001" y="14.27" width="45.09" height="39.45" as="geometry" />
        </mxCell>
        <mxCell id="eO07zqcxzYHQwjbRKe_j-894" style="edgeStyle=orthogonalEdgeStyle;rounded=0;orthogonalLoop=1;jettySize=auto;html=1;entryX=0.5;entryY=0;entryDx=0;entryDy=0;" parent="1" source="eO07zqcxzYHQwjbRKe_j-892" target="eO07zqcxzYHQwjbRKe_j-794" edge="1">
          <mxGeometry relative="1" as="geometry">
            <mxPoint x="125" y="550" as="targetPoint" />
          </mxGeometry>
        </mxCell>
        <mxCell id="eO07zqcxzYHQwjbRKe_j-896" value="worker node" style="html=1;outlineConnect=0;whiteSpace=wrap;fillColor=#dae8fc;shape=mxgraph.archimate.application;appType=node;strokeColor=#6c8ebf;align=left;verticalAlign=top;" parent="1" vertex="1">
          <mxGeometry x="320" y="420" width="200" height="270" as="geometry" />
        </mxCell>
        <mxCell id="eO07zqcxzYHQwjbRKe_j-897" style="edgeStyle=orthogonalEdgeStyle;rounded=0;orthogonalLoop=1;jettySize=auto;html=1;exitX=0.5;exitY=1;exitDx=0;exitDy=0;exitPerimeter=0;" parent="1" source="eO07zqcxzYHQwjbRKe_j-896" target="eO07zqcxzYHQwjbRKe_j-896" edge="1">
          <mxGeometry relative="1" as="geometry" />
        </mxCell>
        <mxCell id="eO07zqcxzYHQwjbRKe_j-898" value="" style="group;verticalAlign=bottom;movable=1;resizable=1;rotatable=1;deletable=1;editable=1;locked=0;connectable=1;" parent="1" vertex="1" connectable="0">
          <mxGeometry x="351.65999999999997" y="450" width="72" height="65.09" as="geometry" />
        </mxCell>
        <mxCell id="eO07zqcxzYHQwjbRKe_j-899" value="" style="group" parent="eO07zqcxzYHQwjbRKe_j-898" vertex="1" connectable="0">
          <mxGeometry width="70" height="60" as="geometry" />
        </mxCell>
        <mxCell id="eO07zqcxzYHQwjbRKe_j-900" value="pod" style="rounded=0;whiteSpace=wrap;html=1;fillColor=#d5e8d4;strokeColor=#82b366;verticalAlign=top;arcSize=27;align=left;shadow=1;glass=0;" parent="eO07zqcxzYHQwjbRKe_j-899" vertex="1">
          <mxGeometry x="-1.789999999999992" width="70" height="60" as="geometry" />
        </mxCell>
        <mxCell id="eO07zqcxzYHQwjbRKe_j-901" value="app" style="editableCssRules=.*;html=1;shape=image;verticalLabelPosition=middle;labelBackgroundColor=none;verticalAlign=middle;aspect=fixed;imageAspect=0;image=data:image/svg+xml,PHN2ZyB4bWxucz0iaHR0cDovL3d3dy53My5vcmcvMjAwMC9zdmciIHhtbG5zOnY9Imh0dHBzOi8vdmVjdGEuaW8vbmFubyIgd2lkdGg9IjE0LjAwMDI5OTQ1MzczNTM1MiIgaGVpZ2h0PSIxNS45OTI5MjI3ODI4OTc5NSIgdmlld0JveD0iLTAuMDAwMTQ5NjA4NDAwNTMzOTA3MTIgLTAuMDAwNDYxNzIyMDgzODU1NDIwMzUgMTQuMDAwMjk5NDUzNzM1MzUyIDE1Ljk5MjkyMjc4Mjg5Nzk1Ij4mI3hhOwk8c3R5bGUgdHlwZT0idGV4dC9jc3MiPiYjeGE7CS5zdDB7ZmlsbDojNDI4NWY0O30mI3hhOwk8L3N0eWxlPiYjeGE7CTxwYXRoIGNsYXNzPSJzdDAiIGQ9Ik0xMy42NyAzLjczNkw3LjM2LjA5NmEuNzIuNzIgMCAwIDAtLjcyIDBMLjMzIDMuNzM2YS43Mi43MiAwIDAgMC0uMzMuNjJ2Ny4yOGEuNzIuNzIgMCAwIDAgLjM2LjYybDYuMjggMy42NGEuNzIuNzIgMCAwIDAgLjcyIDBsNi4zMS0zLjY0YS43Mi43MiAwIDAgMCAuMzMtLjYydi03LjI4YS43Mi43MiAwIDAgMC0uMzMtLjYyem0tLjg3IDcuMmwtMi4yLTEuMjd2LTMuMzRsLTMuMjUgMS44N3YzLjhsMi45LTEuNjcgMi4yIDEuMjctNS40NSAzLjEtNS40NS0zLjE1IDIuMi0xLjI3IDIuOSAxLjcydi0zLjhMMy40IDYuMzI2djMuMzRsLTIuMiAxLjI3di02LjI5bDUuNDUtMy4xNHYyLjQ5bC0yLjkgMS43Mkw3IDcuNTg2bDMuMjUtMS44OC0yLjktMS43MXYtMi40OWw1LjQ1IDMuMTR6Ii8+JiN4YTs8L3N2Zz4=;labelPosition=center;align=center;direction=south;" parent="eO07zqcxzYHQwjbRKe_j-899" vertex="1">
          <mxGeometry x="12.450000000000001" y="14.27" width="45.09" height="39.45" as="geometry" />
        </mxCell>
        <mxCell id="eO07zqcxzYHQwjbRKe_j-902" value="&lt;font style=&quot;font-size: 10px;&quot;&gt;hostpath&lt;/font&gt;" style="shadow=0;dashed=0;html=1;strokeColor=none;fillColor=#4495D1;labelPosition=center;verticalLabelPosition=bottom;verticalAlign=middle;align=center;outlineConnect=0;shape=mxgraph.veeam.2d.file_system_browser;" parent="1" vertex="1">
          <mxGeometry x="430.61" y="585" width="30" height="20" as="geometry" />
        </mxCell>
        <mxCell id="eO07zqcxzYHQwjbRKe_j-903" style="rounded=0;orthogonalLoop=1;jettySize=auto;html=1;" parent="1" source="eO07zqcxzYHQwjbRKe_j-905" target="eO07zqcxzYHQwjbRKe_j-911" edge="1">
          <mxGeometry relative="1" as="geometry" />
        </mxCell>
        <mxCell id="eO07zqcxzYHQwjbRKe_j-904" style="rounded=0;orthogonalLoop=1;jettySize=auto;html=1;exitX=0.609;exitY=0.95;exitDx=0;exitDy=0;entryX=1;entryY=0.5;entryDx=0;entryDy=0;exitPerimeter=0;" parent="1" source="eO07zqcxzYHQwjbRKe_j-905" target="eO07zqcxzYHQwjbRKe_j-914" edge="1">
          <mxGeometry relative="1" as="geometry" />
        </mxCell>
        <mxCell id="eO07zqcxzYHQwjbRKe_j-905" value="req/limit" style="text;html=1;align=center;verticalAlign=middle;whiteSpace=wrap;rounded=0;fontSize=10;" parent="1" vertex="1">
          <mxGeometry x="353" y="540" width="64" height="20" as="geometry" />
        </mxCell>
        <mxCell id="eO07zqcxzYHQwjbRKe_j-906" style="edgeStyle=orthogonalEdgeStyle;rounded=0;orthogonalLoop=1;jettySize=auto;html=1;entryX=0.5;entryY=0;entryDx=0;entryDy=0;" parent="1" source="eO07zqcxzYHQwjbRKe_j-900" target="eO07zqcxzYHQwjbRKe_j-905" edge="1">
          <mxGeometry relative="1" as="geometry" />
        </mxCell>
        <mxCell id="eO07zqcxzYHQwjbRKe_j-907" value="" style="rounded=0;orthogonalLoop=1;jettySize=auto;html=1;" parent="1" source="eO07zqcxzYHQwjbRKe_j-909" target="eO07zqcxzYHQwjbRKe_j-902" edge="1">
          <mxGeometry relative="1" as="geometry" />
        </mxCell>
        <mxCell id="eO07zqcxzYHQwjbRKe_j-908" value="" style="rounded=0;orthogonalLoop=1;jettySize=auto;html=1;entryX=0.5;entryY=0;entryDx=0;entryDy=0;" parent="1" source="eO07zqcxzYHQwjbRKe_j-909" edge="1">
          <mxGeometry relative="1" as="geometry">
            <mxPoint x="484.74" y="582.5" as="targetPoint" />
          </mxGeometry>
        </mxCell>
        <mxCell id="eO07zqcxzYHQwjbRKe_j-909" value="volumes" style="text;html=1;align=center;verticalAlign=middle;whiteSpace=wrap;rounded=0;fontSize=10;" parent="1" vertex="1">
          <mxGeometry x="428.21" y="540" width="64" height="20" as="geometry" />
        </mxCell>
        <mxCell id="eO07zqcxzYHQwjbRKe_j-910" value="" style="group" parent="1" vertex="1" connectable="0">
          <mxGeometry x="350" y="582.5" width="27.060000000000002" height="37.5" as="geometry" />
        </mxCell>
        <mxCell id="eO07zqcxzYHQwjbRKe_j-911" value="" style="shape=image;verticalLabelPosition=bottom;labelBackgroundColor=none;verticalAlign=middle;aspect=fixed;imageAspect=0;image=data:image/png,iVBORw0KGgoAAAANSUhEUgAAAH8AAABzCAYAAACxf91oAAAKt2lDQ1BJQ0MgUHJvZmlsZQAASImVlwdQU1kXx+976Y2WEAEpoTdBOgGkhB5A6dVGSEIIJYQUml1ZXMG1oCKCZUFXBBRclSJrRRTbIlixLsgioKyLBRuW7wFD2N1vvu+b78zcub933rn/c8+be2fOA4BixBGL02EVADJEMklEgDcjLj6BgRsCOEAC6sAVmHO4UjErLCwEIDY9/93e3QXQxHzLakLr39//V1Pl8aVcAKAwhJN4Um4GwieQ8ZUrlsgAQCEMDHNk4gnuQZgmQTaI8MgECyYZPaFDS5pi2mRMVIQPwmYA4MkcjkQAANkB8TOyuQJEhxyFsI2IJxQhXICwR0ZGJg/hdoTNkBgxwhP6zKS/6Aj+ppmk0ORwBAqeqmXS8L5CqTidk/d/fo7/bRnp8ukcJsggp0gCI6YY6knLDFawKGlB6DQLedPxUE+KPDB6mrlSn4Rp5nF8gxVr0xeETHOy0J+t0JGxo6aZL/WLnGZJZoQiV7LEhzXNHMlMXnlatMKfwmcr9PNTomKnOVsYs2CapWmRwTMxPgq/RB6h2D9fFOA9k9dfUXuG9C/1CtmKtbKUqEBF7ZyZ/fNFrBlNaZxibzy+r99MTLQiXizzVuQSp4cp4vnpAQq/NDtSsVaGHMiZtWGKb5jKCQqbZhAFUoAciAAP8IEEJIFMkA5kgAF8gRBIgRh54gDkOMn4ubKJ4nwyxXkSoSBFxmAht47PYIu41nMYdjZ2yEmcuMNTR+QNffJuQvSrM76scwC4FCFOwYyPYwjAyWcAUN/N+AxfI8drCwCnu7hySfaUb/KuYQARKAMa0AS6wBCYAStgB5yAG/ACfiAIhCKVxIMlgIvUk4FUkgOWgzWgEBSDLWAHKAf7wH5wCBwBx0AzOAXOg0vgGugCd8BD0AsGwAswCt6BcQiCcBAFokKakB5kDFlCdhAT8oD8oBAoAoqHEiEBJILk0HJoHVQMlUDlUCVUA/0MnYTOQ1egbug+1AcNQ6+hTzAKJsM0WAc2gefCTJgFB8NR8GJYAGfB+XABvAkug6vgw3ATfB6+Bt+Be+EX8BgKoEgoOkofZYVionxQoagEVDJKglqJKkKVoqpQ9ahWVAfqFqoXNYL6iMaiqWgG2grthg5ER6O56Cz0SvRGdDn6ELoJ3Y6+he5Dj6K/YigYbYwlxhXDxsRhBJgcTCGmFHMQ04i5iLmDGcC8w2KxdKwp1hkbiI3HpmKXYTdi92AbsOew3dh+7BgOh9PEWeLccaE4Dk6GK8Ttwh3GncXdxA3gPuBJeD28Hd4fn4AX4dfiS/G1+DP4m/hB/DhBhWBMcCWEEniEPMJmwgFCK+EGYYAwTlQlmhLdiVHEVOIaYhmxnniR+Ij4hkQiGZBcSOEkIWk1qYx0lHSZ1Ef6SFYjW5B9yIvIcvImcjX5HPk++Q2FQjGheFESKDLKJkoN5QLlCeWDElXJWomtxFNapVSh1KR0U+mlMkHZWJmlvEQ5X7lU+bjyDeURFYKKiYqPCkdlpUqFykmVeypjqlRVW9VQ1QzVjaq1qldUh9RwaiZqfmo8tQK1/WoX1PqpKKoh1YfKpa6jHqBepA7QsDRTGpuWSiumHaF10kbV1dQd1GPUc9Ur1E+r99JRdBM6m55O30w/Rr9L/zRLZxZrFn/Whln1s27Oeq8xW8NLg69RpNGgcUfjkyZD008zTXOrZrPmYy20loVWuFaO1l6ti1ojs2mz3WZzZxfNPjb7gTasbaEdob1Me7/2de0xHV2dAB2xzi6dCzojunRdL91U3e26Z3SH9ah6HnpCve16Z/WeM9QZLEY6o4zRzhjV19YP1JfrV+p36o8bmBpEG6w1aDB4bEg0ZBomG243bDMcNdIzmm+03KjO6IExwZhpnGK807jD+L2JqUmsyXqTZpMhUw1Ttmm+aZ3pIzOKmadZllmV2W1zrDnTPM18j3mXBWzhaJFiUWFxwxK2dLIUWu6x7J6DmeMyRzSnas49K7IVyyrbqs6qz5puHWK91rrZ+uVco7kJc7fO7Zj71cbRJt3mgM1DWzXbINu1tq22r+0s7Lh2FXa37Sn2/var7FvsXzlYOvAd9jr0OFId5zuud2xz/OLk7CRxqncadjZyTnTe7XyPSWOGMTcyL7tgXLxdVrmccvno6uQqcz3m+qeblVuaW63b0DzTefx5B+b1uxu4c9wr3Xs9GB6JHj969Hrqe3I8qzyfehl68bwOeg2yzFmprMOsl9423hLvRu/3Pq4+K3zO+aJ8A3yLfDv91Pyi/cr9nvgb+Av86/xHAxwDlgWcC8QEBgduDbzH1mFz2TXs0SDnoBVB7cHk4Mjg8uCnIRYhkpDW+fD8oPnb5j9aYLxAtKA5FISyQ7eFPg4zDcsK+yUcGx4WXhH+LMI2YnlERyQ1cmlkbeS7KO+ozVEPo82i5dFtMcoxi2JqYt7H+saWxPbGzY1bEXctXiteGN+SgEuISTiYMLbQb+GOhQOLHBcVLrq72HRx7uIrS7SWpC85vVR5KWfp8URMYmxibeJnTiinijOWxE7anTTK9eHu5L7gefG284b57vwS/mCye3JJ8pDAXbBNMJzimVKaMiL0EZYLX6UGpu5LfZ8Wmlad9i09Nr0hA5+RmHFSpCZKE7Vn6mbmZnaLLcWF4t4s16wdWaOSYMlBKSRdLG2R0ZBm6brcTP6dvC/bI7si+0NOTM7xXNVcUe71PIu8DXmD+f75Py1DL+Mua1uuv3zN8r4VrBWVK6GVSSvbVhmuKlg1sDpg9aE1xDVpa35da7O2ZO3bdbHrWgt0ClYX9H8X8F1doVKhpPDeerf1+75Hfy/8vnOD/YZdG74W8YquFtsUlxZ/3sjdePUH2x/Kfvi2KXlT52anzXu3YLeIttzd6rn1UIlqSX5J/7b525q2M7YXbX+7Y+mOK6UOpft2EnfKd/aWhZS17DLatWXX5/KU8jsV3hUNu7V3b9j9fg9vz829Xnvr9+nsK9736Ufhjz2VAZVNVSZVpfux+7P3PzsQc6DjJ+ZPNQe1DhYf/FItqu49FHGovca5pqZWu3ZzHVwnrxs+vOhw1xHfIy31VvWVDfSG4qPgqPzo858Tf757LPhY23Hm8foTxid2N1Ibi5qgprym0eaU5t6W+Jbuk0En21rdWht/sf6l+pT+qYrT6qc3nyGeKTjz7Wz+2bFz4nMj5wXn+9uWtj28EHfhdnt4e+fF4IuXL/lfutDB6jh72f3yqSuuV05eZV5tvuZ0rem64/XGXx1/bex06my64Xyjpculq7V7XveZm543z9/yvXXpNvv2tTsL7nTfjb7bc2/Rvd4eXs/Q/fT7rx5kPxh/uPoR5lHRY5XHpU+0n1T9Zv5bQ69T7+k+377rTyOfPuzn9r/4Xfr754GCZ5RnpYN6gzVDdkOnhv2Hu54vfD7wQvxifKTwD9U/dr80e3niT68/r4/GjQ68krz69nrjG8031W8d3raNhY09eZfxbvx90QfND4c+Mj92fIr9NDie8xn3ueyL+ZfWr8FfH33L+PZNzJFwJlsBFDLg5GQAXlcDQIlHeocuAIgLp3rsSYOm/gsmCfwnnurDJ80JgGovAKJXAxCC9Ch7kWGMMBmZJ9qkKC8A29srxnQ/PNm7TxgW+YspMdUkaAZ309RWg3/YVF//l33/cwYK1b/N/wJrOw0JSqibKQAAAFZlWElmTU0AKgAAAAgAAYdpAAQAAAABAAAAGgAAAAAAA5KGAAcAAAASAAAARKACAAQAAAABAAAAf6ADAAQAAAABAAAAcwAAAABBU0NJSQAAAFNjcmVlbnNob3T0oy8xAAAB1mlUWHRYTUw6Y29tLmFkb2JlLnhtcAAAAAAAPHg6eG1wbWV0YSB4bWxuczp4PSJhZG9iZTpuczptZXRhLyIgeDp4bXB0az0iWE1QIENvcmUgNi4wLjAiPgogICA8cmRmOlJERiB4bWxuczpyZGY9Imh0dHA6Ly93d3cudzMub3JnLzE5OTkvMDIvMjItcmRmLXN5bnRheC1ucyMiPgogICAgICA8cmRmOkRlc2NyaXB0aW9uIHJkZjphYm91dD0iIgogICAgICAgICAgICB4bWxuczpleGlmPSJodHRwOi8vbnMuYWRvYmUuY29tL2V4aWYvMS4wLyI+CiAgICAgICAgIDxleGlmOlBpeGVsWURpbWVuc2lvbj4xMTU8L2V4aWY6UGl4ZWxZRGltZW5zaW9uPgogICAgICAgICA8ZXhpZjpQaXhlbFhEaW1lbnNpb24+MTI3PC9leGlmOlBpeGVsWERpbWVuc2lvbj4KICAgICAgICAgPGV4aWY6VXNlckNvbW1lbnQ+U2NyZWVuc2hvdDwvZXhpZjpVc2VyQ29tbWVudD4KICAgICAgPC9yZGY6RGVzY3JpcHRpb24+CiAgIDwvcmRmOlJERj4KPC94OnhtcG1ldGE+CvXtUGYAAArySURBVHgB7V1pbBTnGX7t9XoPn+sbjJ21sTGXcWrTYgoBQkFNUkqVlFb8qFoSRZUq9WdVNapURf3Hr/7on6hS06ZVq0pESVSpUasWQkI4gqmhKZAYDLaxscE2Ptf2nnbfz/U6M+PxXN/O7M7s+wozM9/xHs8z137zHTkj4zNLQJKVCORmZdQU9DICRH4WnwhEfhaTn5cJsccTCXg8PgXxxCLU1ZRDbq655ySz83h8EiLRONRWl4En320qDEtLSzAyNgWxeBw2VAYg350RsENGePHnf1yBSz39kFhchLZgLbx67AB4Pea4Nr8Qgfcu/Qcu/PcuRGJx+NLmOjh5qAMqy0pMOwF+97eL0NU7sHxy720Jwg+e3wcul7knuJZgzEFYi+WVMrfvDMJvz12FCF4VTD57OArBilI4drB9pURqN5/gSfbW2U9gej68rPj+6ATU493mW19tS62hFW0Xrt2G339wFaJ4d2NyZ2QM6gLFcHSfOfZWzGrapP30u3Kzd5V45nEcr/7u3iFNzhspNDW3sEo8qx/Gq//ug0cwNx8xok61zvV7Q6vEs8KReAL6hsdV61lRIO3kWxFkOm0s4HtFpgqRn6nMWOAXkW8ByJlqgsjPVGYs8IvItwDkTDVB5GcqMxb4ReRbAHKmmiDyM5UZC/zKMft7/vjULHT3DMBtbOxIYJu6VHqGx+DTkVFRcl2gBDobN4nSUnVwD9v0uweGReqasL19Z201uF0uUXoqDrr6HkL/xJRI1c6aSthWWyVKYwesyXfzpirYvb0RNmArp9liOvk/e+NtOP95n9lxOEp/x1Mb4Vc/PokfgFJ/MgqBMvW2P4jNmJd7B4X2aF8DAjcGH8FNvFuaLaaSPzUzJ2q3NzsYp+hnXzdv3Tfv+0YSp7R81XNLPmfi525IsP9QXDk5gP9MFaG9XDSWa6E9ufjii0vAvvkLRe79SJifin3LyfdiR4bvPdMh8j2KX7qeLISBhV/h80J+nrnPujDam2T2EPBSrwf8JnfmiOGL7vj8AixihOVeLzAMhHIW+xb0jU0IkyzZF3thgUmvJx9ePX7AAkv2MTE0OpkW8k195tsH/uz01NCVv/x0kjyj5ODTUESuGqUhAgxj6XuALDDsHUk2Qz1RN/lz2Afurx9dh3M3eoA9y5RkPhpTyqa8FQTYO49U3u66CR9+1idNFh278E310K5meBH7IBb6vaI8LQe6ye/6HPvAfdgFUyt94LQYoTLKCAxNz64p8ARfENmfmgxOz0AVtgZ+/Ss71Iquydf1zGc/Px6MTRLxa2DkS5iLRg0rmME78ejsnKH6ushnbc+FBV5wmdyv3lAkNq6UJ2n30BMK+1nsM/hTVfdtf//WBrje2gTd7EMNtkQpCRscEYoYP6uVdDsprzFQCgPYhVwoPmwL8EjaA4T5bJ9dhO1NdbB/a1CapelYN/lV5SXw2snn4E7/MITwlqMkA9i2/+t/XVYqQnmIgBzJz25pgMMdWxXx8XvzYWtDLfh9HsVy62XqJp8pYsae3tawns7V9BL/AACRv4qHnp16fInb365Mvh59cmV1PfPlFFCafREg8u3LHbfnRD43hPZVQOTblztuz4l8bgjtq4DIty933J4T+dwQ2lcBkW9f7rg9J/K5IbSvAiLfvtxxe26oeZfHas5iFDwPz/GocFxdV2w6LTFZTj7E5sF99XRags1Uo+7QYXTN+puw9RYzlYEs9IvIz0LSkyET+UkksnBL5Gch6cmQifwkElm4JfKzkPRkyER+Eoks3BL5WUh6MmRDjTwRHIY1+mQaZub+P3N1Upl02zeSGRMMS/2yw/HYTAhuqUxA7c3Pg03V5eDxGFsvQDf5k9MhOHOhG67htCGhsHLXbTafPYk6AjGZ4Q/ne/rh+tAjxcps0Ya92xpxvYDdUFLkVywrl6mb/K67D+DMxzdgVoV4OWOUJo9Af4gNaBX3vdc6Vm8I78C1FQE4trdVXrlCqi7yo3i778Op0/iIz8WRPtUKLmVf1lTM6CBrWB4RNalhQKccqrrIz8cxYcENFVCAz5i5iMHh1/gkiHUrvyvIOerktMK4cfLZlDIlVo3Y6Wiuhxe/3AqXcOy42li9MC6d8tjgCFInky2Nrd6XBz2SUdrFOFdQAOcnUhI2mdSelqegE8dPGhFdVz4zUFFaBKde2Acv4Ro4OImUovTcH4af/+V9xTKUicPf8tgvbjGY39i1Bb59ZI8iPGzWsmKclKGowKdYbr1M3eQzRWwWCC0zQUxOzKxnl9JVECjBq35TVUClFF82NfLw4Wfr2kS+renjc57I58PP1rWJfFvTx+c8kc+Hn61rE/m2po/PeSKfDz9b1ybybU0fn/NEPh9+tq5N5NuaPj7niXw+/Gxdm8i3NX18zhP5fPjZujaRb2v6+Jwn8vnws3VtIt/W9PE5T+Tz4Wfr2kS+renjc57I58PP1rWJfFvTx+c8kc+Hn61r6+69y9bVe+fcNXjz/FVYoLF4KSE/vsQG64kHbryBy9exPyXJd7ng1MHd8F3s4l3oFw/3UqqXzNN15bMVHi982gt/+OgaEZ9EMAXbgfm1iypqURtNJOBPH3fDeVzg0ojoIn8RyR/HETiztGKWEazXrTMRM0Y+UziH4yfZiuBGRBf5uTm5UIQDNsxe4txIIHauU7w8YsdYBGwJtmJcZcuI6CKfDQ86uHMzHN7RDHm4plsOW8RX5c+IU9lWp7lg7asXewNQw5atq7d3SxAO7GgyBNlaqypqSosL4PWXvwmnBkchJrMAsLD63YER+OV7Z4VJtC+DALujSsfqnWjfDsefaZcp/UUSW+G0sd74cHfd5CdNB+uqkrvrbsP0brAuNmoZ5UUF0NywQa0YV76u2z6XJaqccQgYvvKNRhLPc8Pt1iOi6gkcnTyxkAC2rfK7AJeFN11GQvHlIea1RdZAwOKL48/5Mp8L35fE4U3cZ2/7IXGiBUfWRC4IZDa2BN+/kp755QVu0C4iIDkHCZNsQsBU8isCxdmEZUpj3YlLo5stppJfXVkKe4K1ZsfgOP2bywPw9Pag6XHljIzPiCeDSbHJ4dEpeOvvF+HyvQcQlvkQFInGIYITNwnFjR8sfAZnlRTqkduPYttEGJtEhcJaLD1uNzaqCFNTs89sMZtC8TB7OIuWVFijTVtdDbx8tBNaGs2/aEwnXxqg9PjNdz6A3+CHIqG8sKsFfvHKcWFSyvbfvXgDTp/5p0jfic5d8KPjh6DAwJcxkSKZg9N/fB/e/fctUc4r+9rhh9/5migtHQem3vbTERDZ1I4Aka8dK8eVJPIdR6n2gIh87Vg5riSR7zhKtQdE5GvHynEliXzHUao9oLSTz2aOlopcmrRMKo+ZPRk3UmKCNVhlqqSd/Kb6GmAtW0Jp2lgpPEzpfhHOTV/o+aLPG+sDV1dVJtvilgrDnduCovhyMdaNleZOqKzVb9dPfvra61oLm1GuBoFIxGIQwfEAAb8PjrS1wAlcM8ZnsFOimo+laGMJe8uGcHGoUpzZ+mjbFlyipA2nLVee215N73r5lWXFkINz04dCC1CGnV+fbW2GlzA+uebd9XSYlZ725l0WWBhX7ZgOzS/POM/mj/cbXDlCK0hs4MnMPHZ3xq7orDeylunjteqWKxfB+CZX4/NAgcoiCnI6zEjLCPLNCIx0qiMgftiql6cSDkKAyHcQmXpDIfL1Iuag8kS+g8jUGwqRrxcxB5Un8h1Ept5QiHy9iDmo/P8Agw3FKb5G/b0AAAAASUVORK5CYII=;fontSize=10;" parent="eO07zqcxzYHQwjbRKe_j-910" vertex="1">
          <mxGeometry width="27.06" height="24.5" as="geometry" />
        </mxCell>
        <mxCell id="eO07zqcxzYHQwjbRKe_j-912" value="cpu" style="text;html=1;align=center;verticalAlign=middle;whiteSpace=wrap;rounded=0;fontSize=10;" parent="eO07zqcxzYHQwjbRKe_j-910" vertex="1">
          <mxGeometry x="2.6599999999999966" y="22.5" width="21.74" height="15" as="geometry" />
        </mxCell>
        <mxCell id="eO07zqcxzYHQwjbRKe_j-913" value="" style="group" parent="1" vertex="1" connectable="0">
          <mxGeometry x="366.47" y="582.33" width="61.74000000000001" height="37.67" as="geometry" />
        </mxCell>
        <mxCell id="eO07zqcxzYHQwjbRKe_j-914" value="" style="shape=image;verticalLabelPosition=bottom;labelBackgroundColor=default;verticalAlign=top;aspect=fixed;imageAspect=0;image=data:image/png,iVBORw0KGgoAAAANSUhEUgAAAHgAAADpCAYAAADvXvM0AAAKt2lDQ1BJQ0MgUHJvZmlsZQAASImVlwdQU1kXx+976Y2WEAEpoTdBOgGkhB5A6dVGSEIIJYQUml1ZXMG1oCKCZUFXBBRclSJrRRTbIlixLsgioKyLBRuW7wFD2N1vvu+b78zcub933rn/c8+be2fOA4BixBGL02EVADJEMklEgDcjLj6BgRsCOEAC6sAVmHO4UjErLCwEIDY9/93e3QXQxHzLakLr39//V1Pl8aVcAKAwhJN4Um4GwieQ8ZUrlsgAQCEMDHNk4gnuQZgmQTaI8MgECyYZPaFDS5pi2mRMVIQPwmYA4MkcjkQAANkB8TOyuQJEhxyFsI2IJxQhXICwR0ZGJg/hdoTNkBgxwhP6zKS/6Aj+ppmk0ORwBAqeqmXS8L5CqTidk/d/fo7/bRnp8ukcJsggp0gCI6YY6knLDFawKGlB6DQLedPxUE+KPDB6mrlSn4Rp5nF8gxVr0xeETHOy0J+t0JGxo6aZL/WLnGZJZoQiV7LEhzXNHMlMXnlatMKfwmcr9PNTomKnOVsYs2CapWmRwTMxPgq/RB6h2D9fFOA9k9dfUXuG9C/1CtmKtbKUqEBF7ZyZ/fNFrBlNaZxibzy+r99MTLQiXizzVuQSp4cp4vnpAQq/NDtSsVaGHMiZtWGKb5jKCQqbZhAFUoAciAAP8IEEJIFMkA5kgAF8gRBIgRh54gDkOMn4ubKJ4nwyxXkSoSBFxmAht47PYIu41nMYdjZ2yEmcuMNTR+QNffJuQvSrM76scwC4FCFOwYyPYwjAyWcAUN/N+AxfI8drCwCnu7hySfaUb/KuYQARKAMa0AS6wBCYAStgB5yAG/ACfiAIhCKVxIMlgIvUk4FUkgOWgzWgEBSDLWAHKAf7wH5wCBwBx0AzOAXOg0vgGugCd8BD0AsGwAswCt6BcQiCcBAFokKakB5kDFlCdhAT8oD8oBAoAoqHEiEBJILk0HJoHVQMlUDlUCVUA/0MnYTOQ1egbug+1AcNQ6+hTzAKJsM0WAc2gefCTJgFB8NR8GJYAGfB+XABvAkug6vgw3ATfB6+Bt+Be+EX8BgKoEgoOkofZYVionxQoagEVDJKglqJKkKVoqpQ9ahWVAfqFqoXNYL6iMaiqWgG2grthg5ER6O56Cz0SvRGdDn6ELoJ3Y6+he5Dj6K/YigYbYwlxhXDxsRhBJgcTCGmFHMQ04i5iLmDGcC8w2KxdKwp1hkbiI3HpmKXYTdi92AbsOew3dh+7BgOh9PEWeLccaE4Dk6GK8Ttwh3GncXdxA3gPuBJeD28Hd4fn4AX4dfiS/G1+DP4m/hB/DhBhWBMcCWEEniEPMJmwgFCK+EGYYAwTlQlmhLdiVHEVOIaYhmxnniR+Ij4hkQiGZBcSOEkIWk1qYx0lHSZ1Ef6SFYjW5B9yIvIcvImcjX5HPk++Q2FQjGheFESKDLKJkoN5QLlCeWDElXJWomtxFNapVSh1KR0U+mlMkHZWJmlvEQ5X7lU+bjyDeURFYKKiYqPCkdlpUqFykmVeypjqlRVW9VQ1QzVjaq1qldUh9RwaiZqfmo8tQK1/WoX1PqpKKoh1YfKpa6jHqBepA7QsDRTGpuWSiumHaF10kbV1dQd1GPUc9Ur1E+r99JRdBM6m55O30w/Rr9L/zRLZxZrFn/Whln1s27Oeq8xW8NLg69RpNGgcUfjkyZD008zTXOrZrPmYy20loVWuFaO1l6ti1ojs2mz3WZzZxfNPjb7gTasbaEdob1Me7/2de0xHV2dAB2xzi6dCzojunRdL91U3e26Z3SH9ah6HnpCve16Z/WeM9QZLEY6o4zRzhjV19YP1JfrV+p36o8bmBpEG6w1aDB4bEg0ZBomG243bDMcNdIzmm+03KjO6IExwZhpnGK807jD+L2JqUmsyXqTZpMhUw1Ttmm+aZ3pIzOKmadZllmV2W1zrDnTPM18j3mXBWzhaJFiUWFxwxK2dLIUWu6x7J6DmeMyRzSnas49K7IVyyrbqs6qz5puHWK91rrZ+uVco7kJc7fO7Zj71cbRJt3mgM1DWzXbINu1tq22r+0s7Lh2FXa37Sn2/var7FvsXzlYOvAd9jr0OFId5zuud2xz/OLk7CRxqncadjZyTnTe7XyPSWOGMTcyL7tgXLxdVrmccvno6uQqcz3m+qeblVuaW63b0DzTefx5B+b1uxu4c9wr3Xs9GB6JHj969Hrqe3I8qzyfehl68bwOeg2yzFmprMOsl9423hLvRu/3Pq4+K3zO+aJ8A3yLfDv91Pyi/cr9nvgb+Av86/xHAxwDlgWcC8QEBgduDbzH1mFz2TXs0SDnoBVB7cHk4Mjg8uCnIRYhkpDW+fD8oPnb5j9aYLxAtKA5FISyQ7eFPg4zDcsK+yUcGx4WXhH+LMI2YnlERyQ1cmlkbeS7KO+ozVEPo82i5dFtMcoxi2JqYt7H+saWxPbGzY1bEXctXiteGN+SgEuISTiYMLbQb+GOhQOLHBcVLrq72HRx7uIrS7SWpC85vVR5KWfp8URMYmxibeJnTiinijOWxE7anTTK9eHu5L7gefG284b57vwS/mCye3JJ8pDAXbBNMJzimVKaMiL0EZYLX6UGpu5LfZ8Wmlad9i09Nr0hA5+RmHFSpCZKE7Vn6mbmZnaLLcWF4t4s16wdWaOSYMlBKSRdLG2R0ZBm6brcTP6dvC/bI7si+0NOTM7xXNVcUe71PIu8DXmD+f75Py1DL+Mua1uuv3zN8r4VrBWVK6GVSSvbVhmuKlg1sDpg9aE1xDVpa35da7O2ZO3bdbHrWgt0ClYX9H8X8F1doVKhpPDeerf1+75Hfy/8vnOD/YZdG74W8YquFtsUlxZ/3sjdePUH2x/Kfvi2KXlT52anzXu3YLeIttzd6rn1UIlqSX5J/7b525q2M7YXbX+7Y+mOK6UOpft2EnfKd/aWhZS17DLatWXX5/KU8jsV3hUNu7V3b9j9fg9vz829Xnvr9+nsK9736Ufhjz2VAZVNVSZVpfux+7P3PzsQc6DjJ+ZPNQe1DhYf/FItqu49FHGovca5pqZWu3ZzHVwnrxs+vOhw1xHfIy31VvWVDfSG4qPgqPzo858Tf757LPhY23Hm8foTxid2N1Ibi5qgprym0eaU5t6W+Jbuk0En21rdWht/sf6l+pT+qYrT6qc3nyGeKTjz7Wz+2bFz4nMj5wXn+9uWtj28EHfhdnt4e+fF4IuXL/lfutDB6jh72f3yqSuuV05eZV5tvuZ0rem64/XGXx1/bex06my64Xyjpculq7V7XveZm543z9/yvXXpNvv2tTsL7nTfjb7bc2/Rvd4eXs/Q/fT7rx5kPxh/uPoR5lHRY5XHpU+0n1T9Zv5bQ69T7+k+377rTyOfPuzn9r/4Xfr754GCZ5RnpYN6gzVDdkOnhv2Hu54vfD7wQvxifKTwD9U/dr80e3niT68/r4/GjQ68krz69nrjG8031W8d3raNhY09eZfxbvx90QfND4c+Mj92fIr9NDie8xn3ueyL+ZfWr8FfH33L+PZNzJFwJlsBFDLg5GQAXlcDQIlHeocuAIgLp3rsSYOm/gsmCfwnnurDJ80JgGovAKJXAxCC9Ch7kWGMMBmZJ9qkKC8A29srxnQ/PNm7TxgW+YspMdUkaAZ309RWg3/YVF//l33/cwYK1b/N/wJrOw0JSqibKQAAAFZlWElmTU0AKgAAAAgAAYdpAAQAAAABAAAAGgAAAAAAA5KGAAcAAAASAAAARKACAAQAAAABAAAAeKADAAQAAAABAAAA6QAAAABBU0NJSQAAAFNjcmVlbnNob3QQI2ZpAAAB1mlUWHRYTUw6Y29tLmFkb2JlLnhtcAAAAAAAPHg6eG1wbWV0YSB4bWxuczp4PSJhZG9iZTpuczptZXRhLyIgeDp4bXB0az0iWE1QIENvcmUgNi4wLjAiPgogICA8cmRmOlJERiB4bWxuczpyZGY9Imh0dHA6Ly93d3cudzMub3JnLzE5OTkvMDIvMjItcmRmLXN5bnRheC1ucyMiPgogICAgICA8cmRmOkRlc2NyaXB0aW9uIHJkZjphYm91dD0iIgogICAgICAgICAgICB4bWxuczpleGlmPSJodHRwOi8vbnMuYWRvYmUuY29tL2V4aWYvMS4wLyI+CiAgICAgICAgIDxleGlmOlBpeGVsWURpbWVuc2lvbj4yMzM8L2V4aWY6UGl4ZWxZRGltZW5zaW9uPgogICAgICAgICA8ZXhpZjpQaXhlbFhEaW1lbnNpb24+MTIwPC9leGlmOlBpeGVsWERpbWVuc2lvbj4KICAgICAgICAgPGV4aWY6VXNlckNvbW1lbnQ+U2NyZWVuc2hvdDwvZXhpZjpVc2VyQ29tbWVudD4KICAgICAgPC9yZGY6RGVzY3JpcHRpb24+CiAgIDwvcmRmOlJERj4KPC94OnhtcG1ldGE+CpVmGvsAAA0jSURBVHgB7Z1rbBxXFcfPPv3ceHdtr5/xI47rtHm0eTdtSdIEJW1SGlPUIkQVoiBUqFqJL1SAkECi5QsEJD5UQoCQKCAhSNPwoQVEBYhH2yS0JVGaoLQhr9pxHMexHTvexN7lTohdWZnZnXvu7J29m/9Ikdd3zv+ec/8/z8xmHncC/RdHs4SlZB0IluzIMLAbDgBwif8hADAAl7gDJT48bMEAXOIOlPjwsAUDcIk7UOLDwxZc4oDDXo/vykSaXn/jMO07dJQGxye87t64/hpj1fTJNUto28eWUzAY0F6/54Bffv0telH8w/J/B4ZGx+novgHxS5Ye2bBSuy2e76L3HnpP+yBMSPjbfx72pUzPAY9Npn0ZSLEnPT5w0ZcSPQfsyyiQ1NEBz4/Bdpm+un09dbU22q0qybZT/Rfohd/9pSjGpgXwwrYmWtLTVhQD1lFEJKrFVldDwS7alU3mBhXPn5q5Hrqu/LW/ves6dibQ+q9zU32CejqbqSwamWl2/ROAXVulHvj8vj+xOgkEAtS74i56+rFNVFlRJtUHdtFSdrkLHhoZsw2czmSJ829qOkP73zlGfUMjtv3magTgXO4w112ZmGQqnWXXp6ap/8Kwc4DDGgB2MEaluT4+T0Vuq+2ojVNnS73tulyNOAbncoe5zuk4eXdzA6vHZHUFPbFpNTWLL1uyCwDLOqYQ/6PndiqoeVLsonm+GaMCYGNQ8QoFYJ5vxqgA2BhUvEIBmOebMSoANgYVr1AA5vlmjAqAjUHFKxSAeb4ZowJgY1DxCgVgnm/GqHAuWiOqb/74Fels1tMQ7eIiw8P3LaOGuri0HoClLcsvyGQytkF/OHrCtt1N44EPztC3d/dSbU21m/DZGOyiZ63w7sPA0GXvOrvZ09un++lU/5B0vwAsbVl+QVY8h1SIZVrcuiO7ALCsYy7iU4kaF1FyISvbm2kB7uiQM61Q0eGw/VebL25czUpZWxOjB5b3UCIud/y1ktlXwioDonwO7OrdmC/E8/XYRXtuaXF1CMDFxcPzagDYc0uLq0MALi4enlcDwJ5bWlwdAnABeOifS8d5EADs7E1JrAHgksDoPAgAdvamJNYAcElgdB4EADt7UxJrcC5aI8Zn9/ySla02VkmPbVxFSxa2Ss93CcAsy3OLJq9dtw04eLbPtt1N4/Hzg/T9Lz0u/YwwdtFu3JWMOV+AOzpOXRqh/344KFkJEQBLW5ZfUCU5E07+HsV13VCIkomYm9A5MQA8xw5vfrEu0Hu5hEJB2nb3HTQfUzh4aSu/r6CY18pu+cq29XbNOdvCAu6ClhR1i4nQysswEVpOs/xe+akta7WXgF20dsv1JgRgvX5rzwbA2i3XmxCA9fqtPRsAa7dcb0IA1uu39mwArN1yvQkBWK/f2rMBsHbL9SYEYL1+a88GwNot15sQF/wL4Hc2a/8A+L1f/i4rW7KygnZ/fC09Kt5gGo3IIcMWzLI8t+jyFW9fq3tp4ir95I9v0unz8u8/BODcrFhrRzwGbBVxeXKSzg/Kz/0BwCyEuUVeX/C3slWVRWl+c13uxDZr5XboNh2g6VYHYpXltzaKlnLJ4+dMJxXRKO3evIZaxJtXZBcAlnVMIf6nz3xGWm3dHZKoqaK45PxYM4kAeMYJDT+72vW/YhfHYA1g/UwBwH66ryE3AGsw2c8UAOyn+xpyA7AGk/1MAcB+uq8hNwBrMNnPFADsp/sacgOwBpP9TAHAfrqvITdOVWoweSbFwX+/P/NR6mesupI6WuvxdKGUawUMnnZ4KcezP9vHyhoKBunR1Yvpmd4HSfbhcuyiWZbnFg2PjucOkFxr/cG8+q9jdOLsgKQSUzhIG+ZGcOXqpJswqZj01BSl0/aTu+TqCFtwLneY69oa5e+8yJeqIxGnDryUI59NetY7TeHQ3VzPKqBJzPmxc/NaqmdMwoJv0SzLeaKXntvFEyqosItWMM8EKQCbQEmhRgBWMM8EKQCbQEmhRgBWMM8EKQCbQEmhRgBWMM8EKQCbQEmhRgBWMM8EKQCbQEmhRgBWMM8EKc5Fa6S05xevsrLViYsNG1YuIusqVTBoPxe1U8cA7OSMQnv6+pSt+jeHjtq2u2k8cPIsPb97ByViVW7CZ2Owi561wrsPQyNj3nV2s6d3TvfRiTO4o8NzYzkdOszoz+lqVpPJZMnpOvNskM0H7KJtTFFtaqpN2HYREe9f4CwW2Pu726m7rUFaDsDSlvEFO9evYokTVRW0fnkP1YjbZ2UXAJZ1TCH+Czs2KKh5Ut4+g5cLKh8cAGAfTNeZEoB1uu1DLgD2wXSdKQFYp9s+5AJgH0zXmRKAdbrtQy4A9sF0nSkBWKfbPuQCYB9M15kSpyo1uj0xeY2VzbrIHw2HpS/2W8kAmGU5T/TU915iCevFXNG9D9xD65YupEg4JNUHAEvZ5S54TLxEw245cfGSXXPeNkt3amiYOptTNL/B/lKkUyc4Bjs5o9A+PObtHB1WKX2Xx+jkOdzRoYDFO2lMvOeoEEsK72wohK3yfTrdGJeSvGFuJnNYHHcfWXEXdTYlZ5pc/8Qx2LVV6oHfeHwLqxNrbqzO1pSYCC0qrQdgacv4gjXLFvLFTCW+ZDGNM0UGwKaQYtYJwEzjTJEBsCmkmHUCMNM4U2QAbAopZp0AzDTOFBkAm0KKWScAM40zRQbAppBi1olTlUzjOLLjjCn5SczYUCYuNqTENA6y72uwagRgDimmZteen0srA+LZ4Drx2OgnVi2mJ7euo8pyuQsO2EVLW55fMHh5NH+Qy4hsNkuD4gaCX//jXTpzfsil6qMwAP7IC88+jV9Ne9bXTEfj167ROQCescPfn4l5cjPhuKk2IXbTi++Y7yZ0TgyOwXPs8OaXmir7qRZWdckDsioqi0bo4RV3Ut28aukCAVjaMr7gW5/dxhJHImGKiXk6ZCdBs5IBMMtynqguOY8nVFDhS5aCeSZIAdgESgo1ArCCeSZIAdgESgo1ArCCeSZIAdgESgo1ArCCeSZIAdgESgo1ArCCeSZIAdgESgo1ArCCeSZIAdgESgo1ArCCeSZIAdgESgo1ArCCeSZIAdgESgo1ArCCeSZIAdgESgo1ArCCeSZIAdgESgo1ArCCeSZIAdgESgo1ArCCeSZIAdgESgo1ArCCeSZIAdgESgo1ArCCeSZI8WySRkrjE5OsbKFQSDxhGCbraX/ZBYBlHVOIf3H/X1nqCjFtw9pFHbS8u42sycFlFgCWcctl7BWHJ/z3vnXYZQ9zw6wt9+/HTtIPn36CUvHY3JV5fsMxOI9BnNWXRsY4MkeNNU/HqQuX6Mh/zjjGOK0AYCdnFNpDIe9tjYg+U7XyzxdjF60A0knaUi//8gynvqzdc1y8s+H+nk5qb6pzCnNsB2BHa7xf8bVPb5XuNHgDcDktmt9AnNf1ALC05XzBjnXL+GKm0vuDBbMQyArjAAAXxtei6RWAiwZFYQoB4ML4WjS9AnDRoChMIQBcGF+LplcALhoUhSkEgAvja9H0CsBFg6IwhQBwYXwtml5xqlIjig84L+UQ9ZWJ6YRTyRqKirs6ZBd5hWwGxM868MKvXpv9LPPBevP3QyvvpIfuXUpRAVtmkYuW6fk2jh0asX8px3v9g2xX3h8YosULWqmrpV6qDy2ADw+9SWMfHpIqzOTgtwd4N9flGvPo1Uk6KXbxRQn44PABOhO5mKv+klrXl24Q45G/OJ/LhHhFOXW1NeYKsV2nZQu2zVzCjdGy67ajaxFvL5NdrDs6ktUVtEW8lKO5rkZWjnc2SDumIPjO53ul1dad0BVlEUol5t14+4psB9iCZR1TiO9h7GIV0t2QagF8+lojXZiIq9ZqjH4yXVY0tWoBfG40QMFMpGgGXehCMuNivJQtdBpX/eNUpSubzA0CYHPZuaocgF3ZZG4QAJvLzlXlAOzKJnODANhcdq4qB2BXNpkbBMDmsnNVuZYTHa4quQ2Cfv/GEdYorXPRS7taKVmDN4CzDNQl+sH+P7NSRcS8HJuWLKSndmykKvGssMyCLVjGLZexmXRQnKqcviV6ZDJ9S5vbhr0HjtD2++6hnjbrWrP7Bcdg9165jsxk5ac7ytd5Rpza7hfzdMguACzrmIv4UNT7Cw1dDUnqbm9ykX1uCHbRc/3w5LdAMGPbz4Ning3OUhuvps3ijo6GpPwdIQDMcZyp+frO7SxlWMx0Vy6+SWOmO5Z9+kSxqgp9yW5m0rIFZ6YCFBD/bpcle2Os3h+HOf5pARw4JwYbvo2+z01xUBRGowVwaNj+S0dhhuR/r6EiuV3HcsLzzUrcxovFxgG/bPEccE+D3LMzNl6UZNPWxd2+jMtzwJ/bvIaWiWn3opLzGvsyeg1JY+LJwJUdLfTk1rUast2aItB/cdTTr3tT0xnqE6fU+sSUutPi8+2+lIvHPRvFIyvNqaT4f6x+NzwHrH8IyJjLAc930bmSYZ1+BwBYv+daMwKwVrv1JwNg/Z5rzfg/P+zUdK5gPVkAAAAASUVORK5CYII=;rotation=-90;horizontal=1;" parent="eO07zqcxzYHQwjbRKe_j-913" vertex="1">
          <mxGeometry x="20.69999999999999" y="-9.580000000000041" width="20.34" height="39.5" as="geometry" />
        </mxCell>
        <mxCell id="eO07zqcxzYHQwjbRKe_j-915" value="memory" style="text;html=1;align=center;verticalAlign=middle;whiteSpace=wrap;rounded=0;fontSize=10;" parent="eO07zqcxzYHQwjbRKe_j-913" vertex="1">
          <mxGeometry x="10" y="22.67" width="41.74" height="15" as="geometry" />
        </mxCell>
        <mxCell id="eO07zqcxzYHQwjbRKe_j-916" value="" style="aspect=fixed;sketch=0;html=1;dashed=0;whitespace=wrap;verticalLabelPosition=bottom;verticalAlign=top;fillColor=#2875E2;strokeColor=#ffffff;points=[[0.005,0.63,0],[0.1,0.2,0],[0.9,0.2,0],[0.5,0,0],[0.995,0.63,0],[0.72,0.99,0],[0.5,1,0],[0.28,0.99,0]];shape=mxgraph.kubernetes.icon2;prIcon=pv" parent="1" vertex="1">
          <mxGeometry x="469.43" y="582.5" width="28.82" height="27.67" as="geometry" />
        </mxCell>
        <mxCell id="eO07zqcxzYHQwjbRKe_j-917" value="pv" style="text;html=1;align=center;verticalAlign=middle;whiteSpace=wrap;rounded=0;fontSize=10;" parent="1" vertex="1">
          <mxGeometry x="462.97" y="605" width="41.74" height="15" as="geometry" />
        </mxCell>
        <mxCell id="eO07zqcxzYHQwjbRKe_j-918" value="" style="group;verticalAlign=bottom;movable=1;resizable=1;rotatable=1;deletable=1;editable=1;locked=0;connectable=1;" parent="1" vertex="1" connectable="0">
          <mxGeometry x="427.71" y="450" width="72" height="65.09" as="geometry" />
        </mxCell>
        <mxCell id="eO07zqcxzYHQwjbRKe_j-919" value="" style="group" parent="eO07zqcxzYHQwjbRKe_j-918" vertex="1" connectable="0">
          <mxGeometry width="70" height="60" as="geometry" />
        </mxCell>
        <mxCell id="eO07zqcxzYHQwjbRKe_j-920" value="pod" style="rounded=0;whiteSpace=wrap;html=1;fillColor=#d5e8d4;strokeColor=#82b366;verticalAlign=top;arcSize=27;align=left;shadow=1;glass=0;" parent="eO07zqcxzYHQwjbRKe_j-919" vertex="1">
          <mxGeometry x="-1.789999999999992" width="70" height="60" as="geometry" />
        </mxCell>
        <mxCell id="eO07zqcxzYHQwjbRKe_j-921" value="app" style="editableCssRules=.*;html=1;shape=image;verticalLabelPosition=middle;labelBackgroundColor=none;verticalAlign=middle;aspect=fixed;imageAspect=0;image=data:image/svg+xml,PHN2ZyB4bWxucz0iaHR0cDovL3d3dy53My5vcmcvMjAwMC9zdmciIHhtbG5zOnY9Imh0dHBzOi8vdmVjdGEuaW8vbmFubyIgd2lkdGg9IjE0LjAwMDI5OTQ1MzczNTM1MiIgaGVpZ2h0PSIxNS45OTI5MjI3ODI4OTc5NSIgdmlld0JveD0iLTAuMDAwMTQ5NjA4NDAwNTMzOTA3MTIgLTAuMDAwNDYxNzIyMDgzODU1NDIwMzUgMTQuMDAwMjk5NDUzNzM1MzUyIDE1Ljk5MjkyMjc4Mjg5Nzk1Ij4mI3hhOwk8c3R5bGUgdHlwZT0idGV4dC9jc3MiPiYjeGE7CS5zdDB7ZmlsbDojNDI4NWY0O30mI3hhOwk8L3N0eWxlPiYjeGE7CTxwYXRoIGNsYXNzPSJzdDAiIGQ9Ik0xMy42NyAzLjczNkw3LjM2LjA5NmEuNzIuNzIgMCAwIDAtLjcyIDBMLjMzIDMuNzM2YS43Mi43MiAwIDAgMC0uMzMuNjJ2Ny4yOGEuNzIuNzIgMCAwIDAgLjM2LjYybDYuMjggMy42NGEuNzIuNzIgMCAwIDAgLjcyIDBsNi4zMS0zLjY0YS43Mi43MiAwIDAgMCAuMzMtLjYydi03LjI4YS43Mi43MiAwIDAgMC0uMzMtLjYyem0tLjg3IDcuMmwtMi4yLTEuMjd2LTMuMzRsLTMuMjUgMS44N3YzLjhsMi45LTEuNjcgMi4yIDEuMjctNS40NSAzLjEtNS40NS0zLjE1IDIuMi0xLjI3IDIuOSAxLjcydi0zLjhMMy40IDYuMzI2djMuMzRsLTIuMiAxLjI3di02LjI5bDUuNDUtMy4xNHYyLjQ5bC0yLjkgMS43Mkw3IDcuNTg2bDMuMjUtMS44OC0yLjktMS43MXYtMi40OWw1LjQ1IDMuMTR6Ii8+JiN4YTs8L3N2Zz4=;labelPosition=center;align=center;direction=south;" parent="eO07zqcxzYHQwjbRKe_j-919" vertex="1">
          <mxGeometry x="12.450000000000001" y="14.27" width="45.09" height="39.45" as="geometry" />
        </mxCell>
        <mxCell id="eO07zqcxzYHQwjbRKe_j-922" style="edgeStyle=orthogonalEdgeStyle;rounded=0;orthogonalLoop=1;jettySize=auto;html=1;entryX=0.5;entryY=0;entryDx=0;entryDy=0;" parent="1" source="eO07zqcxzYHQwjbRKe_j-920" target="eO07zqcxzYHQwjbRKe_j-909" edge="1">
          <mxGeometry relative="1" as="geometry">
            <mxPoint x="395" y="550" as="targetPoint" />
          </mxGeometry>
        </mxCell>
        <mxCell id="eO07zqcxzYHQwjbRKe_j-923" value="worker node" style="html=1;outlineConnect=0;whiteSpace=wrap;fillColor=#dae8fc;shape=mxgraph.archimate.application;appType=node;strokeColor=#6c8ebf;align=left;verticalAlign=top;" parent="1" vertex="1">
          <mxGeometry x="585" y="420" width="200" height="270" as="geometry" />
        </mxCell>
        <mxCell id="eO07zqcxzYHQwjbRKe_j-924" style="edgeStyle=orthogonalEdgeStyle;rounded=0;orthogonalLoop=1;jettySize=auto;html=1;exitX=0.5;exitY=1;exitDx=0;exitDy=0;exitPerimeter=0;" parent="1" source="eO07zqcxzYHQwjbRKe_j-923" target="eO07zqcxzYHQwjbRKe_j-923" edge="1">
          <mxGeometry relative="1" as="geometry" />
        </mxCell>
        <mxCell id="eO07zqcxzYHQwjbRKe_j-925" value="" style="group;verticalAlign=bottom;movable=1;resizable=1;rotatable=1;deletable=1;editable=1;locked=0;connectable=1;" parent="1" vertex="1" connectable="0">
          <mxGeometry x="616.66" y="450" width="72" height="65.09" as="geometry" />
        </mxCell>
        <mxCell id="eO07zqcxzYHQwjbRKe_j-926" value="" style="group" parent="eO07zqcxzYHQwjbRKe_j-925" vertex="1" connectable="0">
          <mxGeometry width="70" height="60" as="geometry" />
        </mxCell>
        <mxCell id="eO07zqcxzYHQwjbRKe_j-927" value="pod" style="rounded=0;whiteSpace=wrap;html=1;fillColor=#d5e8d4;strokeColor=#82b366;verticalAlign=top;arcSize=27;align=left;shadow=1;glass=0;" parent="eO07zqcxzYHQwjbRKe_j-926" vertex="1">
          <mxGeometry x="-1.789999999999992" width="70" height="60" as="geometry" />
        </mxCell>
        <mxCell id="eO07zqcxzYHQwjbRKe_j-928" value="app" style="editableCssRules=.*;html=1;shape=image;verticalLabelPosition=middle;labelBackgroundColor=none;verticalAlign=middle;aspect=fixed;imageAspect=0;image=data:image/svg+xml,PHN2ZyB4bWxucz0iaHR0cDovL3d3dy53My5vcmcvMjAwMC9zdmciIHhtbG5zOnY9Imh0dHBzOi8vdmVjdGEuaW8vbmFubyIgd2lkdGg9IjE0LjAwMDI5OTQ1MzczNTM1MiIgaGVpZ2h0PSIxNS45OTI5MjI3ODI4OTc5NSIgdmlld0JveD0iLTAuMDAwMTQ5NjA4NDAwNTMzOTA3MTIgLTAuMDAwNDYxNzIyMDgzODU1NDIwMzUgMTQuMDAwMjk5NDUzNzM1MzUyIDE1Ljk5MjkyMjc4Mjg5Nzk1Ij4mI3hhOwk8c3R5bGUgdHlwZT0idGV4dC9jc3MiPiYjeGE7CS5zdDB7ZmlsbDojNDI4NWY0O30mI3hhOwk8L3N0eWxlPiYjeGE7CTxwYXRoIGNsYXNzPSJzdDAiIGQ9Ik0xMy42NyAzLjczNkw3LjM2LjA5NmEuNzIuNzIgMCAwIDAtLjcyIDBMLjMzIDMuNzM2YS43Mi43MiAwIDAgMC0uMzMuNjJ2Ny4yOGEuNzIuNzIgMCAwIDAgLjM2LjYybDYuMjggMy42NGEuNzIuNzIgMCAwIDAgLjcyIDBsNi4zMS0zLjY0YS43Mi43MiAwIDAgMCAuMzMtLjYydi03LjI4YS43Mi43MiAwIDAgMC0uMzMtLjYyem0tLjg3IDcuMmwtMi4yLTEuMjd2LTMuMzRsLTMuMjUgMS44N3YzLjhsMi45LTEuNjcgMi4yIDEuMjctNS40NSAzLjEtNS40NS0zLjE1IDIuMi0xLjI3IDIuOSAxLjcydi0zLjhMMy40IDYuMzI2djMuMzRsLTIuMiAxLjI3di02LjI5bDUuNDUtMy4xNHYyLjQ5bC0yLjkgMS43Mkw3IDcuNTg2bDMuMjUtMS44OC0yLjktMS43MXYtMi40OWw1LjQ1IDMuMTR6Ii8+JiN4YTs8L3N2Zz4=;labelPosition=center;align=center;direction=south;" parent="eO07zqcxzYHQwjbRKe_j-926" vertex="1">
          <mxGeometry x="12.450000000000001" y="14.27" width="45.09" height="39.45" as="geometry" />
        </mxCell>
        <mxCell id="eO07zqcxzYHQwjbRKe_j-929" value="&lt;font style=&quot;font-size: 10px;&quot;&gt;hostpath&lt;/font&gt;" style="shadow=0;dashed=0;html=1;strokeColor=none;fillColor=#4495D1;labelPosition=center;verticalLabelPosition=bottom;verticalAlign=middle;align=center;outlineConnect=0;shape=mxgraph.veeam.2d.file_system_browser;" parent="1" vertex="1">
          <mxGeometry x="695.61" y="585" width="30" height="20" as="geometry" />
        </mxCell>
        <mxCell id="eO07zqcxzYHQwjbRKe_j-930" style="rounded=0;orthogonalLoop=1;jettySize=auto;html=1;" parent="1" source="eO07zqcxzYHQwjbRKe_j-932" target="eO07zqcxzYHQwjbRKe_j-938" edge="1">
          <mxGeometry relative="1" as="geometry" />
        </mxCell>
        <mxCell id="eO07zqcxzYHQwjbRKe_j-931" style="rounded=0;orthogonalLoop=1;jettySize=auto;html=1;exitX=0.609;exitY=0.95;exitDx=0;exitDy=0;entryX=1;entryY=0.5;entryDx=0;entryDy=0;exitPerimeter=0;" parent="1" source="eO07zqcxzYHQwjbRKe_j-932" target="eO07zqcxzYHQwjbRKe_j-941" edge="1">
          <mxGeometry relative="1" as="geometry" />
        </mxCell>
        <mxCell id="eO07zqcxzYHQwjbRKe_j-932" value="req/limit" style="text;html=1;align=center;verticalAlign=middle;whiteSpace=wrap;rounded=0;fontSize=10;" parent="1" vertex="1">
          <mxGeometry x="618" y="540" width="64" height="20" as="geometry" />
        </mxCell>
        <mxCell id="eO07zqcxzYHQwjbRKe_j-933" style="edgeStyle=orthogonalEdgeStyle;rounded=0;orthogonalLoop=1;jettySize=auto;html=1;entryX=0.5;entryY=0;entryDx=0;entryDy=0;" parent="1" source="eO07zqcxzYHQwjbRKe_j-927" target="eO07zqcxzYHQwjbRKe_j-932" edge="1">
          <mxGeometry relative="1" as="geometry" />
        </mxCell>
        <mxCell id="eO07zqcxzYHQwjbRKe_j-934" value="" style="rounded=0;orthogonalLoop=1;jettySize=auto;html=1;" parent="1" source="eO07zqcxzYHQwjbRKe_j-936" target="eO07zqcxzYHQwjbRKe_j-929" edge="1">
          <mxGeometry relative="1" as="geometry" />
        </mxCell>
        <mxCell id="eO07zqcxzYHQwjbRKe_j-935" value="" style="rounded=0;orthogonalLoop=1;jettySize=auto;html=1;entryX=0.5;entryY=0;entryDx=0;entryDy=0;" parent="1" source="eO07zqcxzYHQwjbRKe_j-936" edge="1">
          <mxGeometry relative="1" as="geometry">
            <mxPoint x="749.74" y="582.5" as="targetPoint" />
          </mxGeometry>
        </mxCell>
        <mxCell id="eO07zqcxzYHQwjbRKe_j-936" value="volumes" style="text;html=1;align=center;verticalAlign=middle;whiteSpace=wrap;rounded=0;fontSize=10;" parent="1" vertex="1">
          <mxGeometry x="693.21" y="540" width="64" height="20" as="geometry" />
        </mxCell>
        <mxCell id="eO07zqcxzYHQwjbRKe_j-937" value="" style="group" parent="1" vertex="1" connectable="0">
          <mxGeometry x="615" y="582.5" width="27.060000000000002" height="37.5" as="geometry" />
        </mxCell>
        <mxCell id="eO07zqcxzYHQwjbRKe_j-938" value="" style="shape=image;verticalLabelPosition=bottom;labelBackgroundColor=none;verticalAlign=middle;aspect=fixed;imageAspect=0;image=data:image/png,iVBORw0KGgoAAAANSUhEUgAAAH8AAABzCAYAAACxf91oAAAKt2lDQ1BJQ0MgUHJvZmlsZQAASImVlwdQU1kXx+976Y2WEAEpoTdBOgGkhB5A6dVGSEIIJYQUml1ZXMG1oCKCZUFXBBRclSJrRRTbIlixLsgioKyLBRuW7wFD2N1vvu+b78zcub933rn/c8+be2fOA4BixBGL02EVADJEMklEgDcjLj6BgRsCOEAC6sAVmHO4UjErLCwEIDY9/93e3QXQxHzLakLr39//V1Pl8aVcAKAwhJN4Um4GwieQ8ZUrlsgAQCEMDHNk4gnuQZgmQTaI8MgECyYZPaFDS5pi2mRMVIQPwmYA4MkcjkQAANkB8TOyuQJEhxyFsI2IJxQhXICwR0ZGJg/hdoTNkBgxwhP6zKS/6Aj+ppmk0ORwBAqeqmXS8L5CqTidk/d/fo7/bRnp8ukcJsggp0gCI6YY6knLDFawKGlB6DQLedPxUE+KPDB6mrlSn4Rp5nF8gxVr0xeETHOy0J+t0JGxo6aZL/WLnGZJZoQiV7LEhzXNHMlMXnlatMKfwmcr9PNTomKnOVsYs2CapWmRwTMxPgq/RB6h2D9fFOA9k9dfUXuG9C/1CtmKtbKUqEBF7ZyZ/fNFrBlNaZxibzy+r99MTLQiXizzVuQSp4cp4vnpAQq/NDtSsVaGHMiZtWGKb5jKCQqbZhAFUoAciAAP8IEEJIFMkA5kgAF8gRBIgRh54gDkOMn4ubKJ4nwyxXkSoSBFxmAht47PYIu41nMYdjZ2yEmcuMNTR+QNffJuQvSrM76scwC4FCFOwYyPYwjAyWcAUN/N+AxfI8drCwCnu7hySfaUb/KuYQARKAMa0AS6wBCYAStgB5yAG/ACfiAIhCKVxIMlgIvUk4FUkgOWgzWgEBSDLWAHKAf7wH5wCBwBx0AzOAXOg0vgGugCd8BD0AsGwAswCt6BcQiCcBAFokKakB5kDFlCdhAT8oD8oBAoAoqHEiEBJILk0HJoHVQMlUDlUCVUA/0MnYTOQ1egbug+1AcNQ6+hTzAKJsM0WAc2gefCTJgFB8NR8GJYAGfB+XABvAkug6vgw3ATfB6+Bt+Be+EX8BgKoEgoOkofZYVionxQoagEVDJKglqJKkKVoqpQ9ahWVAfqFqoXNYL6iMaiqWgG2grthg5ER6O56Cz0SvRGdDn6ELoJ3Y6+he5Dj6K/YigYbYwlxhXDxsRhBJgcTCGmFHMQ04i5iLmDGcC8w2KxdKwp1hkbiI3HpmKXYTdi92AbsOew3dh+7BgOh9PEWeLccaE4Dk6GK8Ttwh3GncXdxA3gPuBJeD28Hd4fn4AX4dfiS/G1+DP4m/hB/DhBhWBMcCWEEniEPMJmwgFCK+EGYYAwTlQlmhLdiVHEVOIaYhmxnniR+Ij4hkQiGZBcSOEkIWk1qYx0lHSZ1Ef6SFYjW5B9yIvIcvImcjX5HPk++Q2FQjGheFESKDLKJkoN5QLlCeWDElXJWomtxFNapVSh1KR0U+mlMkHZWJmlvEQ5X7lU+bjyDeURFYKKiYqPCkdlpUqFykmVeypjqlRVW9VQ1QzVjaq1qldUh9RwaiZqfmo8tQK1/WoX1PqpKKoh1YfKpa6jHqBepA7QsDRTGpuWSiumHaF10kbV1dQd1GPUc9Ur1E+r99JRdBM6m55O30w/Rr9L/zRLZxZrFn/Whln1s27Oeq8xW8NLg69RpNGgcUfjkyZD008zTXOrZrPmYy20loVWuFaO1l6ti1ojs2mz3WZzZxfNPjb7gTasbaEdob1Me7/2de0xHV2dAB2xzi6dCzojunRdL91U3e26Z3SH9ah6HnpCve16Z/WeM9QZLEY6o4zRzhjV19YP1JfrV+p36o8bmBpEG6w1aDB4bEg0ZBomG243bDMcNdIzmm+03KjO6IExwZhpnGK807jD+L2JqUmsyXqTZpMhUw1Ttmm+aZ3pIzOKmadZllmV2W1zrDnTPM18j3mXBWzhaJFiUWFxwxK2dLIUWu6x7J6DmeMyRzSnas49K7IVyyrbqs6qz5puHWK91rrZ+uVco7kJc7fO7Zj71cbRJt3mgM1DWzXbINu1tq22r+0s7Lh2FXa37Sn2/var7FvsXzlYOvAd9jr0OFId5zuud2xz/OLk7CRxqncadjZyTnTe7XyPSWOGMTcyL7tgXLxdVrmccvno6uQqcz3m+qeblVuaW63b0DzTefx5B+b1uxu4c9wr3Xs9GB6JHj969Hrqe3I8qzyfehl68bwOeg2yzFmprMOsl9423hLvRu/3Pq4+K3zO+aJ8A3yLfDv91Pyi/cr9nvgb+Av86/xHAxwDlgWcC8QEBgduDbzH1mFz2TXs0SDnoBVB7cHk4Mjg8uCnIRYhkpDW+fD8oPnb5j9aYLxAtKA5FISyQ7eFPg4zDcsK+yUcGx4WXhH+LMI2YnlERyQ1cmlkbeS7KO+ozVEPo82i5dFtMcoxi2JqYt7H+saWxPbGzY1bEXctXiteGN+SgEuISTiYMLbQb+GOhQOLHBcVLrq72HRx7uIrS7SWpC85vVR5KWfp8URMYmxibeJnTiinijOWxE7anTTK9eHu5L7gefG284b57vwS/mCye3JJ8pDAXbBNMJzimVKaMiL0EZYLX6UGpu5LfZ8Wmlad9i09Nr0hA5+RmHFSpCZKE7Vn6mbmZnaLLcWF4t4s16wdWaOSYMlBKSRdLG2R0ZBm6brcTP6dvC/bI7si+0NOTM7xXNVcUe71PIu8DXmD+f75Py1DL+Mua1uuv3zN8r4VrBWVK6GVSSvbVhmuKlg1sDpg9aE1xDVpa35da7O2ZO3bdbHrWgt0ClYX9H8X8F1doVKhpPDeerf1+75Hfy/8vnOD/YZdG74W8YquFtsUlxZ/3sjdePUH2x/Kfvi2KXlT52anzXu3YLeIttzd6rn1UIlqSX5J/7b525q2M7YXbX+7Y+mOK6UOpft2EnfKd/aWhZS17DLatWXX5/KU8jsV3hUNu7V3b9j9fg9vz829Xnvr9+nsK9736Ufhjz2VAZVNVSZVpfux+7P3PzsQc6DjJ+ZPNQe1DhYf/FItqu49FHGovca5pqZWu3ZzHVwnrxs+vOhw1xHfIy31VvWVDfSG4qPgqPzo858Tf757LPhY23Hm8foTxid2N1Ibi5qgprym0eaU5t6W+Jbuk0En21rdWht/sf6l+pT+qYrT6qc3nyGeKTjz7Wz+2bFz4nMj5wXn+9uWtj28EHfhdnt4e+fF4IuXL/lfutDB6jh72f3yqSuuV05eZV5tvuZ0rem64/XGXx1/bex06my64Xyjpculq7V7XveZm543z9/yvXXpNvv2tTsL7nTfjb7bc2/Rvd4eXs/Q/fT7rx5kPxh/uPoR5lHRY5XHpU+0n1T9Zv5bQ69T7+k+377rTyOfPuzn9r/4Xfr754GCZ5RnpYN6gzVDdkOnhv2Hu54vfD7wQvxifKTwD9U/dr80e3niT68/r4/GjQ68krz69nrjG8031W8d3raNhY09eZfxbvx90QfND4c+Mj92fIr9NDie8xn3ueyL+ZfWr8FfH33L+PZNzJFwJlsBFDLg5GQAXlcDQIlHeocuAIgLp3rsSYOm/gsmCfwnnurDJ80JgGovAKJXAxCC9Ch7kWGMMBmZJ9qkKC8A29srxnQ/PNm7TxgW+YspMdUkaAZ309RWg3/YVF//l33/cwYK1b/N/wJrOw0JSqibKQAAAFZlWElmTU0AKgAAAAgAAYdpAAQAAAABAAAAGgAAAAAAA5KGAAcAAAASAAAARKACAAQAAAABAAAAf6ADAAQAAAABAAAAcwAAAABBU0NJSQAAAFNjcmVlbnNob3T0oy8xAAAB1mlUWHRYTUw6Y29tLmFkb2JlLnhtcAAAAAAAPHg6eG1wbWV0YSB4bWxuczp4PSJhZG9iZTpuczptZXRhLyIgeDp4bXB0az0iWE1QIENvcmUgNi4wLjAiPgogICA8cmRmOlJERiB4bWxuczpyZGY9Imh0dHA6Ly93d3cudzMub3JnLzE5OTkvMDIvMjItcmRmLXN5bnRheC1ucyMiPgogICAgICA8cmRmOkRlc2NyaXB0aW9uIHJkZjphYm91dD0iIgogICAgICAgICAgICB4bWxuczpleGlmPSJodHRwOi8vbnMuYWRvYmUuY29tL2V4aWYvMS4wLyI+CiAgICAgICAgIDxleGlmOlBpeGVsWURpbWVuc2lvbj4xMTU8L2V4aWY6UGl4ZWxZRGltZW5zaW9uPgogICAgICAgICA8ZXhpZjpQaXhlbFhEaW1lbnNpb24+MTI3PC9leGlmOlBpeGVsWERpbWVuc2lvbj4KICAgICAgICAgPGV4aWY6VXNlckNvbW1lbnQ+U2NyZWVuc2hvdDwvZXhpZjpVc2VyQ29tbWVudD4KICAgICAgPC9yZGY6RGVzY3JpcHRpb24+CiAgIDwvcmRmOlJERj4KPC94OnhtcG1ldGE+CvXtUGYAAArySURBVHgB7V1pbBTnGX7t9XoPn+sbjJ21sTGXcWrTYgoBQkFNUkqVlFb8qFoSRZUq9WdVNapURf3Hr/7on6hS06ZVq0pESVSpUasWQkI4gqmhKZAYDLaxscE2Ptf2nnbfz/U6M+PxXN/O7M7s+wozM9/xHs8z137zHTkj4zNLQJKVCORmZdQU9DICRH4WnwhEfhaTn5cJsccTCXg8PgXxxCLU1ZRDbq655ySz83h8EiLRONRWl4En320qDEtLSzAyNgWxeBw2VAYg350RsENGePHnf1yBSz39kFhchLZgLbx67AB4Pea4Nr8Qgfcu/Qcu/PcuRGJx+NLmOjh5qAMqy0pMOwF+97eL0NU7sHxy720Jwg+e3wcul7knuJZgzEFYi+WVMrfvDMJvz12FCF4VTD57OArBilI4drB9pURqN5/gSfbW2U9gej68rPj+6ATU493mW19tS62hFW0Xrt2G339wFaJ4d2NyZ2QM6gLFcHSfOfZWzGrapP30u3Kzd5V45nEcr/7u3iFNzhspNDW3sEo8qx/Gq//ug0cwNx8xok61zvV7Q6vEs8KReAL6hsdV61lRIO3kWxFkOm0s4HtFpgqRn6nMWOAXkW8ByJlqgsjPVGYs8IvItwDkTDVB5GcqMxb4ReRbAHKmmiDyM5UZC/zKMft7/vjULHT3DMBtbOxIYJu6VHqGx+DTkVFRcl2gBDobN4nSUnVwD9v0uweGReqasL19Z201uF0uUXoqDrr6HkL/xJRI1c6aSthWWyVKYwesyXfzpirYvb0RNmArp9liOvk/e+NtOP95n9lxOEp/x1Mb4Vc/PokfgFJ/MgqBMvW2P4jNmJd7B4X2aF8DAjcGH8FNvFuaLaaSPzUzJ2q3NzsYp+hnXzdv3Tfv+0YSp7R81XNLPmfi525IsP9QXDk5gP9MFaG9XDSWa6E9ufjii0vAvvkLRe79SJifin3LyfdiR4bvPdMh8j2KX7qeLISBhV/h80J+nrnPujDam2T2EPBSrwf8JnfmiOGL7vj8AixihOVeLzAMhHIW+xb0jU0IkyzZF3thgUmvJx9ePX7AAkv2MTE0OpkW8k195tsH/uz01NCVv/x0kjyj5ODTUESuGqUhAgxj6XuALDDsHUk2Qz1RN/lz2Afurx9dh3M3eoA9y5RkPhpTyqa8FQTYO49U3u66CR9+1idNFh278E310K5meBH7IBb6vaI8LQe6ye/6HPvAfdgFUyt94LQYoTLKCAxNz64p8ARfENmfmgxOz0AVtgZ+/Ss71Iquydf1zGc/Px6MTRLxa2DkS5iLRg0rmME78ejsnKH6ushnbc+FBV5wmdyv3lAkNq6UJ2n30BMK+1nsM/hTVfdtf//WBrje2gTd7EMNtkQpCRscEYoYP6uVdDsprzFQCgPYhVwoPmwL8EjaA4T5bJ9dhO1NdbB/a1CapelYN/lV5SXw2snn4E7/MITwlqMkA9i2/+t/XVYqQnmIgBzJz25pgMMdWxXx8XvzYWtDLfh9HsVy62XqJp8pYsae3tawns7V9BL/AACRv4qHnp16fInb365Mvh59cmV1PfPlFFCafREg8u3LHbfnRD43hPZVQOTblztuz4l8bgjtq4DIty933J4T+dwQ2lcBkW9f7rg9J/K5IbSvAiLfvtxxe26oeZfHas5iFDwPz/GocFxdV2w6LTFZTj7E5sF99XRags1Uo+7QYXTN+puw9RYzlYEs9IvIz0LSkyET+UkksnBL5Gch6cmQifwkElm4JfKzkPRkyER+Eoks3BL5WUh6MmRDjTwRHIY1+mQaZub+P3N1Upl02zeSGRMMS/2yw/HYTAhuqUxA7c3Pg03V5eDxGFsvQDf5k9MhOHOhG67htCGhsHLXbTafPYk6AjGZ4Q/ne/rh+tAjxcps0Ya92xpxvYDdUFLkVywrl6mb/K67D+DMxzdgVoV4OWOUJo9Af4gNaBX3vdc6Vm8I78C1FQE4trdVXrlCqi7yo3i778Op0/iIz8WRPtUKLmVf1lTM6CBrWB4RNalhQKccqrrIz8cxYcENFVCAz5i5iMHh1/gkiHUrvyvIOerktMK4cfLZlDIlVo3Y6Wiuhxe/3AqXcOy42li9MC6d8tjgCFInky2Nrd6XBz2SUdrFOFdQAOcnUhI2mdSelqegE8dPGhFdVz4zUFFaBKde2Acv4Ro4OImUovTcH4af/+V9xTKUicPf8tgvbjGY39i1Bb59ZI8iPGzWsmKclKGowKdYbr1M3eQzRWwWCC0zQUxOzKxnl9JVECjBq35TVUClFF82NfLw4Wfr2kS+renjc57I58PP1rWJfFvTx+c8kc+Hn61rE/m2po/PeSKfDz9b1ybybU0fn/NEPh9+tq5N5NuaPj7niXw+/Gxdm8i3NX18zhP5fPjZujaRb2v6+Jwn8vnws3VtIt/W9PE5T+Tz4Wfr2kS+renjc57I58PP1rWJfFvTx+c8kc+Hn61r6+69y9bVe+fcNXjz/FVYoLF4KSE/vsQG64kHbryBy9exPyXJd7ng1MHd8F3s4l3oFw/3UqqXzNN15bMVHi982gt/+OgaEZ9EMAXbgfm1iypqURtNJOBPH3fDeVzg0ojoIn8RyR/HETiztGKWEazXrTMRM0Y+UziH4yfZiuBGRBf5uTm5UIQDNsxe4txIIHauU7w8YsdYBGwJtmJcZcuI6CKfDQ86uHMzHN7RDHm4plsOW8RX5c+IU9lWp7lg7asXewNQw5atq7d3SxAO7GgyBNlaqypqSosL4PWXvwmnBkchJrMAsLD63YER+OV7Z4VJtC+DALujSsfqnWjfDsefaZcp/UUSW+G0sd74cHfd5CdNB+uqkrvrbsP0brAuNmoZ5UUF0NywQa0YV76u2z6XJaqccQgYvvKNRhLPc8Pt1iOi6gkcnTyxkAC2rfK7AJeFN11GQvHlIea1RdZAwOKL48/5Mp8L35fE4U3cZ2/7IXGiBUfWRC4IZDa2BN+/kp755QVu0C4iIDkHCZNsQsBU8isCxdmEZUpj3YlLo5stppJfXVkKe4K1ZsfgOP2bywPw9Pag6XHljIzPiCeDSbHJ4dEpeOvvF+HyvQcQlvkQFInGIYITNwnFjR8sfAZnlRTqkduPYttEGJtEhcJaLD1uNzaqCFNTs89sMZtC8TB7OIuWVFijTVtdDbx8tBNaGs2/aEwnXxqg9PjNdz6A3+CHIqG8sKsFfvHKcWFSyvbfvXgDTp/5p0jfic5d8KPjh6DAwJcxkSKZg9N/fB/e/fctUc4r+9rhh9/5migtHQem3vbTERDZ1I4Aka8dK8eVJPIdR6n2gIh87Vg5riSR7zhKtQdE5GvHynEliXzHUao9oLSTz2aOlopcmrRMKo+ZPRk3UmKCNVhlqqSd/Kb6GmAtW0Jp2lgpPEzpfhHOTV/o+aLPG+sDV1dVJtvilgrDnduCovhyMdaNleZOqKzVb9dPfvra61oLm1GuBoFIxGIQwfEAAb8PjrS1wAlcM8ZnsFOimo+laGMJe8uGcHGoUpzZ+mjbFlyipA2nLVee215N73r5lWXFkINz04dCC1CGnV+fbW2GlzA+uebd9XSYlZ725l0WWBhX7ZgOzS/POM/mj/cbXDlCK0hs4MnMPHZ3xq7orDeylunjteqWKxfB+CZX4/NAgcoiCnI6zEjLCPLNCIx0qiMgftiql6cSDkKAyHcQmXpDIfL1Iuag8kS+g8jUGwqRrxcxB5Un8h1Ept5QiHy9iDmo/P8Agw3FKb5G/b0AAAAASUVORK5CYII=;fontSize=10;" parent="eO07zqcxzYHQwjbRKe_j-937" vertex="1">
          <mxGeometry width="27.06" height="24.5" as="geometry" />
        </mxCell>
        <mxCell id="eO07zqcxzYHQwjbRKe_j-939" value="cpu" style="text;html=1;align=center;verticalAlign=middle;whiteSpace=wrap;rounded=0;fontSize=10;" parent="eO07zqcxzYHQwjbRKe_j-937" vertex="1">
          <mxGeometry x="2.6599999999999966" y="22.5" width="21.74" height="15" as="geometry" />
        </mxCell>
        <mxCell id="eO07zqcxzYHQwjbRKe_j-940" value="" style="group" parent="1" vertex="1" connectable="0">
          <mxGeometry x="631.47" y="582.33" width="61.74000000000001" height="37.67" as="geometry" />
        </mxCell>
        <mxCell id="eO07zqcxzYHQwjbRKe_j-941" value="" style="shape=image;verticalLabelPosition=bottom;labelBackgroundColor=default;verticalAlign=top;aspect=fixed;imageAspect=0;image=data:image/png,iVBORw0KGgoAAAANSUhEUgAAAHgAAADpCAYAAADvXvM0AAAKt2lDQ1BJQ0MgUHJvZmlsZQAASImVlwdQU1kXx+976Y2WEAEpoTdBOgGkhB5A6dVGSEIIJYQUml1ZXMG1oCKCZUFXBBRclSJrRRTbIlixLsgioKyLBRuW7wFD2N1vvu+b78zcub933rn/c8+be2fOA4BixBGL02EVADJEMklEgDcjLj6BgRsCOEAC6sAVmHO4UjErLCwEIDY9/93e3QXQxHzLakLr39//V1Pl8aVcAKAwhJN4Um4GwieQ8ZUrlsgAQCEMDHNk4gnuQZgmQTaI8MgECyYZPaFDS5pi2mRMVIQPwmYA4MkcjkQAANkB8TOyuQJEhxyFsI2IJxQhXICwR0ZGJg/hdoTNkBgxwhP6zKS/6Aj+ppmk0ORwBAqeqmXS8L5CqTidk/d/fo7/bRnp8ukcJsggp0gCI6YY6knLDFawKGlB6DQLedPxUE+KPDB6mrlSn4Rp5nF8gxVr0xeETHOy0J+t0JGxo6aZL/WLnGZJZoQiV7LEhzXNHMlMXnlatMKfwmcr9PNTomKnOVsYs2CapWmRwTMxPgq/RB6h2D9fFOA9k9dfUXuG9C/1CtmKtbKUqEBF7ZyZ/fNFrBlNaZxibzy+r99MTLQiXizzVuQSp4cp4vnpAQq/NDtSsVaGHMiZtWGKb5jKCQqbZhAFUoAciAAP8IEEJIFMkA5kgAF8gRBIgRh54gDkOMn4ubKJ4nwyxXkSoSBFxmAht47PYIu41nMYdjZ2yEmcuMNTR+QNffJuQvSrM76scwC4FCFOwYyPYwjAyWcAUN/N+AxfI8drCwCnu7hySfaUb/KuYQARKAMa0AS6wBCYAStgB5yAG/ACfiAIhCKVxIMlgIvUk4FUkgOWgzWgEBSDLWAHKAf7wH5wCBwBx0AzOAXOg0vgGugCd8BD0AsGwAswCt6BcQiCcBAFokKakB5kDFlCdhAT8oD8oBAoAoqHEiEBJILk0HJoHVQMlUDlUCVUA/0MnYTOQ1egbug+1AcNQ6+hTzAKJsM0WAc2gefCTJgFB8NR8GJYAGfB+XABvAkug6vgw3ATfB6+Bt+Be+EX8BgKoEgoOkofZYVionxQoagEVDJKglqJKkKVoqpQ9ahWVAfqFqoXNYL6iMaiqWgG2grthg5ER6O56Cz0SvRGdDn6ELoJ3Y6+he5Dj6K/YigYbYwlxhXDxsRhBJgcTCGmFHMQ04i5iLmDGcC8w2KxdKwp1hkbiI3HpmKXYTdi92AbsOew3dh+7BgOh9PEWeLccaE4Dk6GK8Ttwh3GncXdxA3gPuBJeD28Hd4fn4AX4dfiS/G1+DP4m/hB/DhBhWBMcCWEEniEPMJmwgFCK+EGYYAwTlQlmhLdiVHEVOIaYhmxnniR+Ij4hkQiGZBcSOEkIWk1qYx0lHSZ1Ef6SFYjW5B9yIvIcvImcjX5HPk++Q2FQjGheFESKDLKJkoN5QLlCeWDElXJWomtxFNapVSh1KR0U+mlMkHZWJmlvEQ5X7lU+bjyDeURFYKKiYqPCkdlpUqFykmVeypjqlRVW9VQ1QzVjaq1qldUh9RwaiZqfmo8tQK1/WoX1PqpKKoh1YfKpa6jHqBepA7QsDRTGpuWSiumHaF10kbV1dQd1GPUc9Ur1E+r99JRdBM6m55O30w/Rr9L/zRLZxZrFn/Whln1s27Oeq8xW8NLg69RpNGgcUfjkyZD008zTXOrZrPmYy20loVWuFaO1l6ti1ojs2mz3WZzZxfNPjb7gTasbaEdob1Me7/2de0xHV2dAB2xzi6dCzojunRdL91U3e26Z3SH9ah6HnpCve16Z/WeM9QZLEY6o4zRzhjV19YP1JfrV+p36o8bmBpEG6w1aDB4bEg0ZBomG243bDMcNdIzmm+03KjO6IExwZhpnGK807jD+L2JqUmsyXqTZpMhUw1Ttmm+aZ3pIzOKmadZllmV2W1zrDnTPM18j3mXBWzhaJFiUWFxwxK2dLIUWu6x7J6DmeMyRzSnas49K7IVyyrbqs6qz5puHWK91rrZ+uVco7kJc7fO7Zj71cbRJt3mgM1DWzXbINu1tq22r+0s7Lh2FXa37Sn2/var7FvsXzlYOvAd9jr0OFId5zuud2xz/OLk7CRxqncadjZyTnTe7XyPSWOGMTcyL7tgXLxdVrmccvno6uQqcz3m+qeblVuaW63b0DzTefx5B+b1uxu4c9wr3Xs9GB6JHj969Hrqe3I8qzyfehl68bwOeg2yzFmprMOsl9423hLvRu/3Pq4+K3zO+aJ8A3yLfDv91Pyi/cr9nvgb+Av86/xHAxwDlgWcC8QEBgduDbzH1mFz2TXs0SDnoBVB7cHk4Mjg8uCnIRYhkpDW+fD8oPnb5j9aYLxAtKA5FISyQ7eFPg4zDcsK+yUcGx4WXhH+LMI2YnlERyQ1cmlkbeS7KO+ozVEPo82i5dFtMcoxi2JqYt7H+saWxPbGzY1bEXctXiteGN+SgEuISTiYMLbQb+GOhQOLHBcVLrq72HRx7uIrS7SWpC85vVR5KWfp8URMYmxibeJnTiinijOWxE7anTTK9eHu5L7gefG284b57vwS/mCye3JJ8pDAXbBNMJzimVKaMiL0EZYLX6UGpu5LfZ8Wmlad9i09Nr0hA5+RmHFSpCZKE7Vn6mbmZnaLLcWF4t4s16wdWaOSYMlBKSRdLG2R0ZBm6brcTP6dvC/bI7si+0NOTM7xXNVcUe71PIu8DXmD+f75Py1DL+Mua1uuv3zN8r4VrBWVK6GVSSvbVhmuKlg1sDpg9aE1xDVpa35da7O2ZO3bdbHrWgt0ClYX9H8X8F1doVKhpPDeerf1+75Hfy/8vnOD/YZdG74W8YquFtsUlxZ/3sjdePUH2x/Kfvi2KXlT52anzXu3YLeIttzd6rn1UIlqSX5J/7b525q2M7YXbX+7Y+mOK6UOpft2EnfKd/aWhZS17DLatWXX5/KU8jsV3hUNu7V3b9j9fg9vz829Xnvr9+nsK9736Ufhjz2VAZVNVSZVpfux+7P3PzsQc6DjJ+ZPNQe1DhYf/FItqu49FHGovca5pqZWu3ZzHVwnrxs+vOhw1xHfIy31VvWVDfSG4qPgqPzo858Tf757LPhY23Hm8foTxid2N1Ibi5qgprym0eaU5t6W+Jbuk0En21rdWht/sf6l+pT+qYrT6qc3nyGeKTjz7Wz+2bFz4nMj5wXn+9uWtj28EHfhdnt4e+fF4IuXL/lfutDB6jh72f3yqSuuV05eZV5tvuZ0rem64/XGXx1/bex06my64Xyjpculq7V7XveZm543z9/yvXXpNvv2tTsL7nTfjb7bc2/Rvd4eXs/Q/fT7rx5kPxh/uPoR5lHRY5XHpU+0n1T9Zv5bQ69T7+k+377rTyOfPuzn9r/4Xfr754GCZ5RnpYN6gzVDdkOnhv2Hu54vfD7wQvxifKTwD9U/dr80e3niT68/r4/GjQ68krz69nrjG8031W8d3raNhY09eZfxbvx90QfND4c+Mj92fIr9NDie8xn3ueyL+ZfWr8FfH33L+PZNzJFwJlsBFDLg5GQAXlcDQIlHeocuAIgLp3rsSYOm/gsmCfwnnurDJ80JgGovAKJXAxCC9Ch7kWGMMBmZJ9qkKC8A29srxnQ/PNm7TxgW+YspMdUkaAZ309RWg3/YVF//l33/cwYK1b/N/wJrOw0JSqibKQAAAFZlWElmTU0AKgAAAAgAAYdpAAQAAAABAAAAGgAAAAAAA5KGAAcAAAASAAAARKACAAQAAAABAAAAeKADAAQAAAABAAAA6QAAAABBU0NJSQAAAFNjcmVlbnNob3QQI2ZpAAAB1mlUWHRYTUw6Y29tLmFkb2JlLnhtcAAAAAAAPHg6eG1wbWV0YSB4bWxuczp4PSJhZG9iZTpuczptZXRhLyIgeDp4bXB0az0iWE1QIENvcmUgNi4wLjAiPgogICA8cmRmOlJERiB4bWxuczpyZGY9Imh0dHA6Ly93d3cudzMub3JnLzE5OTkvMDIvMjItcmRmLXN5bnRheC1ucyMiPgogICAgICA8cmRmOkRlc2NyaXB0aW9uIHJkZjphYm91dD0iIgogICAgICAgICAgICB4bWxuczpleGlmPSJodHRwOi8vbnMuYWRvYmUuY29tL2V4aWYvMS4wLyI+CiAgICAgICAgIDxleGlmOlBpeGVsWURpbWVuc2lvbj4yMzM8L2V4aWY6UGl4ZWxZRGltZW5zaW9uPgogICAgICAgICA8ZXhpZjpQaXhlbFhEaW1lbnNpb24+MTIwPC9leGlmOlBpeGVsWERpbWVuc2lvbj4KICAgICAgICAgPGV4aWY6VXNlckNvbW1lbnQ+U2NyZWVuc2hvdDwvZXhpZjpVc2VyQ29tbWVudD4KICAgICAgPC9yZGY6RGVzY3JpcHRpb24+CiAgIDwvcmRmOlJERj4KPC94OnhtcG1ldGE+CpVmGvsAAA0jSURBVHgB7Z1rbBxXFcfPPv3ceHdtr5/xI47rtHm0eTdtSdIEJW1SGlPUIkQVoiBUqFqJL1SAkECi5QsEJD5UQoCQKCAhSNPwoQVEBYhH2yS0JVGaoLQhr9pxHMexHTvexN7lTohdWZnZnXvu7J29m/9Ikdd3zv+ec/8/z8xmHncC/RdHs4SlZB0IluzIMLAbDgBwif8hADAAl7gDJT48bMEAXOIOlPjwsAUDcIk7UOLDwxZc4oDDXo/vykSaXn/jMO07dJQGxye87t64/hpj1fTJNUto28eWUzAY0F6/54Bffv0telH8w/J/B4ZGx+novgHxS5Ye2bBSuy2e76L3HnpP+yBMSPjbfx72pUzPAY9Npn0ZSLEnPT5w0ZcSPQfsyyiQ1NEBz4/Bdpm+un09dbU22q0qybZT/Rfohd/9pSjGpgXwwrYmWtLTVhQD1lFEJKrFVldDwS7alU3mBhXPn5q5Hrqu/LW/ves6dibQ+q9zU32CejqbqSwamWl2/ROAXVulHvj8vj+xOgkEAtS74i56+rFNVFlRJtUHdtFSdrkLHhoZsw2czmSJ829qOkP73zlGfUMjtv3magTgXO4w112ZmGQqnWXXp6ap/8Kwc4DDGgB2MEaluT4+T0Vuq+2ojVNnS73tulyNOAbncoe5zuk4eXdzA6vHZHUFPbFpNTWLL1uyCwDLOqYQ/6PndiqoeVLsonm+GaMCYGNQ8QoFYJ5vxqgA2BhUvEIBmOebMSoANgYVr1AA5vlmjAqAjUHFKxSAeb4ZowJgY1DxCgVgnm/GqHAuWiOqb/74Fels1tMQ7eIiw8P3LaOGuri0HoClLcsvyGQytkF/OHrCtt1N44EPztC3d/dSbU21m/DZGOyiZ63w7sPA0GXvOrvZ09un++lU/5B0vwAsbVl+QVY8h1SIZVrcuiO7ALCsYy7iU4kaF1FyISvbm2kB7uiQM61Q0eGw/VebL25czUpZWxOjB5b3UCIud/y1ktlXwioDonwO7OrdmC/E8/XYRXtuaXF1CMDFxcPzagDYc0uLq0MALi4enlcDwJ5bWlwdAnABeOifS8d5EADs7E1JrAHgksDoPAgAdvamJNYAcElgdB4EADt7UxJrcC5aI8Zn9/ySla02VkmPbVxFSxa2Ss93CcAsy3OLJq9dtw04eLbPtt1N4/Hzg/T9Lz0u/YwwdtFu3JWMOV+AOzpOXRqh/344KFkJEQBLW5ZfUCU5E07+HsV13VCIkomYm9A5MQA8xw5vfrEu0Hu5hEJB2nb3HTQfUzh4aSu/r6CY18pu+cq29XbNOdvCAu6ClhR1i4nQysswEVpOs/xe+akta7WXgF20dsv1JgRgvX5rzwbA2i3XmxCA9fqtPRsAa7dcb0IA1uu39mwArN1yvQkBWK/f2rMBsHbL9SYEYL1+a88GwNot15sQF/wL4Hc2a/8A+L1f/i4rW7KygnZ/fC09Kt5gGo3IIcMWzLI8t+jyFW9fq3tp4ir95I9v0unz8u8/BODcrFhrRzwGbBVxeXKSzg/Kz/0BwCyEuUVeX/C3slWVRWl+c13uxDZr5XboNh2g6VYHYpXltzaKlnLJ4+dMJxXRKO3evIZaxJtXZBcAlnVMIf6nz3xGWm3dHZKoqaK45PxYM4kAeMYJDT+72vW/YhfHYA1g/UwBwH66ryE3AGsw2c8UAOyn+xpyA7AGk/1MAcB+uq8hNwBrMNnPFADsp/sacgOwBpP9TAHAfrqvITdOVWoweSbFwX+/P/NR6mesupI6WuvxdKGUawUMnnZ4KcezP9vHyhoKBunR1Yvpmd4HSfbhcuyiWZbnFg2PjucOkFxr/cG8+q9jdOLsgKQSUzhIG+ZGcOXqpJswqZj01BSl0/aTu+TqCFtwLneY69oa5e+8yJeqIxGnDryUI59NetY7TeHQ3VzPKqBJzPmxc/NaqmdMwoJv0SzLeaKXntvFEyqosItWMM8EKQCbQEmhRgBWMM8EKQCbQEmhRgBWMM8EKQCbQEmhRgBWMM8EKQCbQEmhRgBWMM8EKQCbQEmhRgBWMM8EKc5Fa6S05xevsrLViYsNG1YuIusqVTBoPxe1U8cA7OSMQnv6+pSt+jeHjtq2u2k8cPIsPb97ByViVW7CZ2Owi561wrsPQyNj3nV2s6d3TvfRiTO4o8NzYzkdOszoz+lqVpPJZMnpOvNskM0H7KJtTFFtaqpN2HYREe9f4CwW2Pu726m7rUFaDsDSlvEFO9evYokTVRW0fnkP1YjbZ2UXAJZ1TCH+Czs2KKh5Ut4+g5cLKh8cAGAfTNeZEoB1uu1DLgD2wXSdKQFYp9s+5AJgH0zXmRKAdbrtQy4A9sF0nSkBWKfbPuQCYB9M15kSpyo1uj0xeY2VzbrIHw2HpS/2W8kAmGU5T/TU915iCevFXNG9D9xD65YupEg4JNUHAEvZ5S54TLxEw245cfGSXXPeNkt3amiYOptTNL/B/lKkUyc4Bjs5o9A+PObtHB1WKX2Xx+jkOdzRoYDFO2lMvOeoEEsK72wohK3yfTrdGJeSvGFuJnNYHHcfWXEXdTYlZ5pc/8Qx2LVV6oHfeHwLqxNrbqzO1pSYCC0qrQdgacv4gjXLFvLFTCW+ZDGNM0UGwKaQYtYJwEzjTJEBsCmkmHUCMNM4U2QAbAopZp0AzDTOFBkAm0KKWScAM40zRQbAppBi1olTlUzjOLLjjCn5SczYUCYuNqTENA6y72uwagRgDimmZteen0srA+LZ4Drx2OgnVi2mJ7euo8pyuQsO2EVLW55fMHh5NH+Qy4hsNkuD4gaCX//jXTpzfsil6qMwAP7IC88+jV9Ne9bXTEfj167ROQCescPfn4l5cjPhuKk2IXbTi++Y7yZ0TgyOwXPs8OaXmir7qRZWdckDsioqi0bo4RV3Ut28aukCAVjaMr7gW5/dxhJHImGKiXk6ZCdBs5IBMMtynqguOY8nVFDhS5aCeSZIAdgESgo1ArCCeSZIAdgESgo1ArCCeSZIAdgESgo1ArCCeSZIAdgESgo1ArCCeSZIAdgESgo1ArCCeSZIAdgESgo1ArCCeSZIAdgESgo1ArCCeSZIAdgESgo1ArCCeSZIAdgESgo1ArCCeSZIAdgESgo1ArCCeSZIAdgESgo1ArCCeSZIAdgESgo1ArCCeSZIAdgESgo1ArCCeSZI8WySRkrjE5OsbKFQSDxhGCbraX/ZBYBlHVOIf3H/X1nqCjFtw9pFHbS8u42sycFlFgCWcctl7BWHJ/z3vnXYZQ9zw6wt9+/HTtIPn36CUvHY3JV5fsMxOI9BnNWXRsY4MkeNNU/HqQuX6Mh/zjjGOK0AYCdnFNpDIe9tjYg+U7XyzxdjF60A0knaUi//8gynvqzdc1y8s+H+nk5qb6pzCnNsB2BHa7xf8bVPb5XuNHgDcDktmt9AnNf1ALC05XzBjnXL+GKm0vuDBbMQyArjAAAXxtei6RWAiwZFYQoB4ML4WjS9AnDRoChMIQBcGF+LplcALhoUhSkEgAvja9H0CsBFg6IwhQBwYXwtml5xqlIjig84L+UQ9ZWJ6YRTyRqKirs6ZBd5hWwGxM868MKvXpv9LPPBevP3QyvvpIfuXUpRAVtmkYuW6fk2jh0asX8px3v9g2xX3h8YosULWqmrpV6qDy2ADw+9SWMfHpIqzOTgtwd4N9flGvPo1Uk6KXbxRQn44PABOhO5mKv+klrXl24Q45G/OJ/LhHhFOXW1NeYKsV2nZQu2zVzCjdGy67ajaxFvL5NdrDs6ktUVtEW8lKO5rkZWjnc2SDumIPjO53ul1dad0BVlEUol5t14+4psB9iCZR1TiO9h7GIV0t2QagF8+lojXZiIq9ZqjH4yXVY0tWoBfG40QMFMpGgGXehCMuNivJQtdBpX/eNUpSubzA0CYHPZuaocgF3ZZG4QAJvLzlXlAOzKJnODANhcdq4qB2BXNpkbBMDmsnNVuZYTHa4quQ2Cfv/GEdYorXPRS7taKVmDN4CzDNQl+sH+P7NSRcS8HJuWLKSndmykKvGssMyCLVjGLZexmXRQnKqcviV6ZDJ9S5vbhr0HjtD2++6hnjbrWrP7Bcdg9165jsxk5ac7ytd5Rpza7hfzdMguACzrmIv4UNT7Cw1dDUnqbm9ykX1uCHbRc/3w5LdAMGPbz4Ning3OUhuvps3ijo6GpPwdIQDMcZyp+frO7SxlWMx0Vy6+SWOmO5Z9+kSxqgp9yW5m0rIFZ6YCFBD/bpcle2Os3h+HOf5pARw4JwYbvo2+z01xUBRGowVwaNj+S0dhhuR/r6EiuV3HcsLzzUrcxovFxgG/bPEccE+D3LMzNl6UZNPWxd2+jMtzwJ/bvIaWiWn3opLzGvsyeg1JY+LJwJUdLfTk1rUast2aItB/cdTTr3tT0xnqE6fU+sSUutPi8+2+lIvHPRvFIyvNqaT4f6x+NzwHrH8IyJjLAc930bmSYZ1+BwBYv+daMwKwVrv1JwNg/Z5rzfg/P+zUdK5gPVkAAAAASUVORK5CYII=;rotation=-90;horizontal=1;" parent="eO07zqcxzYHQwjbRKe_j-940" vertex="1">
          <mxGeometry x="20.69999999999999" y="-9.580000000000041" width="20.34" height="39.5" as="geometry" />
        </mxCell>
        <mxCell id="eO07zqcxzYHQwjbRKe_j-942" value="memory" style="text;html=1;align=center;verticalAlign=middle;whiteSpace=wrap;rounded=0;fontSize=10;" parent="eO07zqcxzYHQwjbRKe_j-940" vertex="1">
          <mxGeometry x="10" y="22.67" width="41.74" height="15" as="geometry" />
        </mxCell>
        <mxCell id="eO07zqcxzYHQwjbRKe_j-943" value="" style="aspect=fixed;sketch=0;html=1;dashed=0;whitespace=wrap;verticalLabelPosition=bottom;verticalAlign=top;fillColor=#2875E2;strokeColor=#ffffff;points=[[0.005,0.63,0],[0.1,0.2,0],[0.9,0.2,0],[0.5,0,0],[0.995,0.63,0],[0.72,0.99,0],[0.5,1,0],[0.28,0.99,0]];shape=mxgraph.kubernetes.icon2;prIcon=pv" parent="1" vertex="1">
          <mxGeometry x="734.4300000000001" y="582.5" width="28.82" height="27.67" as="geometry" />
        </mxCell>
        <mxCell id="eO07zqcxzYHQwjbRKe_j-944" value="pv" style="text;html=1;align=center;verticalAlign=middle;whiteSpace=wrap;rounded=0;fontSize=10;" parent="1" vertex="1">
          <mxGeometry x="727.97" y="605" width="41.74" height="15" as="geometry" />
        </mxCell>
        <mxCell id="eO07zqcxzYHQwjbRKe_j-945" value="" style="group;verticalAlign=bottom;movable=1;resizable=1;rotatable=1;deletable=1;editable=1;locked=0;connectable=1;" parent="1" vertex="1" connectable="0">
          <mxGeometry x="692.71" y="450" width="72" height="65.09" as="geometry" />
        </mxCell>
        <mxCell id="eO07zqcxzYHQwjbRKe_j-946" value="" style="group" parent="eO07zqcxzYHQwjbRKe_j-945" vertex="1" connectable="0">
          <mxGeometry width="70" height="60" as="geometry" />
        </mxCell>
        <mxCell id="eO07zqcxzYHQwjbRKe_j-947" value="pod" style="rounded=0;whiteSpace=wrap;html=1;fillColor=#d5e8d4;strokeColor=#82b366;verticalAlign=top;arcSize=27;align=left;shadow=1;glass=0;" parent="eO07zqcxzYHQwjbRKe_j-946" vertex="1">
          <mxGeometry x="-1.789999999999992" width="70" height="60" as="geometry" />
        </mxCell>
        <mxCell id="eO07zqcxzYHQwjbRKe_j-948" value="app" style="editableCssRules=.*;html=1;shape=image;verticalLabelPosition=middle;labelBackgroundColor=none;verticalAlign=middle;aspect=fixed;imageAspect=0;image=data:image/svg+xml,PHN2ZyB4bWxucz0iaHR0cDovL3d3dy53My5vcmcvMjAwMC9zdmciIHhtbG5zOnY9Imh0dHBzOi8vdmVjdGEuaW8vbmFubyIgd2lkdGg9IjE0LjAwMDI5OTQ1MzczNTM1MiIgaGVpZ2h0PSIxNS45OTI5MjI3ODI4OTc5NSIgdmlld0JveD0iLTAuMDAwMTQ5NjA4NDAwNTMzOTA3MTIgLTAuMDAwNDYxNzIyMDgzODU1NDIwMzUgMTQuMDAwMjk5NDUzNzM1MzUyIDE1Ljk5MjkyMjc4Mjg5Nzk1Ij4mI3hhOwk8c3R5bGUgdHlwZT0idGV4dC9jc3MiPiYjeGE7CS5zdDB7ZmlsbDojNDI4NWY0O30mI3hhOwk8L3N0eWxlPiYjeGE7CTxwYXRoIGNsYXNzPSJzdDAiIGQ9Ik0xMy42NyAzLjczNkw3LjM2LjA5NmEuNzIuNzIgMCAwIDAtLjcyIDBMLjMzIDMuNzM2YS43Mi43MiAwIDAgMC0uMzMuNjJ2Ny4yOGEuNzIuNzIgMCAwIDAgLjM2LjYybDYuMjggMy42NGEuNzIuNzIgMCAwIDAgLjcyIDBsNi4zMS0zLjY0YS43Mi43MiAwIDAgMCAuMzMtLjYydi03LjI4YS43Mi43MiAwIDAgMC0uMzMtLjYyem0tLjg3IDcuMmwtMi4yLTEuMjd2LTMuMzRsLTMuMjUgMS44N3YzLjhsMi45LTEuNjcgMi4yIDEuMjctNS40NSAzLjEtNS40NS0zLjE1IDIuMi0xLjI3IDIuOSAxLjcydi0zLjhMMy40IDYuMzI2djMuMzRsLTIuMiAxLjI3di02LjI5bDUuNDUtMy4xNHYyLjQ5bC0yLjkgMS43Mkw3IDcuNTg2bDMuMjUtMS44OC0yLjktMS43MXYtMi40OWw1LjQ1IDMuMTR6Ii8+JiN4YTs8L3N2Zz4=;labelPosition=center;align=center;direction=south;" parent="eO07zqcxzYHQwjbRKe_j-946" vertex="1">
          <mxGeometry x="12.450000000000001" y="14.27" width="45.09" height="39.45" as="geometry" />
        </mxCell>
        <mxCell id="eO07zqcxzYHQwjbRKe_j-949" style="edgeStyle=orthogonalEdgeStyle;rounded=0;orthogonalLoop=1;jettySize=auto;html=1;entryX=0.5;entryY=0;entryDx=0;entryDy=0;" parent="1" source="eO07zqcxzYHQwjbRKe_j-947" target="eO07zqcxzYHQwjbRKe_j-936" edge="1">
          <mxGeometry relative="1" as="geometry">
            <mxPoint x="660" y="550" as="targetPoint" />
          </mxGeometry>
        </mxCell>
        <mxCell id="eO07zqcxzYHQwjbRKe_j-952" value="" style="edgeStyle=orthogonalEdgeStyle;rounded=0;orthogonalLoop=1;jettySize=auto;html=1;entryX=0.5;entryY=0;entryDx=0;entryDy=0;" parent="1" source="eO07zqcxzYHQwjbRKe_j-950" target="eO07zqcxzYHQwjbRKe_j-764" edge="1">
          <mxGeometry relative="1" as="geometry" />
        </mxCell>
        <mxCell id="eO07zqcxzYHQwjbRKe_j-953" value="" style="edgeStyle=orthogonalEdgeStyle;rounded=0;orthogonalLoop=1;jettySize=auto;html=1;entryX=0.5;entryY=0;entryDx=0;entryDy=0;" parent="1" source="eO07zqcxzYHQwjbRKe_j-950" target="eO07zqcxzYHQwjbRKe_j-898" edge="1">
          <mxGeometry relative="1" as="geometry">
            <mxPoint x="412.08" y="365" as="targetPoint" />
          </mxGeometry>
        </mxCell>
        <mxCell id="eO07zqcxzYHQwjbRKe_j-950" value="deployment/replicaset" style="aspect=fixed;sketch=0;html=1;dashed=0;whitespace=wrap;verticalLabelPosition=top;verticalAlign=bottom;fillColor=#2875E2;strokeColor=#ffffff;points=[[0.005,0.63,0],[0.1,0.2,0],[0.9,0.2,0],[0.5,0,0],[0.995,0.63,0],[0.72,0.99,0],[0.5,1,0],[0.28,0.99,0]];shape=mxgraph.kubernetes.icon2;prIcon=deploy;labelPosition=center;align=center;" parent="1" vertex="1">
          <mxGeometry x="269" y="370" width="37.5" height="36" as="geometry" />
        </mxCell>
        <mxCell id="3q0PopQuauLMCxIyagHW-731" style="edgeStyle=orthogonalEdgeStyle;rounded=0;orthogonalLoop=1;jettySize=auto;html=1;" edge="1" parent="1" source="3q0PopQuauLMCxIyagHW-721" target="eO07zqcxzYHQwjbRKe_j-927">
          <mxGeometry relative="1" as="geometry" />
        </mxCell>
        <mxCell id="3q0PopQuauLMCxIyagHW-721" value="" style="aspect=fixed;sketch=0;html=1;dashed=0;whitespace=wrap;verticalLabelPosition=bottom;verticalAlign=top;fillColor=#2875E2;strokeColor=#ffffff;points=[[0.005,0.63,0],[0.1,0.2,0],[0.9,0.2,0],[0.5,0,0],[0.995,0.63,0],[0.72,0.99,0],[0.5,1,0],[0.28,0.99,0]];shape=mxgraph.kubernetes.icon2;kubernetesLabel=1;prIcon=job" vertex="1" parent="1">
          <mxGeometry x="840" y="322" width="50" height="48" as="geometry" />
        </mxCell>
        <mxCell id="3q0PopQuauLMCxIyagHW-727" style="edgeStyle=orthogonalEdgeStyle;rounded=0;orthogonalLoop=1;jettySize=auto;html=1;entryX=0.5;entryY=0;entryDx=0;entryDy=0;" edge="1" parent="1" source="3q0PopQuauLMCxIyagHW-725" target="eO07zqcxzYHQwjbRKe_j-918">
          <mxGeometry relative="1" as="geometry" />
        </mxCell>
        <mxCell id="3q0PopQuauLMCxIyagHW-728" style="edgeStyle=orthogonalEdgeStyle;rounded=0;orthogonalLoop=1;jettySize=auto;html=1;entryX=0.5;entryY=0;entryDx=0;entryDy=0;" edge="1" parent="1" source="3q0PopQuauLMCxIyagHW-725" target="eO07zqcxzYHQwjbRKe_j-945">
          <mxGeometry relative="1" as="geometry" />
        </mxCell>
        <mxCell id="3q0PopQuauLMCxIyagHW-725" value="statefulset" style="aspect=fixed;sketch=0;html=1;dashed=0;whitespace=wrap;verticalLabelPosition=top;verticalAlign=bottom;fillColor=#2875E2;strokeColor=#ffffff;points=[[0.005,0.63,0],[0.1,0.2,0],[0.9,0.2,0],[0.5,0,0],[0.995,0.63,0],[0.72,0.99,0],[0.5,1,0],[0.28,0.99,0]];shape=mxgraph.kubernetes.icon2;prIcon=sts;labelPosition=center;align=center;" vertex="1" parent="1">
          <mxGeometry x="545" y="360" width="39.58" height="38" as="geometry" />
        </mxCell>
        <mxCell id="3q0PopQuauLMCxIyagHW-763" style="edgeStyle=orthogonalEdgeStyle;rounded=0;orthogonalLoop=1;jettySize=auto;html=1;" edge="1" parent="1" source="3q0PopQuauLMCxIyagHW-729" target="eO07zqcxzYHQwjbRKe_j-944">
          <mxGeometry relative="1" as="geometry" />
        </mxCell>
        <mxCell id="3q0PopQuauLMCxIyagHW-764" style="edgeStyle=orthogonalEdgeStyle;rounded=0;orthogonalLoop=1;jettySize=auto;html=1;" edge="1" parent="1" source="3q0PopQuauLMCxIyagHW-729" target="eO07zqcxzYHQwjbRKe_j-754">
          <mxGeometry relative="1" as="geometry" />
        </mxCell>
        <mxCell id="3q0PopQuauLMCxIyagHW-767" style="edgeStyle=orthogonalEdgeStyle;rounded=0;orthogonalLoop=1;jettySize=auto;html=1;exitX=0.005;exitY=0.63;exitDx=0;exitDy=0;exitPerimeter=0;entryX=0.5;entryY=1;entryDx=0;entryDy=0;" edge="1" parent="1" source="3q0PopQuauLMCxIyagHW-729" target="3q0PopQuauLMCxIyagHW-766">
          <mxGeometry relative="1" as="geometry">
            <Array as="points">
              <mxPoint x="1130" y="734" />
              <mxPoint x="657" y="734" />
            </Array>
          </mxGeometry>
        </mxCell>
        <mxCell id="3q0PopQuauLMCxIyagHW-729" value="&lt;div&gt;cluster admin&lt;/div&gt;" style="aspect=fixed;sketch=0;html=1;dashed=0;whitespace=wrap;verticalLabelPosition=bottom;verticalAlign=top;fillColor=#2875E2;strokeColor=#ffffff;points=[[0.005,0.63,0],[0.1,0.2,0],[0.9,0.2,0],[0.5,0,0],[0.995,0.63,0],[0.72,0.99,0],[0.5,1,0],[0.28,0.99,0]];shape=mxgraph.kubernetes.icon2;prIcon=user" vertex="1" parent="1">
          <mxGeometry x="1085" y="710" width="50" height="48" as="geometry" />
        </mxCell>
        <mxCell id="3q0PopQuauLMCxIyagHW-730" value="&lt;div&gt;cluster operator&lt;/div&gt;" style="aspect=fixed;sketch=0;html=1;dashed=0;whitespace=wrap;verticalLabelPosition=bottom;verticalAlign=top;fillColor=#2875E2;strokeColor=#ffffff;points=[[0.005,0.63,0],[0.1,0.2,0],[0.9,0.2,0],[0.5,0,0],[0.995,0.63,0],[0.72,0.99,0],[0.5,1,0],[0.28,0.99,0]];shape=mxgraph.kubernetes.icon2;prIcon=user" vertex="1" parent="1">
          <mxGeometry x="940" y="467.09000000000003" width="50" height="48" as="geometry" />
        </mxCell>
        <mxCell id="3q0PopQuauLMCxIyagHW-732" style="edgeStyle=orthogonalEdgeStyle;rounded=0;orthogonalLoop=1;jettySize=auto;html=1;exitX=0;exitY=0.75;exitDx=0;exitDy=0;" edge="1" parent="1" source="eO07zqcxzYHQwjbRKe_j-734" target="3q0PopQuauLMCxIyagHW-730">
          <mxGeometry relative="1" as="geometry" />
        </mxCell>
        <mxCell id="3q0PopQuauLMCxIyagHW-734" style="edgeStyle=orthogonalEdgeStyle;rounded=0;orthogonalLoop=1;jettySize=auto;html=1;exitX=0.005;exitY=0.63;exitDx=0;exitDy=0;exitPerimeter=0;entryX=0.5;entryY=1;entryDx=0;entryDy=0;entryPerimeter=0;" edge="1" parent="1" source="3q0PopQuauLMCxIyagHW-730" target="3q0PopQuauLMCxIyagHW-721">
          <mxGeometry relative="1" as="geometry" />
        </mxCell>
        <mxCell id="3q0PopQuauLMCxIyagHW-735" style="edgeStyle=orthogonalEdgeStyle;rounded=0;orthogonalLoop=1;jettySize=auto;html=1;exitX=0.1;exitY=0.2;exitDx=0;exitDy=0;exitPerimeter=0;entryX=0.917;entryY=0.34;entryDx=0;entryDy=0;entryPerimeter=0;" edge="1" parent="1" source="3q0PopQuauLMCxIyagHW-730" target="eO07zqcxzYHQwjbRKe_j-758">
          <mxGeometry relative="1" as="geometry">
            <Array as="points">
              <mxPoint x="945" y="320" />
            </Array>
          </mxGeometry>
        </mxCell>
        <mxCell id="3q0PopQuauLMCxIyagHW-738" style="edgeStyle=orthogonalEdgeStyle;rounded=0;orthogonalLoop=1;jettySize=auto;html=1;exitX=0.005;exitY=0.63;exitDx=0;exitDy=0;exitPerimeter=0;entryX=0.5;entryY=0;entryDx=0;entryDy=0;entryPerimeter=0;" edge="1" parent="1" source="eO07zqcxzYHQwjbRKe_j-758" target="eO07zqcxzYHQwjbRKe_j-950">
          <mxGeometry relative="1" as="geometry" />
        </mxCell>
        <mxCell id="3q0PopQuauLMCxIyagHW-754" style="edgeStyle=orthogonalEdgeStyle;rounded=0;orthogonalLoop=1;jettySize=auto;html=1;exitX=0.5;exitY=0;exitDx=0;exitDy=0;exitPerimeter=0;entryX=0.5;entryY=1;entryDx=0;entryDy=0;" edge="1" parent="1" source="3q0PopQuauLMCxIyagHW-740" target="3q0PopQuauLMCxIyagHW-743">
          <mxGeometry relative="1" as="geometry">
            <Array as="points">
              <mxPoint x="291" y="720" />
              <mxPoint x="213" y="720" />
            </Array>
          </mxGeometry>
        </mxCell>
        <mxCell id="3q0PopQuauLMCxIyagHW-755" style="edgeStyle=orthogonalEdgeStyle;rounded=0;orthogonalLoop=1;jettySize=auto;html=1;entryX=1;entryY=0.5;entryDx=0;entryDy=0;" edge="1" parent="1" source="3q0PopQuauLMCxIyagHW-740" target="3q0PopQuauLMCxIyagHW-749">
          <mxGeometry relative="1" as="geometry">
            <Array as="points">
              <mxPoint x="291" y="720" />
              <mxPoint x="483" y="720" />
            </Array>
          </mxGeometry>
        </mxCell>
        <mxCell id="3q0PopQuauLMCxIyagHW-740" value="daemonset" style="aspect=fixed;sketch=0;html=1;dashed=0;whitespace=wrap;verticalLabelPosition=bottom;verticalAlign=top;fillColor=#2875E2;strokeColor=#ffffff;points=[[0.005,0.63,0],[0.1,0.2,0],[0.9,0.2,0],[0.5,0,0],[0.995,0.63,0],[0.72,0.99,0],[0.5,1,0],[0.28,0.99,0]];shape=mxgraph.kubernetes.icon2;kubernetesLabel=1;prIcon=ds" vertex="1" parent="1">
          <mxGeometry x="271.08" y="750" width="39.58" height="38" as="geometry" />
        </mxCell>
        <mxCell id="3q0PopQuauLMCxIyagHW-741" value="" style="group;verticalAlign=bottom;movable=1;resizable=1;rotatable=1;deletable=1;editable=1;locked=0;connectable=1;" vertex="1" connectable="0" parent="1">
          <mxGeometry x="179.99999999999997" y="624.91" width="72" height="65.09" as="geometry" />
        </mxCell>
        <mxCell id="3q0PopQuauLMCxIyagHW-742" value="" style="group" vertex="1" connectable="0" parent="3q0PopQuauLMCxIyagHW-741">
          <mxGeometry width="70" height="60" as="geometry" />
        </mxCell>
        <mxCell id="3q0PopQuauLMCxIyagHW-743" value="pod" style="rounded=0;whiteSpace=wrap;html=1;fillColor=#d5e8d4;strokeColor=#82b366;verticalAlign=top;arcSize=27;align=left;shadow=1;glass=0;fillStyle=dashed;" vertex="1" parent="3q0PopQuauLMCxIyagHW-742">
          <mxGeometry x="-1.789999999999992" width="70" height="60" as="geometry" />
        </mxCell>
        <mxCell id="3q0PopQuauLMCxIyagHW-744" value="app" style="editableCssRules=.*;html=1;shape=image;verticalLabelPosition=middle;labelBackgroundColor=none;verticalAlign=middle;aspect=fixed;imageAspect=0;image=data:image/svg+xml,PHN2ZyB4bWxucz0iaHR0cDovL3d3dy53My5vcmcvMjAwMC9zdmciIHhtbG5zOnY9Imh0dHBzOi8vdmVjdGEuaW8vbmFubyIgd2lkdGg9IjE0LjAwMDI5OTQ1MzczNTM1MiIgaGVpZ2h0PSIxNS45OTI5MjI3ODI4OTc5NSIgdmlld0JveD0iLTAuMDAwMTQ5NjA4NDAwNTMzOTA3MTIgLTAuMDAwNDYxNzIyMDgzODU1NDIwMzUgMTQuMDAwMjk5NDUzNzM1MzUyIDE1Ljk5MjkyMjc4Mjg5Nzk1Ij4mI3hhOwk8c3R5bGUgdHlwZT0idGV4dC9jc3MiPiYjeGE7CS5zdDB7ZmlsbDojNDI4NWY0O30mI3hhOwk8L3N0eWxlPiYjeGE7CTxwYXRoIGNsYXNzPSJzdDAiIGQ9Ik0xMy42NyAzLjczNkw3LjM2LjA5NmEuNzIuNzIgMCAwIDAtLjcyIDBMLjMzIDMuNzM2YS43Mi43MiAwIDAgMC0uMzMuNjJ2Ny4yOGEuNzIuNzIgMCAwIDAgLjM2LjYybDYuMjggMy42NGEuNzIuNzIgMCAwIDAgLjcyIDBsNi4zMS0zLjY0YS43Mi43MiAwIDAgMCAuMzMtLjYydi03LjI4YS43Mi43MiAwIDAgMC0uMzMtLjYyem0tLjg3IDcuMmwtMi4yLTEuMjd2LTMuMzRsLTMuMjUgMS44N3YzLjhsMi45LTEuNjcgMi4yIDEuMjctNS40NSAzLjEtNS40NS0zLjE1IDIuMi0xLjI3IDIuOSAxLjcydi0zLjhMMy40IDYuMzI2djMuMzRsLTIuMiAxLjI3di02LjI5bDUuNDUtMy4xNHYyLjQ5bC0yLjkgMS43Mkw3IDcuNTg2bDMuMjUtMS44OC0yLjktMS43MXYtMi40OWw1LjQ1IDMuMTR6Ii8+JiN4YTs8L3N2Zz4=;labelPosition=center;align=center;direction=south;" vertex="1" parent="3q0PopQuauLMCxIyagHW-742">
          <mxGeometry x="12.450000000000001" y="14.27" width="45.09" height="39.45" as="geometry" />
        </mxCell>
        <mxCell id="3q0PopQuauLMCxIyagHW-746" value="" style="group;verticalAlign=bottom;movable=1;resizable=1;rotatable=1;deletable=1;editable=1;locked=0;connectable=1;" vertex="1" connectable="0" parent="1">
          <mxGeometry x="448" y="630" width="72" height="65.09" as="geometry" />
        </mxCell>
        <mxCell id="3q0PopQuauLMCxIyagHW-747" value="" style="group" vertex="1" connectable="0" parent="3q0PopQuauLMCxIyagHW-746">
          <mxGeometry width="70" height="60" as="geometry" />
        </mxCell>
        <mxCell id="3q0PopQuauLMCxIyagHW-748" value="pod" style="rounded=0;whiteSpace=wrap;html=1;fillColor=#d5e8d4;strokeColor=#82b366;verticalAlign=top;arcSize=27;align=left;shadow=1;glass=0;fillStyle=dashed;" vertex="1" parent="3q0PopQuauLMCxIyagHW-747">
          <mxGeometry x="-1.789999999999992" width="70" height="60" as="geometry" />
        </mxCell>
        <mxCell id="3q0PopQuauLMCxIyagHW-749" value="app" style="editableCssRules=.*;html=1;shape=image;verticalLabelPosition=middle;labelBackgroundColor=none;verticalAlign=middle;aspect=fixed;imageAspect=0;image=data:image/svg+xml,PHN2ZyB4bWxucz0iaHR0cDovL3d3dy53My5vcmcvMjAwMC9zdmciIHhtbG5zOnY9Imh0dHBzOi8vdmVjdGEuaW8vbmFubyIgd2lkdGg9IjE0LjAwMDI5OTQ1MzczNTM1MiIgaGVpZ2h0PSIxNS45OTI5MjI3ODI4OTc5NSIgdmlld0JveD0iLTAuMDAwMTQ5NjA4NDAwNTMzOTA3MTIgLTAuMDAwNDYxNzIyMDgzODU1NDIwMzUgMTQuMDAwMjk5NDUzNzM1MzUyIDE1Ljk5MjkyMjc4Mjg5Nzk1Ij4mI3hhOwk8c3R5bGUgdHlwZT0idGV4dC9jc3MiPiYjeGE7CS5zdDB7ZmlsbDojNDI4NWY0O30mI3hhOwk8L3N0eWxlPiYjeGE7CTxwYXRoIGNsYXNzPSJzdDAiIGQ9Ik0xMy42NyAzLjczNkw3LjM2LjA5NmEuNzIuNzIgMCAwIDAtLjcyIDBMLjMzIDMuNzM2YS43Mi43MiAwIDAgMC0uMzMuNjJ2Ny4yOGEuNzIuNzIgMCAwIDAgLjM2LjYybDYuMjggMy42NGEuNzIuNzIgMCAwIDAgLjcyIDBsNi4zMS0zLjY0YS43Mi43MiAwIDAgMCAuMzMtLjYydi03LjI4YS43Mi43MiAwIDAgMC0uMzMtLjYyem0tLjg3IDcuMmwtMi4yLTEuMjd2LTMuMzRsLTMuMjUgMS44N3YzLjhsMi45LTEuNjcgMi4yIDEuMjctNS40NSAzLjEtNS40NS0zLjE1IDIuMi0xLjI3IDIuOSAxLjcydi0zLjhMMy40IDYuMzI2djMuMzRsLTIuMiAxLjI3di02LjI5bDUuNDUtMy4xNHYyLjQ5bC0yLjkgMS43Mkw3IDcuNTg2bDMuMjUtMS44OC0yLjktMS43MXYtMi40OWw1LjQ1IDMuMTR6Ii8+JiN4YTs8L3N2Zz4=;labelPosition=center;align=center;direction=south;" vertex="1" parent="3q0PopQuauLMCxIyagHW-747">
          <mxGeometry x="12.450000000000001" y="14.27" width="45.09" height="39.45" as="geometry" />
        </mxCell>
        <mxCell id="3q0PopQuauLMCxIyagHW-757" style="edgeStyle=orthogonalEdgeStyle;rounded=0;orthogonalLoop=1;jettySize=auto;html=1;strokeColor=#66B2FF;" edge="1" parent="1" source="3q0PopQuauLMCxIyagHW-756" target="eO07zqcxzYHQwjbRKe_j-892">
          <mxGeometry relative="1" as="geometry" />
        </mxCell>
        <mxCell id="3q0PopQuauLMCxIyagHW-756" value="internal svc" style="aspect=fixed;sketch=0;html=1;dashed=0;whitespace=wrap;verticalLabelPosition=top;verticalAlign=bottom;fillColor=#dae8fc;strokeColor=#6c8ebf;points=[[0.005,0.63,0],[0.1,0.2,0],[0.9,0.2,0],[0.5,0,0],[0.995,0.63,0],[0.72,0.99,0],[0.5,1,0],[0.28,0.99,0]];shape=mxgraph.kubernetes.icon2;kubernetesLabel=1;prIcon=svc;labelPosition=center;align=center;" vertex="1" parent="1">
          <mxGeometry x="160.70999999999998" y="300.4" width="60" height="57.6" as="geometry" />
        </mxCell>
        <mxCell id="3q0PopQuauLMCxIyagHW-758" style="edgeStyle=orthogonalEdgeStyle;rounded=0;orthogonalLoop=1;jettySize=auto;html=1;exitX=0;exitY=0.5;exitDx=0;exitDy=0;entryX=0.005;entryY=0.63;entryDx=0;entryDy=0;entryPerimeter=0;curved=0;strokeColor=#3399FF;" edge="1" parent="1" source="eO07zqcxzYHQwjbRKe_j-721" target="3q0PopQuauLMCxIyagHW-756">
          <mxGeometry relative="1" as="geometry" />
        </mxCell>
        <mxCell id="3q0PopQuauLMCxIyagHW-762" style="edgeStyle=orthogonalEdgeStyle;rounded=0;orthogonalLoop=1;jettySize=auto;html=1;exitX=0.5;exitY=0;exitDx=0;exitDy=0;exitPerimeter=0;entryX=1.025;entryY=0.592;entryDx=0;entryDy=0;entryPerimeter=0;" edge="1" parent="1" source="3q0PopQuauLMCxIyagHW-759" target="eO07zqcxzYHQwjbRKe_j-731">
          <mxGeometry relative="1" as="geometry" />
        </mxCell>
        <mxCell id="3q0PopQuauLMCxIyagHW-759" value="&lt;div&gt;Infrastructure admin&lt;/div&gt;" style="aspect=fixed;sketch=0;html=1;dashed=0;whitespace=wrap;verticalLabelPosition=bottom;verticalAlign=top;fillColor=#2875E2;strokeColor=#ffffff;points=[[0.005,0.63,0],[0.1,0.2,0],[0.9,0.2,0],[0.5,0,0],[0.995,0.63,0],[0.72,0.99,0],[0.5,1,0],[0.28,0.99,0]];shape=mxgraph.kubernetes.icon2;prIcon=user" vertex="1" parent="1">
          <mxGeometry x="1085" y="174" width="50" height="48" as="geometry" />
        </mxCell>
        <mxCell id="3q0PopQuauLMCxIyagHW-761" style="edgeStyle=orthogonalEdgeStyle;rounded=0;orthogonalLoop=1;jettySize=auto;html=1;exitX=0.005;exitY=0.63;exitDx=0;exitDy=0;exitPerimeter=0;entryX=0.5;entryY=0;entryDx=0;entryDy=0;entryPerimeter=0;" edge="1" parent="1" source="3q0PopQuauLMCxIyagHW-759" target="eO07zqcxzYHQwjbRKe_j-732">
          <mxGeometry relative="1" as="geometry" />
        </mxCell>
        <mxCell id="3q0PopQuauLMCxIyagHW-766" value="node.kubernetes.io/storage=peta" style="text;html=1;align=center;verticalAlign=middle;whiteSpace=wrap;rounded=0;fontSize=8;" vertex="1" parent="1">
          <mxGeometry x="587.95" y="650" width="137.66" height="30" as="geometry" />
        </mxCell>
        <mxCell id="3q0PopQuauLMCxIyagHW-769" value="" style="aspect=fixed;sketch=0;html=1;dashed=0;whitespace=wrap;verticalLabelPosition=bottom;verticalAlign=top;fillColor=#2875E2;strokeColor=#ffffff;points=[[0.005,0.63,0],[0.1,0.2,0],[0.9,0.2,0],[0.5,0,0],[0.995,0.63,0],[0.72,0.99,0],[0.5,1,0],[0.28,0.99,0]];shape=mxgraph.kubernetes.icon2;kubernetesLabel=1;prIcon=rs" vertex="1" parent="1">
          <mxGeometry x="270.54" y="398" width="34.42" height="33.04" as="geometry" />
        </mxCell>
        <mxCell id="3q0PopQuauLMCxIyagHW-770" value="" style="editableCssRules=.*;html=1;shape=image;verticalLabelPosition=bottom;labelBackgroundColor=#ffffff;verticalAlign=top;aspect=fixed;imageAspect=0;image=data:image/svg+xml,PHN2ZyB4bWxucz0iaHR0cDovL3d3dy53My5vcmcvMjAwMC9zdmciIHhtbG5zOnY9Imh0dHBzOi8vdmVjdGEuaW8vbmFubyIgd2lkdGg9IjcwMi44NDYzMTM0NzY1NjI1IiBoZWlnaHQ9IjY4MS45NjcxMDIwNTA3ODEyIiB2aWV3Qm94PSIxMC4wMDEwMjYxNTM1NjQ0NTMgMTAuMDAwOTMzNjQ3MTU1NzYyIDcwMi44NDYzMTM0NzY1NjI1IDY4MS45NjcxMDIwNTA3ODEyIj4mI3hhOwk8c3R5bGUgdHlwZT0idGV4dC9jc3MiPiYjeGE7CS5zdDB7ZmlsbDojMzI2Y2U1O30mI3hhOwkuc3Qxe2ZpbGw6I2ZmZjt9JiN4YTsJPC9zdHlsZT4mI3hhOwk8cGF0aCBjbGFzcz0ic3QwIiBkPSJNMzU4Ljk4NyAxMC4wNmMtNi4yMTMuMzEzLTEyLjMwMSAxLjg1NC0xNy45MDYgNC41MzFMOTYuNzM3IDEzMS4zNDJjLTEyLjgxMSA2LjExOC0yMi4xMTYgMTcuNjg5LTI1LjI4MSAzMS40MzhsLTYwLjI4MSAyNjIuMjVjLTIuODEyIDEyLjIwNy0uNTI0IDI1LjAyNCA2LjM0NCAzNS41MzFhNDYuMzUgNDYuMzUgMCAwIDAgMi42NTYgMy42ODhsMTY5LjEyNSAyMTAuMjgxYzguODY4IDExLjAyMiAyMi4zMTMgMTcuNDQgMzYuNTMxIDE3LjQzOGwyNzEuMjE5LS4wNjJjMTQuMjEyLjAxIDI3LjY1Ny02LjM5NiAzNi41MzEtMTcuNDA2bDE2OS4wNjMtMjEwLjMxM2M4Ljg3My0xMS4wMjggMTIuMTk3LTI1LjQ2NCA5LjAzMS0zOS4yMTlsLTYwLjM3NS0yNjIuMjVjLTMuMTY1LTEzLjc0OC0xMi40Ny0yNS4zMTktMjUuMjgxLTMxLjQzN0wzODEuNjQzIDE0LjU5MmMtNy4wNS0zLjM2OC0xNC44NDEtNC45MjYtMjIuNjU2LTQuNTMxeiIvPiYjeGE7CTxwYXRoIGNsYXNzPSJzdDEgc3QyIiBkPSJNMzYxLjQwOCA5OS4zMDhjLTguMDc3LjAwMS0xNC42MjYgNy4yNzYtMTQuNjI1IDE2LjI1IDAgLjEzOC4wMjguMjY5LjAzMS40MDYtLjAxMiAxLjIxOS0uMDcxIDIuNjg4LS4wMzEgMy43NS4xOTMgNS4xNzYgMS4zMjEgOS4xMzcgMiAxMy45MDYgMS4yMyAxMC4yMDcgMi4yNjEgMTguNjY3IDEuNjI1IDI2LjUzMS0uNjE5IDIuOTY1LTIuODAzIDUuNjc3LTQuNzUgNy41NjNsLS4zNDQgNi4xODhjLTguNzc3LjcyNy0xNy42MTIgMi4wNTktMjYuNDM3IDQuMDYzLTM3Ljk3NSA4LjYyMi03MC42NyAyOC4xODMtOTUuNTYyIDU0LjU5NC0xLjYxNS0xLjEwMi00LjQ0MS0zLjEyOS01LjI4MS0zLjc1LTIuNjExLjM1My01LjI1IDEuMTU4LTguNjg3LS44NDQtNi41NDUtNC40MDYtMTIuNTA2LTEwLjQ4Ny0xOS43MTktMTcuODEyLTMuMzA1LTMuNTA0LTUuNjk4LTYuODQxLTkuNjI1LTEwLjIxOS0uODkyLS43NjctMi4yNTMtMS44MDUtMy4yNS0yLjU5NC0zLjA3LTIuNDQ4LTYuNjkxLTMuNzI0LTEwLjE4Ny0zLjg0NC00LjQ5Ni0uMTU0LTguODI0IDEuNjA0LTExLjY1NiA1LjE1Ni01LjAzNSA2LjMxNS0zLjQyMyAxNS45NjggMy41OTQgMjEuNTYzLjA3MS4wNTcuMTQ3LjEwMS4yMTkuMTU2Ljk2NC43ODIgMi4xNDUgMS43ODMgMy4wMzEgMi40MzggNC4xNjcgMy4wNzcgNy45NzMgNC42NTEgMTIuMTI1IDcuMDk0IDguNzQ3IDUuNDAyIDE1Ljk5OCA5Ljg4MSAyMS43NSAxNS4yODEgMi4yNDYgMi4zOTQgMi42MzkgNi42MTMgMi45MzggOC40MzhsNC42ODggNC4xODhjLTI1LjA5MyAzNy43NjQtMzYuNzA3IDg0LjQwOS0yOS44NDQgMTMxLjkzOGwtNi4xMjUgMS43ODFjLTEuNjE0IDIuMDg1LTMuODk1IDUuMzY1LTYuMjgxIDYuMzQ0LTcuNTI1IDIuMzctMTUuOTk0IDMuMjQxLTI2LjIxOSA0LjMxMy00LjguMzk5LTguOTQyLjE2MS0xNC4wMzEgMS4xMjUtMS4xMi4yMTItMi42ODEuNjE5LTMuOTA2LjkwNi0uMDQzLjAwOS0uMDgyLjAyMi0uMTI1LjAzMS0uMDY3LjAxNS0uMTU1LjA0OC0uMjE5LjA2My04LjYyIDIuMDgzLTE0LjE1OCAxMC4wMDYtMTIuMzc1IDE3LjgxM3MxMC4yMDMgMTIuNTU3IDE4Ljg3NSAxMC42ODhjLjA2My0uMDE0LjE1NC0uMDE3LjIxOS0uMDMxLjA5OC0uMDIyLjE4NC0uMDcuMjgxLS4wOTQgMS4yMDktLjI2NSAyLjcyNC0uNTYxIDMuNzgxLS44NDQgNS4wMDMtMS4zNCA4LjYyNy0zLjMwOCAxMy4xMjUtNS4wMzEgOS42NzctMy40NzEgMTcuNjkyLTYuMzcgMjUuNS03LjUgMy4yNjEtLjI1NSA2LjY5NyAyLjAxMiA4LjQwNiAyLjk2OWw2LjM3NS0xLjA5NGMxNC42NyA0NS40ODMgNDUuNDE0IDgyLjI0NSA4NC4zNDQgMTA1LjMxMmwtMi42NTYgNi4zNzVjLjk1NyAyLjQ3NSAyLjAxMyA1LjgyNSAxLjMgOC4yNjktMi44MzkgNy4zNjEtNy43MDEgMTUuMTMxLTEzLjIzOCAyMy43OTMtMi42ODEgNC4wMDItNS40MjUgNy4xMDgtNy44NDQgMTEuNjg4LS41NzkgMS4wOTYtMS4zMTYgMi43NzktMS44NzUgMy45MzgtMy43NTkgOC4wNDItMS4wMDIgMTcuMzA1IDYuMjE5IDIwLjc4MSA3LjI2NiAzLjQ5OCAxNi4yODQtLjE5MSAyMC4xODctOC4yNS4wMDYtLjAxMS4wMjYtLjAyLjAzMS0uMDMxcy0uMDA0LS4wMjMgMC0uMDMxYy41NTYtMS4xNDMgMS4zNDQtMi42NDQgMS44MTMtMy43MTkgMi4wNzItNC43NDcgMi43NjItOC44MTUgNC4yMTktMTMuNDA2IDMuODctOS43MiA1Ljk5Ni0xOS45MTkgMTEuMzIzLTI2LjI3NCAxLjQ1OS0xLjc0IDMuODM3LTIuNDA5IDYuMzAyLTMuMDdsMy4zMTMtNmMzMy45MzggMTMuMDI3IDcxLjkyNyAxNi41MjIgMTA5Ljg3NSA3LjkwNmExODkuNzcgMTg5Ljc3IDAgMCAwIDI1LjA5NC03LjU2MmwzLjEyNSA1LjYyNWMyLjUwNi44MTUgNS4yNCAxLjIzNiA3LjQ2OSA0LjUzMSAzLjk4NSA2LjgwOSA2LjcxMSAxNC44NjQgMTAuMDMxIDI0LjU5NCAxLjQ1NyA0LjU5MSAyLjE3OCA4LjY1OSA0LjI1IDEzLjQwNi40NzIgMS4wODIgMS4yNTYgMi42MDUgMS44MTMgMy43NSAzLjg5NSA4LjA4NSAxMi45NDIgMTEuNzg3IDIwLjIxOSA4LjI4MSA3LjIxOS0zLjQ3OCA5Ljk4LTEyLjc0IDYuMjE5LTIwLjc4MWwtMS45MDYtMy45MzdjLTIuNDE5LTQuNTgtNS4xNjMtNy42NTQtNy44NDQtMTEuNjU2LTUuNTM3LTguNjYyLTEwLjEzLTE1Ljg1OC0xMi45NjktMjMuMjE5LTEuMTg3LTMuNzk3LjItNi4xNTggMS4xMjUtOC42MjUtLjU1NC0uNjM1LTEuNzM5LTQuMjItMi40MzctNS45MDYgNDAuNDU3LTIzLjg4OCA3MC4yOTktNjIuMDIxIDg0LjMxMy0xMDYuMDYyIDEuODkyLjI5NyA1LjE4Mi44NzkgNi4yNSAxLjA5NCAyLjItMS40NTEgNC4yMjItMy4zNDQgOC4xODgtMy4wMzEgNy44MDggMS4xMjkgMTUuODIzIDQuMDMgMjUuNSA3LjUgNC40OTggMS43MjMgOC4xMjIgMy43MjMgMTMuMTI1IDUuMDYzIDEuMDU3LjI4MyAyLjU3Mi41NDcgMy43ODEuODEzLjA5Ny4wMjQuMTgzLjA3MS4yODEuMDk0LjA2NS4wMTUuMTU2LjAxNy4yMTkuMDMxIDguNjcyIDEuODY3IDE3LjA5NC0yLjg3OSAxOC44NzUtMTAuNjg3cy0zLjc1NC0xNS43MzItMTIuMzc1LTE3LjgxMmMtMS4yNTQtLjI4NS0zLjAzMi0uNzY5LTQuMjUtMS01LjA4OS0uOTY0LTkuMjMxLS43MjYtMTQuMDMxLTEuMTI1LTEwLjIyNS0xLjA3MS0xOC42OTMtMS45NDMtMjYuMjE5LTQuMzEyLTMuMDY4LTEuMTktNS4yNTEtNC44NDEtNi4zMTMtNi4zNDRsLTUuOTA2LTEuNzE5YzMuMDYyLTIyLjE1NCAyLjIzNy00NS4yMTEtMy4wNjItNjguMjgxLTUuMzQ4LTIzLjI4NS0xNC44LTQ0LjU4MS0yNy40MDYtNjMuMzQ0bDUuMTg4LTQuNjU2Yy4yMzctMi42MjQuMDMzLTUuMzc2IDIuNzUtOC4yODEgNS43NTEtNS40MDEgMTMuMDAzLTkuODc5IDIxLjc1LTE1LjI4MSA0LjE1Mi0yLjQ0MyA3Ljk5LTQuMDE3IDEyLjE1Ni03LjA5NC45NDItLjY5NiAyLjIyOS0xLjc5OCAzLjIxOS0yLjU5NCA3LjAxNS01LjU5NiA4LjYzMS0xNS4yNDggMy41OTQtMjEuNTYycy0xNC43OTctNi45MDktMjEuODEyLTEuMzEyYy0uOTk5Ljc5MS0yLjM1NCAxLjgyMy0zLjI1IDIuNTk0LTMuOTI3IDMuMzc4LTYuMzUxIDYuNzE0LTkuNjU2IDEwLjIxOS03LjIxMiA3LjMyNi0xMy4xNzQgMTMuNDM4LTE5LjcxOSAxNy44NDQtMi44MzYgMS42NTEtNi45OSAxLjA4LTguODc1Ljk2OWwtNS41NjIgMy45NjljLTMxLjcxOS0zMy4yNjEtNzQuOTA1LTU0LjUyNS0xMjEuNDA2LTU4LjY1NmwtLjM0NC02LjUzMWMtMS45MDQtMS44MjItNC4yMDMtMy4zNzctNC43ODEtNy4zMTItLjYzNi03Ljg2NC40MjYtMTYuMzI1IDEuNjU2LTI2LjUzMS42NzktNC43NjkgMS44MDctOC43MyAyLTEzLjkwNi4wNDQtMS4xNzctLjAyNi0yLjg4NC0uMDMxLTQuMTU2LS4wMDEtOC45NzQtNi41NDgtMTYuMjUxLTE0LjYyNS0xNi4yNXptLTE4LjMxMiAxMTMuNDM4bC00LjM0NCA3Ni43MTktLjMxMi4xNTZjLS4yOTEgNi44NjMtNS45NCAxMi4zNDQtMTIuODc1IDEyLjM0NGExMi44MiAxMi44MiAwIDAgMS03LjU5NC0yLjQ2OWwtLjEyNS4wNjMtNjIuOTA2LTQ0LjU5NGMxOS4zMzQtMTkuMDExIDQ0LjA2My0zMy4wNiA3Mi41NjItMzkuNTMxIDUuMjA2LTEuMTgyIDEwLjQxLTIuMDU5IDE1LjU5NC0yLjY4N3ptMzYuNjU2IDBjMzMuMjczIDQuMDkyIDY0LjA0NSAxOS4xNTkgODcuNjI1IDQyLjI1bC02Mi41IDQ0LjMxMy0uMjE5LS4wOTRhMTIuOTEgMTIuOTEgMCAwIDEtMTcuNjg3LTIuMzc1Yy0xLjc3MS0yLjIyMS0yLjcwMS00LjgzMi0yLjgxMi03LjQ2OWwtLjA2Mi0uMDMxek0yMzIuMTI2IDI4My42Mmw1Ny40MzcgNTEuMzc1LS4wNjIuMzEzYTEyLjg4IDEyLjg4IDAgMCAxIDEuNjI1IDE3Ljc1IDEyLjg5IDEyLjg5IDAgMCAxLTYuNjg3IDQuNDA2bC0uMDYyLjI1LTczLjYyNSAyMS4yNWMtMy43NDctMzQuMjY1IDQuMzI5LTY3LjU3NCAyMS4zNzUtOTUuMzQ0em0yNTguMTU2LjAzMWM4LjUzNCAxMy44MzMgMTQuOTk3IDI5LjI4MiAxOC44NDQgNDYuMDMxIDMuODAxIDE2LjU0OCA0Ljc1NSAzMy4wNjcgMy4xODggNDkuMDMxbC03NC0yMS4zMTItLjA2Mi0uMzEyYy02LjYyNy0xLjgxMS0xMC42OTktOC41NTItOS4xNTYtMTUuMzEyLjYzMi0yLjc3IDIuMTAyLTUuMTEzIDQuMDk0LTYuODQ0bC0uMDMxLS4xNTYgNTcuMTI1LTUxLjEyNXptLTE0MC42NTYgNTUuMzEzaDIzLjUzMWwxNC42MjUgMTguMjgxLTUuMjUgMjIuODEzLTIxLjEyNSAxMC4xNTYtMjEuMTg3LTEwLjE4Ny01LjI1LTIyLjgxMnptNzUuNDM4IDYyLjU2M2ExMi44MyAxMi44MyAwIDAgMSAyLjk2OS4yMTlsLjEyNS0uMTU2IDc2LjE1NiAxMi44NzVjLTExLjE0NiAzMS4zMTMtMzIuNDczIDU4LjQ0LTYwLjk2OSA3Ni41OTRsLTI5LjU2Mi03MS40MDYuMDk0LS4xMjVjLTIuNzE2LTYuMzEuMDAyLTEzLjcxIDYuMjUtMTYuNzE5IDEuNi0uNzcgMy4yNzEtMS4xOTcgNC45MzgtMS4yODF6bS0xMjcuOTA2LjMxM2ExMi45IDEyLjkgMCAwIDEgMTIuMzc1IDEwLjAzMSAxMi43NyAxMi43NyAwIDAgMS0uNzE5IDcuOTM4bC4yMTkuMjgxLTI5LjI1IDcwLjY4OGMtMjcuMzQ3LTE3LjU0OS00OS4xMjktNDMuODI0LTYwLjc4MS03Ni4wNjJsNzUuNS0xMi44MTIuMTI1LjE1NmMuODQ1LS4xNTUgMS43MDEtLjIzIDIuNTMxLS4yMTl6bTYzLjc4MSAzMC45NjljMi4wMjQtLjA3NCA0LjA3OS4zNDEgNi4wMzEgMS4yODEgMi41NiAxLjIzMyA0LjUzNyAzLjE3MyA1Ljc4MSA1LjVoLjI4MWwzNy4yMTkgNjcuMjVjLTQuODMgMS42MTktOS43OTYgMy4wMDMtMTQuODc1IDQuMTU2LTI4LjQ2NSA2LjQ2My01Ni44MzkgNC41MDUtODIuNTMxLTQuMjVsMzcuMTI1LTY3LjEyNWguMDYzYTEyLjkxIDEyLjkxIDAgMCAxIDEwLjkwNi02LjgxMnoiIHN0cm9rZT0ibm9uZSIgc3Ryb2tlLXdpZHRoPSIuMjUiLz4mI3hhOzwvc3ZnPg==;fontColor=default;" vertex="1" parent="1">
          <mxGeometry x="50" y="12" width="40" height="38" as="geometry" />
        </mxCell>
        <mxCell id="3q0PopQuauLMCxIyagHW-771" value="ingress/gateway" style="shape=image;verticalLabelPosition=top;labelBackgroundColor=default;verticalAlign=bottom;aspect=fixed;imageAspect=0;image=data:image/png,iVBORw0KGgoAAAANSUhEUgAAAG4AAABrCAYAAACWlrdIAAAKt2lDQ1BJQ0MgUHJvZmlsZQAASImVlwdQU1kXx+976Y2WEAEpoTdBOgGkhB5A6dVGSEIIJYQUml1ZXMG1oCKCZUFXBBRclSJrRRTbIlixLsgioKyLBRuW7wFD2N1vvu+b78zcub933rn/c8+be2fOA4BixBGL02EVADJEMklEgDcjLj6BgRsCOEAC6sAVmHO4UjErLCwEIDY9/93e3QXQxHzLakLr39//V1Pl8aVcAKAwhJN4Um4GwieQ8ZUrlsgAQCEMDHNk4gnuQZgmQTaI8MgECyYZPaFDS5pi2mRMVIQPwmYA4MkcjkQAANkB8TOyuQJEhxyFsI2IJxQhXICwR0ZGJg/hdoTNkBgxwhP6zKS/6Aj+ppmk0ORwBAqeqmXS8L5CqTidk/d/fo7/bRnp8ukcJsggp0gCI6YY6knLDFawKGlB6DQLedPxUE+KPDB6mrlSn4Rp5nF8gxVr0xeETHOy0J+t0JGxo6aZL/WLnGZJZoQiV7LEhzXNHMlMXnlatMKfwmcr9PNTomKnOVsYs2CapWmRwTMxPgq/RB6h2D9fFOA9k9dfUXuG9C/1CtmKtbKUqEBF7ZyZ/fNFrBlNaZxibzy+r99MTLQiXizzVuQSp4cp4vnpAQq/NDtSsVaGHMiZtWGKb5jKCQqbZhAFUoAciAAP8IEEJIFMkA5kgAF8gRBIgRh54gDkOMn4ubKJ4nwyxXkSoSBFxmAht47PYIu41nMYdjZ2yEmcuMNTR+QNffJuQvSrM76scwC4FCFOwYyPYwjAyWcAUN/N+AxfI8drCwCnu7hySfaUb/KuYQARKAMa0AS6wBCYAStgB5yAG/ACfiAIhCKVxIMlgIvUk4FUkgOWgzWgEBSDLWAHKAf7wH5wCBwBx0AzOAXOg0vgGugCd8BD0AsGwAswCt6BcQiCcBAFokKakB5kDFlCdhAT8oD8oBAoAoqHEiEBJILk0HJoHVQMlUDlUCVUA/0MnYTOQ1egbug+1AcNQ6+hTzAKJsM0WAc2gefCTJgFB8NR8GJYAGfB+XABvAkug6vgw3ATfB6+Bt+Be+EX8BgKoEgoOkofZYVionxQoagEVDJKglqJKkKVoqpQ9ahWVAfqFqoXNYL6iMaiqWgG2grthg5ER6O56Cz0SvRGdDn6ELoJ3Y6+he5Dj6K/YigYbYwlxhXDxsRhBJgcTCGmFHMQ04i5iLmDGcC8w2KxdKwp1hkbiI3HpmKXYTdi92AbsOew3dh+7BgOh9PEWeLccaE4Dk6GK8Ttwh3GncXdxA3gPuBJeD28Hd4fn4AX4dfiS/G1+DP4m/hB/DhBhWBMcCWEEniEPMJmwgFCK+EGYYAwTlQlmhLdiVHEVOIaYhmxnniR+Ij4hkQiGZBcSOEkIWk1qYx0lHSZ1Ef6SFYjW5B9yIvIcvImcjX5HPk++Q2FQjGheFESKDLKJkoN5QLlCeWDElXJWomtxFNapVSh1KR0U+mlMkHZWJmlvEQ5X7lU+bjyDeURFYKKiYqPCkdlpUqFykmVeypjqlRVW9VQ1QzVjaq1qldUh9RwaiZqfmo8tQK1/WoX1PqpKKoh1YfKpa6jHqBepA7QsDRTGpuWSiumHaF10kbV1dQd1GPUc9Ur1E+r99JRdBM6m55O30w/Rr9L/zRLZxZrFn/Whln1s27Oeq8xW8NLg69RpNGgcUfjkyZD008zTXOrZrPmYy20loVWuFaO1l6ti1ojs2mz3WZzZxfNPjb7gTasbaEdob1Me7/2de0xHV2dAB2xzi6dCzojunRdL91U3e26Z3SH9ah6HnpCve16Z/WeM9QZLEY6o4zRzhjV19YP1JfrV+p36o8bmBpEG6w1aDB4bEg0ZBomG243bDMcNdIzmm+03KjO6IExwZhpnGK807jD+L2JqUmsyXqTZpMhUw1Ttmm+aZ3pIzOKmadZllmV2W1zrDnTPM18j3mXBWzhaJFiUWFxwxK2dLIUWu6x7J6DmeMyRzSnas49K7IVyyrbqs6qz5puHWK91rrZ+uVco7kJc7fO7Zj71cbRJt3mgM1DWzXbINu1tq22r+0s7Lh2FXa37Sn2/var7FvsXzlYOvAd9jr0OFId5zuud2xz/OLk7CRxqncadjZyTnTe7XyPSWOGMTcyL7tgXLxdVrmccvno6uQqcz3m+qeblVuaW63b0DzTefx5B+b1uxu4c9wr3Xs9GB6JHj969Hrqe3I8qzyfehl68bwOeg2yzFmprMOsl9423hLvRu/3Pq4+K3zO+aJ8A3yLfDv91Pyi/cr9nvgb+Av86/xHAxwDlgWcC8QEBgduDbzH1mFz2TXs0SDnoBVB7cHk4Mjg8uCnIRYhkpDW+fD8oPnb5j9aYLxAtKA5FISyQ7eFPg4zDcsK+yUcGx4WXhH+LMI2YnlERyQ1cmlkbeS7KO+ozVEPo82i5dFtMcoxi2JqYt7H+saWxPbGzY1bEXctXiteGN+SgEuISTiYMLbQb+GOhQOLHBcVLrq72HRx7uIrS7SWpC85vVR5KWfp8URMYmxibeJnTiinijOWxE7anTTK9eHu5L7gefG284b57vwS/mCye3JJ8pDAXbBNMJzimVKaMiL0EZYLX6UGpu5LfZ8Wmlad9i09Nr0hA5+RmHFSpCZKE7Vn6mbmZnaLLcWF4t4s16wdWaOSYMlBKSRdLG2R0ZBm6brcTP6dvC/bI7si+0NOTM7xXNVcUe71PIu8DXmD+f75Py1DL+Mua1uuv3zN8r4VrBWVK6GVSSvbVhmuKlg1sDpg9aE1xDVpa35da7O2ZO3bdbHrWgt0ClYX9H8X8F1doVKhpPDeerf1+75Hfy/8vnOD/YZdG74W8YquFtsUlxZ/3sjdePUH2x/Kfvi2KXlT52anzXu3YLeIttzd6rn1UIlqSX5J/7b525q2M7YXbX+7Y+mOK6UOpft2EnfKd/aWhZS17DLatWXX5/KU8jsV3hUNu7V3b9j9fg9vz829Xnvr9+nsK9736Ufhjz2VAZVNVSZVpfux+7P3PzsQc6DjJ+ZPNQe1DhYf/FItqu49FHGovca5pqZWu3ZzHVwnrxs+vOhw1xHfIy31VvWVDfSG4qPgqPzo858Tf757LPhY23Hm8foTxid2N1Ibi5qgprym0eaU5t6W+Jbuk0En21rdWht/sf6l+pT+qYrT6qc3nyGeKTjz7Wz+2bFz4nMj5wXn+9uWtj28EHfhdnt4e+fF4IuXL/lfutDB6jh72f3yqSuuV05eZV5tvuZ0rem64/XGXx1/bex06my64Xyjpculq7V7XveZm543z9/yvXXpNvv2tTsL7nTfjb7bc2/Rvd4eXs/Q/fT7rx5kPxh/uPoR5lHRY5XHpU+0n1T9Zv5bQ69T7+k+377rTyOfPuzn9r/4Xfr754GCZ5RnpYN6gzVDdkOnhv2Hu54vfD7wQvxifKTwD9U/dr80e3niT68/r4/GjQ68krz69nrjG8031W8d3raNhY09eZfxbvx90QfND4c+Mj92fIr9NDie8xn3ueyL+ZfWr8FfH33L+PZNzJFwJlsBFDLg5GQAXlcDQIlHeocuAIgLp3rsSYOm/gsmCfwnnurDJ80JgGovAKJXAxCC9Ch7kWGMMBmZJ9qkKC8A29srxnQ/PNm7TxgW+YspMdUkaAZ309RWg3/YVF//l33/cwYK1b/N/wJrOw0JSqibKQAAAFZlWElmTU0AKgAAAAgAAYdpAAQAAAABAAAAGgAAAAAAA5KGAAcAAAASAAAARKACAAQAAAABAAAAbqADAAQAAAABAAAAawAAAABBU0NJSQAAAFNjcmVlbnNob3R1DLnYAAAB1mlUWHRYTUw6Y29tLmFkb2JlLnhtcAAAAAAAPHg6eG1wbWV0YSB4bWxuczp4PSJhZG9iZTpuczptZXRhLyIgeDp4bXB0az0iWE1QIENvcmUgNi4wLjAiPgogICA8cmRmOlJERiB4bWxuczpyZGY9Imh0dHA6Ly93d3cudzMub3JnLzE5OTkvMDIvMjItcmRmLXN5bnRheC1ucyMiPgogICAgICA8cmRmOkRlc2NyaXB0aW9uIHJkZjphYm91dD0iIgogICAgICAgICAgICB4bWxuczpleGlmPSJodHRwOi8vbnMuYWRvYmUuY29tL2V4aWYvMS4wLyI+CiAgICAgICAgIDxleGlmOlBpeGVsWURpbWVuc2lvbj4xMDc8L2V4aWY6UGl4ZWxZRGltZW5zaW9uPgogICAgICAgICA8ZXhpZjpQaXhlbFhEaW1lbnNpb24+MTEwPC9leGlmOlBpeGVsWERpbWVuc2lvbj4KICAgICAgICAgPGV4aWY6VXNlckNvbW1lbnQ+U2NyZWVuc2hvdDwvZXhpZjpVc2VyQ29tbWVudD4KICAgICAgPC9yZGY6RGVzY3JpcHRpb24+CiAgIDwvcmRmOlJERj4KPC94OnhtcG1ldGE+CpE/tVUAADqrSURBVHgBzZ35s3VFud/XOe88D4AKDoiIAw6gIgqKiKgIzhqTq95KriY3v+a/SaVSlVRp7r2V6FXjPDAojjiiOACCgiCTDO88T/l+vk9/1+693n3gNalK3T5n7+5++pm711o9rd5LpxSGSehBS0tLc6WU9bA+36fniCaZZ8Kbli/Kw/LEyWF46Iljw8/uPjD85O6Dw50PHB4OHhGwBfR87lmrh9e/dOPw2hdvHC5+4YZh68bllMqOSk75hx44obc3ZcQ9XZ/ucZ4J7/+WbunkyZPWDuWmTFbKAyfEoOQDW4nORPpKeejCh/IeFrwZnTGGo8dPDQ8/eWy47Xf7h9vvPTz85k+HhoOHVGF9G0NFaka6Li8vDeedvWa45EUbhje+fNPwqgs2DJs3LA+rVIdTu3uZvS6W3Nn9dGXBjV09z5QRT2UDI/T4SU/lueIioMgWf/cMFuGnfDH16dCpIlOMnh9p6uHosVPD43tODLfesXe4/Z7Dwz0PHR72HlSF4VBXkpBSeY3Gurb06lW6AlWBLz9//XCFKvCSCzcOW1aowKk+yfd6BdbHf41dPV3SoSe/yM/BGysuBCD3aRDJh0nSPc40HdwIWSkOr6mM4FOeCntCFfb93+wbbrvz4HDfo0eGvQdOuswXlr6I63up6hCdqUUuulZE3RLWrBqGc3asHl5x/obhmks3Dy97/nrdQlfpCgThdFtNdAZfvT2g9/k+3bMKnJhwpr5bEgFhJEh6GsN0CpvmwTnTENoePzBiwqGjusJ2H1dl7R9uuX3/8MhTx4Z9uiVSDEarh7m0CbuvEW9MzGjXrF4adm5ZpQpcN7zjdduGi567bti+mQqcd2CvVxr2Sg4ObqeCkyvBKUxZ4p52Ckv+Ga+4IBITonjPvIdPyxcZOOU55XXoyKnhz08cHX5176Hhxtv3ugNyUDBXmL585Zyqq6My4SAdS81WmQ3HCurLldc9y2EoZlyBWzetGl570cbh6ldvHi48d91wzrbVwyrBe/3jg0gz23YZT21a5IceZxHf0KQs8gKfk6tCghUkTliJuGcSnNAkDj/y0zSw0E3LDusKu//Ro8Ov7zs4fPuX+4c//eXoAOwkermiIIaDgiuhknPpBnLU44AEj1aX3ISjR0iowG2qwEsu3DC8+ZV1C33WdipwVtm9j6CLP8Krtyl8p3F4LKINz56mxwduGfrCvIXBCF2LClKUJD/F6ctSTjyFAyMg/Zh6ifc9enj42e8P6rZ4aLj34cOuMHifkrPltkJutWank14CrrhFZtbB4V3qK9Gu0FMCjGRjeelBnULOrXKHbqGX6QrkKqQ3eo4qkN7p/6u9zZCRT8+vL0s6fgte4tNulSHo4564h5OmDGYJ0/wiHLyD84/oarrvkSPDD393YLjjj4eGu/58xD1HaOx0E1e6JWd11AA4u6TrCoIvGQHnKgdchVbk8lmldvxF18uF986tq4ZXa/hw2Us3uSLP2nb6M9C8Rdj7KWnKEuL05BPHf73vevrQBQ86d056BisRg9MThiZxBEVIj9/zxDHc/h7SM+ym2/cNv7n/8PCHh4+0K8xU1RiUxHG4myrB6+3irwpQvi6imcOMbopKQZ8Ksu5m6L7mvC2NcfChBkRFE3SnHM7WM+/lL1g/vOFlqkAN6OnEcGtNWMn+Hg5u8qFLHN/GV8FbyZ9jxQVhyiDCFsGfriyCoxjj/MMah9Hp+LZ6iL/8w0E9w44NBw8z01G3RPMj13tQ+RiDN6uoanFhegF++I8V7xppV2irHl+tKKC8+eZbRIV+amAceNbW1cOF560drn7VluE1F20YdmxePaxZvXKFmGX7WsmHFMdffT1MYeCl3LdKAAlxUogCDwH5pIkTgp+y4IHCNNTDTx0dvnfHgeF7v94//EVdfHqOdDpCFz5cInDFeVTUmBGwXXsNVWVGUraVtYLiaRgocJuxmefZyTKOqq/x7G2DftRT7OhtcsVd8Ox1w3Wv3+KZGJ6JazW8mAbo4pMpzylunx/lCbiI7rSK64n/mnQUDA3u2q8x158eO+q5xFvUS3xijypMt0kbgtf1X2khu5KgwtXl7IBihHEbsDA7XJg1ykKpa6jwVNLofM3qAUiDKjcXD1MHx3Fx6+1qxZKDukvuxDB1dtF564e3v3aL5kLXD8/RwH7NauZDY0NVnIm6r96mDnxGSWjnBuDTmu2Zk0554L2UOJWYCrtXz61f6XZIhXGFHdFtsuiLj3nYtqqmcns5pOdrD7dKoXJdEfZ6ud3U5SNhFRffBJUEbeZAkkVj/i5vhAJUhbrEhKt19UB//MTkriBgqOIHeqFU4MV6Bl6lW+grL1g/nLtzjW6t8/bEf02KK7/3G/D4ObxTHprkx2ccBWG8iDiETxdzS/y9eoY/V7f+R+opPqiZ+2NUmJk3F8phuG+URVqfOC6KjeWTBmM4La7xJKqMYjFCGqUVp4xaAlFfoq30PC6lo92if9G5a4btW9YM9/z5cJutKb7IKn3rm9pNQ2HGbLNWHy7V8IFhBB/mRplKi13WolrUTN4CG1NxwU8+fOaGAykEOSGI5KfpgvEMOzXc+eAhzdYf0FV2SGOyo15ymaNpysZIDB4DzlQwfzzj0MrtaKUbjt1N1njVKBbpXfzhBR/FYVvMDUcF01aiSlr6ra/eNLzr8q3DL7X68K2f7x2e2ndipHQiNInnS4dN65f17FuvymNFYvPwnJ26hapz0+s69SdlgRH3oacDvroHhKgnSLovI81a2CFdYfc8dGT49q/2D3dqaeX+x4751mKa5q/QExskB5rXmJ95tFKzFjx6O5UWBnAyn8IIP3JVlaSUFk54OgV9gnk2QO8wymUfxc87a+1wwXPWeQ3viz/a43lTL4LFqaM+YVq0yDqg3jIT4qwR/vz3h7QeuGF40ys2a3J7jToxhd/7PulpDCb2JSS92kY3x0CUfOIpDB7cEqmwmzUO++39hzQmO+41MvxpZ4HUeJZgTLErW6Xh4KA0IuULJjwSuJwi/fU6AEveOKAWcM5AyGsQXnyMRlK6hd4akW9/4DQtC134zJhcrytv4/pVwxe+v0vDmWNqtOWnwocnqeJjnSynYHv2n/Qi7+91y73trkPDW161yWPBs8W3xoGdPp3/oV4UoruvOIxZKcRQyrPi/LWf7Bm+95v9w5NaakmnwwxxIKysAHGlC4yCygtoFKUQCx140SExSC5TSwB/xjPURUeRGfDdGW69kdUqxjJGnCLx1Tm7LAWUHqptKi9hWTzp+tNrZPX8s9/d5UZ7/HhhzBpWr4/VrQoVmDHsLlXgbnXW7teS1K0aEn3wTduG1+kZyC11tFksbXOET2LbUk4cxisuxFPCOINKu1ut5p9u3jX84t6DHodZ6c7MohUUZ8WJOEH/zDnaUU0ZV0bSzbk4jUvWulGroggfMwFfYFdl4283m7/KFENs+U0u+NZz5NvwUmGmRRbEFeb0bLZsWr80vOmVmzQJvTx85tbdw680RccMkCvZulorc2nZjmXxPikf7tp/fNjzxxPDoxrX/s1bd7pBUHmE+G2admH7Co4aVDFNHKT5/NLw1N4Twxd/uGf4+T1VaeAtYbwTFVth4PqzK+DdUFwJdnojAY8yHAOS/1NpYBMasRDNChwlqqzSyS35Smn8zJh0cIQFKwgtBzhynR1jZc3f+pBRiB9guVbjs0tetHH4d+/cqVveZg8BwEnjgV+Cuuu+VTeRBlstAajAx546MXzue7vdA+eiQE5kgdynR54dzjI1uFJIGWOZ36nz8eM7D7iVBR9nQD5ysOb66i1oyHaGNW/FjYiB8UgfxrBouIB6dmlxwK3fiNewkld25As/MnOMSm6ZDwIcG02PB6z5CNbMmrz0eeuHj71tx/DO123xbRT4KAsm0AMkhpbYSdKVAZ99Mzdr+m/3/hOjDCM23MgF1qfJj1ccmUUBuXRGGEjTU7KKNoR2hvhZbCXNRPBmLHEJLdwxLf1Jw4PWb/zGd8RRGem6dRVO2d2loWl0SqiCOnzlgfExj+AR+4pruls+/m1509gQf801IimwrDvbC561dvg3b90xfPiqbcOzd2jFwPXRdBnlFI/oP6uywuNKu/+xI8PdDx6eSKR+CxsOpJMv32g4QEEyFJIOEmUYfUAzIX/QQ/W4hjK4wTx1uaEQuMzRMUswCzOhuGOlcFI82ABU+8zAKhPn+Dd6+7oxmku3S6l8b+1METvouTE5fGZhhrd2zXLZiVauiHJg+KIji6zvfeP2YbN6nF/84e7hwcfpcWIxFdP80+mPDoaqzJKE9tiu414hYffZMOfDkjfVO3Uz1zmJgokh4n78xN5jcnBdbQi045wYhg1rl4b3XrFteI3GKWfuoFKHDUD/rF7afZrPRA5m2SAMd7blJNAKA9bHFVsYunDkCtBcgXAAp+g3rFsa3nrJ5uGSCzb6KmkkZxQxZbVdM/8EZPc+AZYKpLPy9tdude/wC9/fPdyjqb7jx0vveUWbbuaHfuBoTfLYoMG9pgS1mKxZszMO4wA8yiWGA+nj8ijTWPSgvBpdnrEAylnWf5H2aNC1pZX2YWos+AmUFc9h+PRNT6qXpf51WoRrQpWVSoHItqJDcbDZXdq9USOVU1hqeZ02wf6rq7YPzz9n3ZwPo8PTxUxfcUuc2hCa3pbNG5Y0R7nZz7vPfGfXcMd9hz2u5eqiglLJGFEmWvuyRck92rG2WzMzG7R5F76R2cuI3JTZ02TCPAUgkmZbwW/uOzQc0vMtfk9svcKxxT19iqJAyhKv19V6xcWbhutfv9Xd7JkAGYwQ/qWD6ctWp31dGoUUBWOh6ehAsOXuAxorvVBLL1QiO7q4nfNZlJ7CqDRCdK/c4m9wNqxb1l1n4/DJ68/ysKG6+OhVPMpmaYtd1B6aKw3GI08eHR54/Kjz4BmuMtLxFXxSRnrsVZqhANOYq4JNqMd9KyuZYg0t7cdxviIkAsOL8j6dPLBtm5eHt126ZbhSFbhuTePbrjjzsQGltJhEAeyu0MXR59laWnmXGsMrteUgFdAbvSgNbFEILromvRIujeIl6nH+7bU7hms1YN+u2+g0mNZ2UILMU8Ojes49oE5K+LukVWDSKYtsc45SAc6Q6/l26GjVGo5BJr4qJ8VrUMxXTnhWyfx3XwYHZtDf88Ztw8t1leBoZIzBDp051etqrTwVBS4YgFleoSGwS4uGgKyE2BcYcdLgJB8n9WXhkbjn1adZ4nmh5jf/5uodw7tl0znaozJqECW5kvhzvS159okhAXe3aYgOiSkn7YqbKkoBH3p79z50dNh3sLqTdWEXa5QRymkhtBQkDf/ICAFlMxy1VFXa+6/cNrzgnLXN0NIhPIwvfdTuGwu0mc+t0zP2Ta/YNLz7DdvGlzvi1Mgljj49LHDi6LYoHX49Dnh94Pl4rp5XH3nLjuEjV2/X0KGWdjDMOuNf/vABbpBJT+oZx7NuGhb5DZgrDuQYM4s1N6mBN9NcZtgExG3235gpcTPaqqjke2V6GGkCBrDkwSac6y7brI05uue0UC2z+NFzhKSHoRaB2xQLmVT+s3SrZCtdnEvcp4ti3uYeRnqRnsB7XuQJwHr8grJHc3l412XbhhvesFUdl3I1eG5uUrxoFMuuB7SH9LHdR01qHCq1hfBOjDxzmxpV+drcw1QXb8dAJBFIMzt/ty54BBBDu5jfDKsvL75V5tvca7YOV2j5Y6O68sgTN/+JqZH4Dgw+0FN03llrhvep0i48b50XLovjzKnkg590YuD9p4f3+gEnBEacNPRzQXnuWLyU8vCTx8cZJ3SvMV7pExsZAz6injX8omfSvW4pG6+4ABKjxC6NL9iGIG7FTLCZeqRmOfD7AJ8+JB/+MTr54LL1+wOqgFfqXbaMC7nCitvs1mj7m17M3t+g2+PrXqIhibcclEMjA959OvnEfRnphKSnOqa8j4MbGHerB3UVffrGJ7Ure58XmynzRHqzp6dhbXOPnnNMchDiL3CClzRlK86cgPTHR4568N07qdjCWQa69zdC5hLQI6BXgHSUWAQv2Knh+ZpO+ug1OzwwRYcTrdrC0xe+5IPPBMDb1Rm5RgNtXpkiRE5kABtpyXShh/dpUELfw/t0j5M05Sx13aUF1P+lMd3t2hFAzzw6gyfGjipZPmGMzCwKFwo7xuCTMLWHMs9VUhAlE0P3R+0yZnZDkpozwkoQ+M7ku2BGW06dYc9SvSygoenj1Xo+vVSdlfddud3TShFTOBIsALccnouMndgix5Xa8w6/SJ7m45geTjrw0E3jKX7KA2c+l8n4//aNp7SS0lUaNUdIY7cZZRn1iL/vffioGqumUhTgl48B3RdwN9FFyvJc26VLl9aTwGQwuIYgLco0hPCJEaELPPlpbJ5o3gKsma5ibHeNrqZcSVVcxpLmucZ47QLN3NAZmYank7uSjlM4PBfBFsnac+DE8B1t4/gfNz3l1RR8iI+oK3j4r6np+ktaJWAy4czelkV69zpQPs5VThXZJQaMLRzgaiGI7oKks7r7lOYy2aHMFbAosMtpi96C2awFQxSIYlEmcU8L7Czt22dW5XHtx7xVDmGcY1WaGHqSHquJEJ7hk3TyPV/aB+U4lefQSoHtedizqEH0NOYnrbgz3fjzPcNXf7J3eFhbOWZBPkOm/uK90YbAaakKec4xUb1qeWbPjFelsGucq0xhjH5I0zAP6+OQ+kBLV12LBeeKvPEX+3xbWMlIHHDJhet1dczGV4ucOtUBHAbn77ti6/AXz6If8u7nKEVP7Bs/3asdVGv0XFwzNirosCOhl8Xuad5V+NbP93l+MDjT+GK97PhWXe07t9REc8rjH/KIgN8j6jV+SasD3/7VPs8yVRkV1YL0qUpT9Y1qqdT/I5Yn2vE7FbhFb8j2oZcLfE6rFBI/qH397p7SxhEm4aVJWk61fjbO/PHRY/pQyaN6TqWVoRpzcbyue61m0tPz6x0qlDH0cCaxed4xFtqtZX8qqyTTaE4OP9UezufqlvmBN2/3FdpXWs8H5tj1mLrcLMGwvsg2+FwLlHPDsruFd+LkZm/qObV5vuX3/OkB/vnxI+qE7B5+pOca4127Cl74ywGeQMs7ltGKDFcRXqO3yZV294NH3UHpKy71YibtaxwO9IXcknYfqLEHM/T+kzHeqlC2yl5BuVEb3pRSmfmM8NIQGKu9X9NthJX003YH9xopDT6fBGZEeN5d+9rN7nEhzXLkHHphN2q3GRtw663VeUeHB/j7NKa6+Zd7hx/89kDtmUGG/rmVWdMx3TzbiKf6AMZH7Nz67+qEsPnHkxQjHyX0LyU7/uUrLgD+KHNKeSoQX1Jx96pDuO/Q/HNu1ghKIfQ5bZKZIgaN3LOR64AdtCD+LYg8OgmBMuKGizKuNxe0ChANz5M7/3RYt5Q9miU44mcjCph6EiNjquwW7bC64fLtmoPc5I5LX84W9y/8QMsp2kXlxV7x68thzy39p78/MHz1x3s1XuI98sLBfa45m0DaKo1f4ZOYAhrIT3Wuyn/96pPDj+9iD05daeaj8uKpBL7Sx7HkGQ6DyCrzgVguOvk5p07ObHG5ivMdvee2LsSRf9l9zC9rYERdPCXB5UraNmKUAoEYbchGPafdpqoBCIcVBgy98Wf73HtCmSgSxRIDjz6ORc9Lhu/Toi3nlNAxcZBYofrWzqbV+x87fJrRJ+QFtgd8/nu1qVXoRQohl1tqCzMUsCEh+pU+rJ2dGL57x77hUxpYs6e0ZpWKA+w6UqcbS7MrNxVvpylUtvwIj2rgD2hhORPOJXemTxrQeKvsFaUFM3dmpjMaMwZIXbnQCErZAVzyJZxSclbOUOXB0T/jnJv1fPm+bi88Y1DE9NC0NHnSUdJplauVacJ2nfYksji6RnkL0pduXXresP39y7ftG57UNF0MpvPA6UP/W1c6L6JQiYSRN2pZfwGryOWLvp7ce3z4hvaU/uMtuzz57qWu0CRudo88YaSyyFNK2UI2TgTZllr//LVe9swwbEZXeoZmbhwHErcahgFsEFLWwcTIMnM51Ol4rZwMolVqNCYMnh8iKnAZXWf1wn60W68PHxxblvHh0VUYsChKGn1YFOWd7PdqyWQ2GV2O4BWuW9Wzu0nd8gOHCsaw5ms/3uP3y8sZTUEV08K5lcW+VlJ5BDrw7NEzWpX/ue/tGj6n7Ql/VgeJ+rcEEZk+cRk5zyMiIRjxmt9clrvLkhsgDYzXrGO7+UPaKgT43BUHgCvi0V3quVmxurqA0+sJo/nb56wlQEMwflPSNPCCB39K44gH1Gv9/Pd1a9MmJPabFE0nozFDWfNofOHP4PzqV28Z3vaaLW1vY3kGPA6u+fpP1VnR2Sg8q797x/7hO/rQMQkflODPPnZa8rGvoDM8yeLZ/Cfp+I83P+Xn4192dx2HpqP5Jg0PeE4+iENe4RLPdMam2IkOfs4dZMK54YOgYNpKzioOIMS7dQ//g6ZeaFG0SLOnpiXIFY4ClNmhFcOLvD+tzMiNZ/EpHsDB4zbza22J+NJte30F9jx6BaMX5QRoCcznXXfZ1uHyl22s512TK7Y+yIZOyOd1hXxVVxu3fpxgnSBGh7Js5Gf7KHJxyThKh0pvIX3qW08N31blj8dPCcf8FI++wDyAzT77osloaL5TWX8LKVrwzQtS/hTzfOM5h4/Ajz9iO7GvuABA2KX7OHOUpVi1nDIG8QrKiFWlWyw+Fay4klZCMUJdQjtSwwDkfH1xa/vhb/f7NSa2AEbBoJDvdUuaGJnP16Lru/VCBtsFltq9A/61gfeweppc0ewgg0/TG4VGPUs7aCjvA7fVX+qAnE99a9fwo7meI3z4a7YoYT3Jo1exLFbKGFc45k9hKzce5cpbNHygEiLvyvOcSwelmM2+kTc3AGccsUer3VyqBBjFWU6XCBpnKd6sLfWEj+IQ+qvRF5OAKC2+TmlrmjoSN2oW41l6/YgZ/rWT7QYNbYxSmejFtNCrtSX8vW88oVvkcb81RANBAXp77vGRs54FNyPlSy0UnYe7XF93a2cbbyQxd4hfYiO8Yz+UhGZ14wmkmqnhEhHakkm5Qhzl8spaTRWx1/QeyWeCgXXJsQ5aQ8YH4zgOXjwQH9IMB4oSEFyOUIZWmkBSeRgQrMMYBw91R6D5hIV3GztT3Hl1iVvbXeqyc7UQ4B3+iV3QfWEQwwK2K/A2Ta0yR5uGKHYlRbYgE0cpBsvwqDuiF4AKYywbX3Ri5+yd2djsNaKFjPrH3lRwz4u04dirPwelDx05Uc/lgozf8cU4jsMJdEzufJAdy2JgHonFnOYADONRXfm0hIIV76hvNKObkZWDRYWiNY6K6azwYuRX9Lx7RDMsdOEJ4Z+4h5F2BYgpr+++U4eoXXHx5mF92ylGeQVp5I6A4lH+WCST5oFxLrdX/zUljWW1BG36FW3pms4GvuCvQnjH3sBbsaMGw5/6M2+leYywEJuOG6jxA/HYq0SXA6rlP+j55lYmmaMyqNIUsg9Gxcp5ve1cow5NZ4TAu4zt+HR44BxTY+FV5G9q0pjNoX0YHQUjBevSpRHFlrz3ajL6FTr5wIceGFFfFOpBAmUjocQZiSUx041sAoUy1vrjUDgAauXWSQyTH0vMs+hqGawIjGd6UiWzeChnPsXJYoVBR+i3aswZd/Y2w9EVB5BWztI5B8YUixKAHiqium1Etd5qGYVHeeVhCC6faj1ACK1t9nzKo8INFymrDgqnDc3NJYoa5y0KgRMzGf1iHVvxIU02P68fnKOPtWk8Ik401nNkjcaEhqBCGqn1Eyj2BKtkK9dsJ1+2BCOV2mKE0RD0h7/ANw/FSox8kIRi1MODjx+f66CUzNJpfMZxe2RsRWwDGnMzhTEGYVPJUYQw8mCTaKGImxEFj0Dr2OE6z5fQwoGu+5c0dUVrQxeckcqd8ZFsy0W8BVo4z7tLtSL+Hk2LMT1GoNx6NgmjO8U3lNgyC5VmiYpWTVlEuARFlUAn4D0/8xA8wT1G4YBnPRSjRvjFaMDxAOTkuZAOaLKZ8SchdhafbjhAT4azjemJFSbKVXIElIRypNIo3UAzxkK2I0rb0enmocZAafiGffGBYb25w6kNzCuyzhXc0uH071RqOXLJvbCrXrnFA3QG6oRyblVPdLMjpKMtsOiZNtCwkZWTEla7362yFAsXHtADKgmKT08YOHqo0aeikWFiWMvI4gXfEgX/PRqEcyJTIzVJvtw5gZANLXdrg8sxL96KkWBmAtPuY3lNSzthEVsbIfpR2RKHemJV+sJf4I3ac79Di5WxG0yutF9pOuxzeln+CQ0XCHa0U/NfgfcxTr/hDVu8npZV+TgHHZAVm+pOAiwaVMxpsby8eNlLNg3r1+raa8XQ41r7R8lmovKFAJzQ8zes0VtPozRiwYEZrrT1IxYferV3qbPYWJpvvtozjoeh1t901YEVxBKISXAfdZ8pawUpwPxSBFroRppWyaEWdvFSghcjrtGZyGzH87wjfJpwlk5+qHWzW3RCbB3nK8ZdCF5A5AND5PmajH7vG7fqubfW+yxTsdgBHjjoiKZwRv/wIM9i76s0J/qJ63Z4OzvbLqA1sinJVBh5k232BgavMY2OxkEHKzCT2cqKa31zm2SOlGm32AY5wRVHL5LnG7dLBEcQMSwQl+eZjQYmQZSMb5OCWfJG+lHYiNsqWJTsmeSduo9ojz1TVxypW4NNs9UX7y2cGL6pJSAOIM06G3Dr0BxEPgF9IxP+r9DeTPZbPlu3vISmovAEQWVMzl/jGZw1es5dqA7Pv32HXrLXa8M8N+0b0bgKoG8yTcNXs5W4/Fc6RS+vkliZqowSWRLtY/RSqEbFeWgnvFhsuYKHjyuOrrhfpcrLHTaqtcSmAA2kjC0hZm6ps4oOrMkm62ChGOiK1oNVUl+sHcccGcG2A54lvCDBEUq+tTURyON43y//cK9mMfS6bYwqa0cjIofYzkKWkNlIxMLrtdo7wnZwyrjC7JbwQKsCmX/hzDiy0Yle6seu2Tm8X52e885WIzA+MgpvRlO+qKup7BV744PTEgZFh+phFp+a6KZR6CN0+HO7ZNKfgE3Fx69Z1RTLfdo34mUPIZeIZiICDUOpKgNgBtFcTKEhmHklRyEt2/gOrqgPaE2NK4L30uB1vjbBcsu8SPOOXmdrRAxAf/ung8OX1dPktpEWR3GMmKaTp5xdzmxS4ncGeB/PtkVZ8xAfPEW6IuUbAJiArANyUM37tc/zozrigvMqdUG7rJE4PdK3hCPwGmffnZqcjPHgb/82PHQG5I++2DzEpmBUoiz2q+3rtDvNT+4/1JYR4EJwMzRPcxlNcUIcFZP0LWOWMXMXUBYHEDc6tiC8Q+8HcNIqV0Rw6H5Tke/WpqDn6E0Xgsn0RU+XPSXsF2GvJzShM2L3NS3DWN6c4b0CTkvgNSgzhqbp1PxagMAonwun3Ah4hevjb9vp02L7Vfi4oGIzETV+arr2fFuaa9L/tJzmb/IOgETLXhaGSMzkJABfpkWzJ/IAE8sqw1BCVYhFO59WOWekMmkfwe8FU2YHm+cp3wYzr8gLjW5dXSviirhS01bXXFKn+EBWPLS4KwO+oecdez3ciVLJNFhWB0yeK4Zn1Yf1WjHPuyUuafzQItLR03aMxjY4qE3PjTqohrdoOevkUv1SCI3PqhDBR3/2CfzlYArtU2SRRZjSRCOdE5S3srFY/lO1MIHOwjbl8dmyHm/D7zQM8NayxhCewjBzkP1nwS6xzLxgCMTyMIw0PPwpOvjAg5kNTpPjRX9+5wZnWlGhJ6AUFcrqNqcQjE5phrG17p9v3eV5zX4qqKdPOkaSF1v1EgefZMdzlR+JgCX6lrMbEsgKZWWl++84jQZ2qTpWf3+DXhvWBPd4MhCU2N58ZsGVHXniK0I9w+KD8pUrmDLYwIe0/hjPsmuA8vhs+TiLdupRMsFcDY1axSAk5FmGPpM0eeHA30Ksc8FUBLTKhMNt8HmqrBva2lnObwSLEIVJ+3mi9wA+9OZtw8v0vhu3tvRcmU3gHGcG56wo1DrbzBjoCXFw5eobGA5mcM6pQBzxZN/IaPg7bYcBd86EvbPiNGBrpBivdH3iurO1Er/ZjcFyoeV/5pTij68sS4X2W5dvOrvG7Gcpgg8b/n3amv6QJt/7xrh6vyrM85NGdFWZyAqjugXODEGpQkU7tkoPenV27XC2DpnG6YsCHZBLtZP5DbqK/IwRkvmLd0LvFCqa9wE+qOcSZ189qOMUfSULnefdL3WOFvtI/rWGEmxT70M5rCC9oUlzNsl7NL7jqjntDMqOESeeb2Ts1oXwDi8a4HPVy6THuU1vCt2kTVA+PaI5aVyfJN+7Rn6yD8uRzZ8SZLgqtMFNpDR68sFduBj5q3P/LP1U4sKS4u9WGQLPyQ4THMDRSDybqKBFge4/h7gwBZUKixOCH3icwgCYecertVrxmSd36xwQ3eybLmyC/Y42BbEicL16jPANXfiR70P4w4JG8e+vX2dH9Dh9mscgeodvHwevqeNe8gffvEMnyq72vlFOxi1/6Zt/8eIqLhjUXOEGhlXFQrCevgNwk8RfzFvyXgHvzqmfAJmAqzkY5bjXnqAtRFJleGPeJNoXAjVNbDhMtm1abSdyzklv4MxZEIWnk/6inBAaZ1qeNBMCnjXpTZYSGM1JECy+8nsAHODJlVw6h0tzQqvAyKKUO8Py/IX6tLThGz2Th1f4Mji/jmM/dKiND6rRCjZbBqWqFNP/XKxMmQ4L24OaM1BfyUZxpTFRskZZ5C/zYuDasroRIkXOkXEwKhbKG1bMgfnja7oY5xu6GBgY+RibsuR7nDgBGLfwW7Xx9Afak3J0fPkFvVSoD/Ts/WTx9d42OO/p4REZPTzplAUvcPJnkgaPAB8+0GzZsGp4szorzLTw+zy1qEvZzF9VOS1vPxYfP8ftT8rKz+KOAOe5A/U/0rS8Y/Ma/ZLTcvc6kRzfnM/FKtJylKIoifeAZ2IVlISpQ4Cv5IjQUD7Dqb2FzOR8RVcUMweEkk2KhmF7vFbFT7vwTgLPljgQLEJ4LtKJ8sCDN6/HjH4K72lJE0q/U3528rOen7xu53D5yzd6Et062/3GJCuC+NAepqB8OuIBoS40Ea9nLcdT5dVq9Fmmp0U3nSkhB2q41bLK/aCkIVh5MSJuEpSeCYU2jgMn6WJa36bt8OK4GE3snqN6URzm+Wftf6lKkk7iib2EWawzQjRNd6u2zt2iwbmHNOiOjl1YpI/5NbzID0n06vNTGGXAej7B51nPG0b/4fqz/WIme2FKI33jy+a2+NW8VUP1B+PiTQJKNgDDj/LosczOYLrI9bK8iDAmHxD1cd782i0PLYSDU58uREgMDG4c28dJM1b7vHYL8w41Y7Weh2WaCVqhhG1sm2D3Dj+568BpW7fDdxrP8TWnOKsy0/LQx5bkrUNXgcBxHx0bhkB/e+1OzRRt8QS6cfXFVcSnfJiGRm2BoTCWLQ1nb181XKlnOG/fVrVQKP5gMQ9X516t1YNb0LHGQQk35BQRUFdplzdMeQyLcYGFLs4AntDDuGJu1FHxP9bp4WyWQUo5wpZYFVqpNbIqVYHkuVWycs7LHdOV8+iEzD5NPrrN5AAteK/bNE0emj4uytk37mEtj/lSet8EyyFBq9e/G2AlgZpfS+jlxjol6YqLN47DqOhBX8xb3JgnZFbDS/4lw7zDrOTgogr1fJvlA586IPAIJO4/MZ7x2Y91xbDnJGMWYYZcBiupWuMPGgKlwaHHxSl/vNzxqAerRhm/QgOgTweh1ymwM4mjf2JozEsxL5985bbdw1f0DOYwbZe5HB2E53ulrFC6dMI2o2nWaNknEvKOOz9GOOU/vkq8Xv3Mt2qOkKkV9vQzk4ICxbCYlYQSX/AmJcWTOLSn85lHZL70d3pliTOfebOGRlIGtBZty3AIGsxkkqLy6ptDS3VUvHYdM8hmcO6pLZVGDzBJT/Xpy8FJWATvYeETGDEw7OFFTu4AN/2iVRqKSuHSXt+jjZFWMWisPLACwfQcJ9FmejBywGw9kiLieHaOMLpKa1h0P40oTjDrg6rTWRy5KKB8H3qBPbyMpFt/xMs2rLnxXDP3xsPOKHGlTxXaQQLwb/2MrgwNjpMPeGuH17iQ8XT6TMueKd/rn3RPw5XPL07+07d3aVJ8Vmm5M5jGV1qjtn+bv7BHf4xNWWC+WD97vajSoHTFRTBOYvacRU16mn7eyTHlq1llkDeNC5oCgSlORYXvDOP0FLdFtqD/RLP+td+lNZRWI0jFzgTzdA+sQdIbA6nh8UvG35TT+I06HEmY6pJ8dA1OnweWPPihAU5IGTGi2evPq9L/cPNuz+xkh5Zxy4vFI/ZYZb7sUdB8eBznkV2uX4istcqZHMqjhxe+ogAFjBU4pJMT6B6TA3gXDK18HXRXAU099QaY2wNTM+IMm1mY5lMiNI5TZIDNqQ3ZV2InqGx0koxyaxXMekaopIMTp6GjzVdMXf1Bi49f+tFev9XD/hPagQ2JfMdCPi0UjDkJjsyADBmWPcEddRScq5vfY2AYw8+y1Asb8JKeTTG4mU/EGm4Uf9GBuUq/BMKanyfBS2mVVYi95GrFUok5oKaDWHNiyfyz392tM710KJN1sPWuG3hSJ/TgmLlgvpATgf6awJ4Suv48xAm9c+wyGyYhMcBJBJeUOMHFDcckQjh2Ymm4XY5kaYijL/5K1fxsocO2WbMhKwXk4zfeyeOXT5jqul+vR+Uqd41JoanvaA3oSYgNTMExJOPcTk7/631RmA23ZTTWdjgNEYVw6D/ohb5v6bZz4DCtm9sFrUbU1FrTgOfhuBocKWcQc4WyXcKsgt/Yku2SY2UhEt0IMY58OdEatS+jWC83qHiqwM/4zW/g/N07z9La4do53MgCyGSB3zZSB+Srt2lrhYYk3HmiOGrWJEUJL3uaVS2CDzxZIvr7G87WdkDtu5E/nyksvOKKqH6VniUQDof56d0HPGnaGrZQxNxNiaWW+pjO2k7FRhFpOyoMjEwf4Jm8b87JNHgVVsPpihpgTrdWzB2BzyyMAhooCvU49bzClIRUWDWQamwscPI7Q1/X+w61pQJsETURpZYyyY/2hnEV0AvmUAIWZzOtFXm9fNKRP1ZcWm8Q4wQOo+ZHEbht5iVBxPpWFvkmSkbKKMlzaap43eyFbI+A0fiQwgYDTIyGhRdFKGsUI3Lv2ZEBTHse5ZyCVbp0gz88CSQoa3FrkC6ZkwGEt4vqgDqGL0y3scxkR8Mjeptf4UdOcW9yml2cU8YwjFPUmZSOuafXR92WG8fqVQYJ4QTi1DgtgHsvx8Dz+i6cjY98gvKuAiSOUkmCAKz4GRcLDAZefHhwI9XXlx1eZeDTOWCvpX+uq9FVdatw5O+Cka+3VJQQWBjugW7TpWBNKKSGK2E2LTZSfWFHPriHTgevQPMI4RxKKo2GKKySBZJo3CExzxIRMZZTXx5ysebIqUkZc0Z06iJ54vJpxXPjuCBF0eR5S5Q1L3ZgcYprgh2O0lKQNCGx0yojDz/sqbKGQV4f6sryoAXWsOhMvPwFG4b/9KFn+cfTix/fCjiEgNwmo5GJn5go+Bt+ytupgUNbKMbL1QnIsl0WAYXCN3wOa4DPz4h++sZdnpZjzGheOKDpQgIWvmjNdORc9qGHcLHvReeu1USBzmzWK9EGIqiFVBLZvhKTnjs9L8g2FmUaEfAtWj145+u2emaFH/LhNVdjgIdz2u0FmHVToljIHejqAgrN1XqaJHBxG3FAUoaeKr/ym804dkkTABvwycb5JAtQjcnZTl7pGZyZntCbj5maANIx4A/GZLfpvC5+mYRzy3hulr4z/DFvPiKfFYl/yzSdGS9/XBPQL3keRzaWLU15qQlvazTq0CcoH3/4bxFiGDgW5bmaob7+8m0+Y5jfT0MVVwpqIazM9zdwNAcWFWjRY45yFURGMcM84eg+w7Y0foqacdH9HJYDNxkDL+N0hpEn9LxHWUVgGuNwDwPmECWS6/RrGPQcd6l3zbKR50HVc3R3v/EZ5TT8OV2anN43oLH++a7Ltrgzwk+bYUr8QExInHqZ5scBeE8I8qI8l3d+QeNxnc7wEIPzXqgEoqtpnVIOADB9RsdC43zBbLy1V76rkFYfMISFWTEthw5PSD7HM3HywjadysdgnqkzziFRnZfYIhvO0ts74G3VZC0HE7DOt6xn9/mC3aPpqcd3aRxpVWd2Iw+xj6rn+C0deMOibp1YBFwV3PTEppm96A9lhbESsVe8KOOxw/4cXn32iyTxjArhMw09LPUCjm+VJAJMDGxKBGz1qlM6W2ST39X+rH64jnEM7TQy3RCtBNjiK12iTiooRpgGQzsc0hjI7YOxzd9pJZnteA89sdfPhXN1i/nk9Tt9FsteVRzzebymBd0vdLzFZ7/7lA/6RCf+2cXMYaXs04QnnQnOqwQfO/7LV57QcOeA86iSwBiTE1vheYtWLNiQC00FYSrtLETcIVIypuvqBV5lVdn81PQHtfWQjU4JrngZ3fs+ZYElDnzuigtwipQKBE7wAdY6d5KTWzmw091hCsaaKOcHBJmV1xex80qMcJVXBZdx0BFwdJ3SWnm+odm4bpUPYuOUBuYkGcRzNvPl+t2CR/Qi4Bd1vgm7nZlCepu62uyM5o2f21UJ8KSy610CbdnAJD7ohh76w16GPv9T51D+UacKefLBwvmqYDuUtMmK0YvQucD5BlZ6aXjJc9f6ByT4ESnwez/3lVd8yhfxPbAef1btlLQQ5CAmDhw09jPSy2T5Aqd4RxMF0hyjKrSbo61EEaAql4dIx0g/01RipxXh036vEjFnOn5Rb/Hc+YCetboY7tM2Pn5Rg2X+r2v9i1snq8YManlWcnbY/XqxRUKk81H9WNJavzFkQc371lZp7GWL3XCqzuxC7Tg2PohPoE+auOxqDZDGoD/g52gl+zptJWQaLXtLe57hYX26r5Xgan8zpYJE3MN7ZV2gL1DO1+CcXy1kiZ6WC52Nb+WojaNcb0rYP9WsC4hRMDRtxc5C8DThmO5jnH40ngMmXCbEWWngKF42qqLLc3auVa90jX5Y71BtJhIelczE+e90dmarL0sabbZCms5SrzHb3EHArlQCeduEveBjJgkxdGWUVQJSadwh9LqXhlOcP8bdyn4ybV3d5FOJ8F4UUgeUge+Ks9CGHSY98bQ8eVoOP4vyMb29wrRNs7mMwFS0VmhRxQIBxQkJpFDMjgEYRkGYxMfVrePH8kbHioHnPbXdobawFcEmvabMz4Ox+uyz/wGLNzP5nFkGjUFR0MVUkOui6V+VMepmgk5FkKOv+Nh/yoNPYKv667VE8+GrWNi1uw3Pl/G7FkQ+n+AQA0vAV1qnmwek5kNshzbGSQcHRmyC5SFPB4BubhlRxqK7aYRXLKplQSf1ShnhoIG1wNZGA86KQTi1kaj4+wEp5FQEdL1cTOQTGMKQF9MNj/OsA1+NN3cIBfSt6RAUNKhiM255RfAyhXDYSs/zlEE2nSoCfo084sBSDykDnnIjta/g+biMRQiBpQKhSzrExeuUK+xa7WTinTdmttHHOLYAg8m3NggMfQ2moLgIoRKKkmwliyN4ONQVklxi5PMaLq8nna3nsV/AVyFSuBL9WnBDHhuR8r6yOgVy5RBXGg7RVRAZiypWh0oTLTBWrp/N5LEWRXn7lkqM34jzaSoUn0YPLP7vy3u4r7ieYRADSz5xGBIHByU5Zp6V21eohQG3McZJRUhZ8hg92t0SYt7zGxEi9GliiWpeOx2J46X4NcRXq8NynoYFOE//wwvUMWH+1bSQCWa7OpuwIZ9CmekaOmyMD1yqgtixSVODzDS9Qccy1sFyp1cGfBPCh3zkBpa4xz2tVzlFskGNWZiuFLNpk99L45j5+/WGjT1j60QhpySMPO0xoK1CgzLzUUhWjju+PRIyHnnqmM+ApkF9VM/hOzQ5DOuLdAWwZY6ecG6vY4MSXWlTVxI8oSmoE4AcTKNUry7+Y/GWQ1BZFM10HQRT35pJ90V5Kr4DOxnaxOPJQhDEoYmnxFOc4FXMNj9ep9ron03hrBECjwjXB82UjwLCrSRl/khhYjALxTSctMCtjsMFElioBDY7SAf3YXD9DgEzI+gD/yNaJ/y+VqbZos5v77xHwxde5mftjLMoj2m+dVyra3LRETX9aBv1LH1dMJZhCBqXzo4F4hyx12s8+T6tYzJkiqOjf3xGnnT/AWa/YEwLU/zA51bAQZoKCuKZxvDgTRp+X+ZmrQzj5KoNlJGDMRRb8U5C9PQoXPBWxLZ4ftaZgX62N9C15teumDXh15+oSMjp4TIsoRfJQXI+XkNwbo1Mk/H+3ia96sXkOA3hXfohpYu1+vCfv/S4Dgc4bE1KpU6v6JcYQSnu0vEbRcz2fPJdZ7nyzmQlO6z7OPx62DQ9zpxQMOfMDjOMElPUpztU8+CwmY9o/Y7dVj/TWf/H1fJ9+5FlVTdlPQ2LlH2gRDW0dqNSht8H2L3/8KgXMg/Kx5y24+UbeZorA55M/PJmLdwyGQ1j1hDZN8LsDoeE87x5je4KvJjBRDk/LBu7bVP0aXywrZaKonNr3E3fgoJVsq6/fMvwmou64/Wr6K/6jj5Tot7nrrgekDQxASYrMeoZh840+uI974/rSCV+PJCTVmvMhZfLYju8mrivw6KLG1yVqgDF/EsXShq6Kwr8KlTU8xRmkZWDz1dHhG0BHD3Fy4H89MlOXX10XL776wO+bZoVXxFApZG1cL7xQUHMu5JCAA97eHGzOiPv0FQgPdhYMvJuid5PfTp4PaxPU556MPykXqSeA0h5CoLYpw3UV89wUbpo+LXdk1ol3u8fV+BljuJaVgenfC6YEhhreJemHBc6CM0uNRGQ4tVnM+zw8YwiY2LgspdsGC7Q687cKrkyH9YpE0we55YqoeJVMvxsc9bVZbFzX+BKYK8/nRF+BfkT153lV4un/oQe/B7e8wRe/AoavOCENjHwJSrOCaxvIQjTOOXE07Lkg0OewIscn9XiIxO/vKxo12M7jkKkHQHURQWv6sE/LSjRHDbGxjcjpcpwG9z4zSg1BNDzj081DXqS9QNEoDbJ5hGaqS093Fza1QctQ6GXPn/d8B/ffbYnvpluA95XRl8R4Z0Y3n06snr4onKZI1VajYOQEOQpbJoPbU8XWmB0MN6jzbVv0Vld/cO6bkbltvJ11dJ4RYm21KlKiWbEpUNx6FQueKvj0FJJ9BzZJc0dgA8dF9pr8YF/eM5idKe8cGZwX9Ejfr3pxHTWbPL49Err+YRv/EZZn055DwdG6Pl4AB4kGBAS9/BpusdblAY/cNae3nflVh+6RguVgLH1W5bllgGUQAmcTyrSV0szEnqQQjvi+8rraa1B4RXBvFxr2PioxNjITZoUsqqgYsrA0YfeKjMjbB5mQxOw4Cfu/VZsCqf3Tw/v04tomxKzSWaQ8umJgxhF+rKp8JQlDg0zFi/Sr9GzR5OjNTTck5X6VN02N5EvgO9ELU230a7TV+3gKlJkEMA1PlUsHGN3fON3swNuZlAmozjJBnZjAQhudFIypMRsEefk9bfreKs69a/uDLAg9E6PnwLv80ZuX8D7svivxwlsHIBTGOCUQZhN4eD3sODBq0+T5zb5eh3a+ZG3bNcGmbXdqUEgt0+8bKfJPfYdhVVux7VsYKM3U8FxOCRjbRlb9hUfFShBy2955/TVgv0AimVZako8LtyhWReOauTHmRj6xG+h72N06P3U4/ZwaMgH1vNIGl7xqzsnQSbuQ4QCS3okbLjJ93Q9v9CFB6vVHN3LDmB+FIGZDgbE9mXP5F9KWi7BVBZvGQPu1Ev0bGC9Uqcr1FGK5fCpH+LLqf29b3oTgxc+U7zTyqfDAZgtEtoLSTrMyEcg6V5o4DOe1atjTYxT15/QD+Pu1el9dBj+JQZmZOiR8oYoVxr7WzgWg3fnp3bGxqkd8cEUnvwiPr1vg0ccuKe8+oIzSfeKTIVC3xsQQaFJWfIejOiW5LvSmQj//4wz3oO48mzb6Qr0PqA0tvWYsbsv72E97jOl4f9/AFNdxcfrQ6dCAAAAAElFTkSuQmCC;labelPosition=center;align=center;" vertex="1" parent="1">
          <mxGeometry x="320" y="290" width="46.26" height="45" as="geometry" />
        </mxCell>
        <mxCell id="3q0PopQuauLMCxIyagHW-775" value="routing rule" style="edgeStyle=orthogonalEdgeStyle;rounded=0;orthogonalLoop=1;jettySize=auto;html=1;entryX=0.1;entryY=0.2;entryDx=0;entryDy=0;entryPerimeter=0;exitX=1;exitY=0.5;exitDx=0;exitDy=0;" edge="1" parent="1" source="3q0PopQuauLMCxIyagHW-771" target="eO07zqcxzYHQwjbRKe_j-758">
          <mxGeometry x="0.1351" y="12" relative="1" as="geometry">
            <mxPoint as="offset" />
          </mxGeometry>
        </mxCell>
        <mxCell id="3q0PopQuauLMCxIyagHW-777" style="edgeStyle=orthogonalEdgeStyle;rounded=0;orthogonalLoop=1;jettySize=auto;html=1;" edge="1" parent="1" source="3q0PopQuauLMCxIyagHW-776" target="eO07zqcxzYHQwjbRKe_j-720">
          <mxGeometry relative="1" as="geometry" />
        </mxCell>
        <mxCell id="3q0PopQuauLMCxIyagHW-779" style="edgeStyle=orthogonalEdgeStyle;rounded=0;orthogonalLoop=1;jettySize=auto;html=1;exitX=0.1;exitY=0.2;exitDx=0;exitDy=0;exitPerimeter=0;" edge="1" parent="1" source="3q0PopQuauLMCxIyagHW-776" target="eO07zqcxzYHQwjbRKe_j-896">
          <mxGeometry relative="1" as="geometry" />
        </mxCell>
        <mxCell id="3q0PopQuauLMCxIyagHW-776" value="K8s Control Plane" style="aspect=fixed;sketch=0;html=1;dashed=0;whitespace=wrap;verticalLabelPosition=bottom;verticalAlign=top;fillColor=#2875E2;strokeColor=#ffffff;points=[[0.005,0.63,0],[0.1,0.2,0],[0.9,0.2,0],[0.5,0,0],[0.995,0.63,0],[0.72,0.99,0],[0.5,1,0],[0.28,0.99,0]];shape=mxgraph.kubernetes.icon2;kubernetesLabel=1;prIcon=control_plane" vertex="1" parent="1">
          <mxGeometry x="535" y="750" width="50" height="48" as="geometry" />
        </mxCell>
        <mxCell id="3q0PopQuauLMCxIyagHW-778" style="edgeStyle=orthogonalEdgeStyle;rounded=0;orthogonalLoop=1;jettySize=auto;html=1;entryX=0.75;entryY=1;entryDx=0;entryDy=0;entryPerimeter=0;exitX=0.995;exitY=0.63;exitDx=0;exitDy=0;exitPerimeter=0;" edge="1" parent="1" source="3q0PopQuauLMCxIyagHW-776" target="eO07zqcxzYHQwjbRKe_j-923">
          <mxGeometry relative="1" as="geometry" />
        </mxCell>
        <mxCell id="DA3kbut_2RB9CpOadpUm-717" style="edgeStyle=orthogonalEdgeStyle;rounded=0;orthogonalLoop=1;jettySize=auto;html=1;exitX=0.28;exitY=0.99;exitDx=0;exitDy=0;exitPerimeter=0;entryX=0.5;entryY=1;entryDx=0;entryDy=0;entryPerimeter=0;" edge="1" parent="1" source="3q0PopQuauLMCxIyagHW-730" target="3q0PopQuauLMCxIyagHW-776">
          <mxGeometry relative="1" as="geometry" />
        </mxCell>
      </root>
    </mxGraphModel>
  </diagram>
  <diagram id="lX3pgmeWNnqN9PahfljJ" name="Page-2">
    <mxGraphModel dx="1102" dy="765" grid="1" gridSize="10" guides="1" tooltips="1" connect="1" arrows="1" fold="1" page="1" pageScale="1" pageWidth="1169" pageHeight="827" math="0" shadow="0">
      <root>
        <mxCell id="0" />
        <mxCell id="1" parent="0" />
        <mxCell id="6-GJ8nhHcz8GcX6XCQpa-8" value="" style="whiteSpace=wrap;html=1;aspect=fixed;" vertex="1" parent="1">
          <mxGeometry x="242" y="410" width="138" height="138" as="geometry" />
        </mxCell>
        <mxCell id="6-GJ8nhHcz8GcX6XCQpa-3" value="" style="whiteSpace=wrap;html=1;aspect=fixed;" vertex="1" parent="1">
          <mxGeometry x="82" y="410" width="138" height="138" as="geometry" />
        </mxCell>
        <mxCell id="6-GJ8nhHcz8GcX6XCQpa-1" value="" style="aspect=fixed;sketch=0;html=1;dashed=0;whitespace=wrap;verticalLabelPosition=bottom;verticalAlign=top;fillColor=#2875E2;strokeColor=#ffffff;points=[[0.005,0.63,0],[0.1,0.2,0],[0.9,0.2,0],[0.5,0,0],[0.995,0.63,0],[0.72,0.99,0],[0.5,1,0],[0.28,0.99,0]];shape=mxgraph.kubernetes.icon2;prIcon=node" vertex="1" parent="1">
          <mxGeometry x="72" y="526" width="50" height="48" as="geometry" />
        </mxCell>
        <mxCell id="6-GJ8nhHcz8GcX6XCQpa-4" value="" style="aspect=fixed;sketch=0;html=1;dashed=0;whitespace=wrap;verticalLabelPosition=bottom;verticalAlign=top;fillColor=#2875E2;strokeColor=#ffffff;points=[[0.005,0.63,0],[0.1,0.2,0],[0.9,0.2,0],[0.5,0,0],[0.995,0.63,0],[0.72,0.99,0],[0.5,1,0],[0.28,0.99,0]];shape=mxgraph.kubernetes.icon2;kubernetesLabel=1;prIcon=pod" vertex="1" parent="1">
          <mxGeometry x="92" y="460" width="50" height="48" as="geometry" />
        </mxCell>
        <mxCell id="6-GJ8nhHcz8GcX6XCQpa-6" value="" style="aspect=fixed;sketch=0;html=1;dashed=0;whitespace=wrap;verticalLabelPosition=bottom;verticalAlign=top;fillColor=#2875E2;strokeColor=#ffffff;points=[[0.005,0.63,0],[0.1,0.2,0],[0.9,0.2,0],[0.5,0,0],[0.995,0.63,0],[0.72,0.99,0],[0.5,1,0],[0.28,0.99,0]];shape=mxgraph.kubernetes.icon2;kubernetesLabel=1;prIcon=pod" vertex="1" parent="1">
          <mxGeometry x="152" y="460" width="50" height="48" as="geometry" />
        </mxCell>
        <mxCell id="6-GJ8nhHcz8GcX6XCQpa-15" style="edgeStyle=orthogonalEdgeStyle;rounded=0;orthogonalLoop=1;jettySize=auto;html=1;" edge="1" parent="1" source="QsnZHVb56CLQz8VyhmmF-3" target="6-GJ8nhHcz8GcX6XCQpa-11">
          <mxGeometry relative="1" as="geometry">
            <mxPoint x="231" y="380" as="sourcePoint" />
            <Array as="points">
              <mxPoint x="337" y="380" />
            </Array>
          </mxGeometry>
        </mxCell>
        <mxCell id="6-GJ8nhHcz8GcX6XCQpa-7" value="" style="aspect=fixed;sketch=0;html=1;dashed=0;whitespace=wrap;verticalLabelPosition=bottom;verticalAlign=top;fillColor=#2875E2;strokeColor=#ffffff;points=[[0.005,0.63,0],[0.1,0.2,0],[0.9,0.2,0],[0.5,0,0],[0.995,0.63,0],[0.72,0.99,0],[0.5,1,0],[0.28,0.99,0]];shape=mxgraph.kubernetes.icon2;kubernetesLabel=1;prIcon=svc" vertex="1" parent="1">
          <mxGeometry x="206" y="290" width="50" height="48" as="geometry" />
        </mxCell>
        <mxCell id="6-GJ8nhHcz8GcX6XCQpa-9" value="" style="aspect=fixed;sketch=0;html=1;dashed=0;whitespace=wrap;verticalLabelPosition=bottom;verticalAlign=top;fillColor=#2875E2;strokeColor=#ffffff;points=[[0.005,0.63,0],[0.1,0.2,0],[0.9,0.2,0],[0.5,0,0],[0.995,0.63,0],[0.72,0.99,0],[0.5,1,0],[0.28,0.99,0]];shape=mxgraph.kubernetes.icon2;prIcon=node" vertex="1" parent="1">
          <mxGeometry x="232" y="526" width="50" height="48" as="geometry" />
        </mxCell>
        <mxCell id="6-GJ8nhHcz8GcX6XCQpa-10" value="" style="aspect=fixed;sketch=0;html=1;dashed=0;whitespace=wrap;verticalLabelPosition=bottom;verticalAlign=top;fillColor=#2875E2;strokeColor=#ffffff;points=[[0.005,0.63,0],[0.1,0.2,0],[0.9,0.2,0],[0.5,0,0],[0.995,0.63,0],[0.72,0.99,0],[0.5,1,0],[0.28,0.99,0]];shape=mxgraph.kubernetes.icon2;kubernetesLabel=1;prIcon=pod" vertex="1" parent="1">
          <mxGeometry x="252" y="460" width="50" height="48" as="geometry" />
        </mxCell>
        <mxCell id="6-GJ8nhHcz8GcX6XCQpa-11" value="" style="aspect=fixed;sketch=0;html=1;dashed=0;whitespace=wrap;verticalLabelPosition=bottom;verticalAlign=top;fillColor=#2875E2;strokeColor=#ffffff;points=[[0.005,0.63,0],[0.1,0.2,0],[0.9,0.2,0],[0.5,0,0],[0.995,0.63,0],[0.72,0.99,0],[0.5,1,0],[0.28,0.99,0]];shape=mxgraph.kubernetes.icon2;kubernetesLabel=1;prIcon=pod" vertex="1" parent="1">
          <mxGeometry x="312" y="460" width="50" height="48" as="geometry" />
        </mxCell>
        <mxCell id="6-GJ8nhHcz8GcX6XCQpa-12" value="" style="whiteSpace=wrap;html=1;aspect=fixed;" vertex="1" parent="1">
          <mxGeometry x="402" y="410" width="138" height="138" as="geometry" />
        </mxCell>
        <mxCell id="6-GJ8nhHcz8GcX6XCQpa-13" value="" style="aspect=fixed;sketch=0;html=1;dashed=0;whitespace=wrap;verticalLabelPosition=bottom;verticalAlign=top;fillColor=#2875E2;strokeColor=#ffffff;points=[[0.005,0.63,0],[0.1,0.2,0],[0.9,0.2,0],[0.5,0,0],[0.995,0.63,0],[0.72,0.99,0],[0.5,1,0],[0.28,0.99,0]];shape=mxgraph.kubernetes.icon2;prIcon=node" vertex="1" parent="1">
          <mxGeometry x="392" y="526" width="50" height="48" as="geometry" />
        </mxCell>
        <mxCell id="6-GJ8nhHcz8GcX6XCQpa-14" style="edgeStyle=orthogonalEdgeStyle;rounded=0;orthogonalLoop=1;jettySize=auto;html=1;exitX=0.5;exitY=1;exitDx=0;exitDy=0;exitPerimeter=0;entryX=0.5;entryY=0;entryDx=0;entryDy=0;entryPerimeter=0;" edge="1" parent="1" source="QsnZHVb56CLQz8VyhmmF-1" target="6-GJ8nhHcz8GcX6XCQpa-4">
          <mxGeometry relative="1" as="geometry">
            <Array as="points">
              <mxPoint x="117" y="380" />
            </Array>
          </mxGeometry>
        </mxCell>
        <mxCell id="6-GJ8nhHcz8GcX6XCQpa-16" value="" style="aspect=fixed;sketch=0;html=1;dashed=0;whitespace=wrap;verticalLabelPosition=bottom;verticalAlign=top;fillColor=#2875E2;strokeColor=#ffffff;points=[[0.005,0.63,0],[0.1,0.2,0],[0.9,0.2,0],[0.5,0,0],[0.995,0.63,0],[0.72,0.99,0],[0.5,1,0],[0.28,0.99,0]];shape=mxgraph.kubernetes.icon2;prIcon=user" vertex="1" parent="1">
          <mxGeometry x="206" y="120" width="50" height="48" as="geometry" />
        </mxCell>
        <mxCell id="6-GJ8nhHcz8GcX6XCQpa-17" style="edgeStyle=orthogonalEdgeStyle;rounded=0;orthogonalLoop=1;jettySize=auto;html=1;entryX=0.5;entryY=0;entryDx=0;entryDy=0;entryPerimeter=0;" edge="1" parent="1" source="6-GJ8nhHcz8GcX6XCQpa-16" target="6-GJ8nhHcz8GcX6XCQpa-7">
          <mxGeometry relative="1" as="geometry" />
        </mxCell>
        <mxCell id="6-GJ8nhHcz8GcX6XCQpa-18" value="spec.type&lt;span style=&quot;background-color: initial;&quot;&gt;:LoadBalancer&lt;/span&gt;" style="text;html=1;align=left;verticalAlign=middle;whiteSpace=wrap;rounded=0;" vertex="1" parent="1">
          <mxGeometry x="86" y="288" width="130" height="50" as="geometry" />
        </mxCell>
        <mxCell id="6-GJ8nhHcz8GcX6XCQpa-19" value="" style="outlineConnect=0;dashed=0;verticalLabelPosition=bottom;verticalAlign=top;align=center;html=1;shape=mxgraph.aws3.application_load_balancer;fillColor=#F58534;gradientColor=none;" vertex="1" parent="1">
          <mxGeometry x="203.5" y="210" width="55" height="50" as="geometry" />
        </mxCell>
        <mxCell id="6-GJ8nhHcz8GcX6XCQpa-21" value="" style="whiteSpace=wrap;html=1;aspect=fixed;" vertex="1" parent="1">
          <mxGeometry x="772" y="260" width="138" height="138" as="geometry" />
        </mxCell>
        <mxCell id="6-GJ8nhHcz8GcX6XCQpa-22" value="" style="whiteSpace=wrap;html=1;aspect=fixed;" vertex="1" parent="1">
          <mxGeometry x="612" y="260" width="138" height="138" as="geometry" />
        </mxCell>
        <mxCell id="6-GJ8nhHcz8GcX6XCQpa-23" value="" style="aspect=fixed;sketch=0;html=1;dashed=0;whitespace=wrap;verticalLabelPosition=bottom;verticalAlign=top;fillColor=#2875E2;strokeColor=#ffffff;points=[[0.005,0.63,0],[0.1,0.2,0],[0.9,0.2,0],[0.5,0,0],[0.995,0.63,0],[0.72,0.99,0],[0.5,1,0],[0.28,0.99,0]];shape=mxgraph.kubernetes.icon2;prIcon=node" vertex="1" parent="1">
          <mxGeometry x="602" y="376" width="50" height="48" as="geometry" />
        </mxCell>
        <mxCell id="6-GJ8nhHcz8GcX6XCQpa-25" value="" style="aspect=fixed;sketch=0;html=1;dashed=0;whitespace=wrap;verticalLabelPosition=bottom;verticalAlign=top;fillColor=#2875E2;strokeColor=#ffffff;points=[[0.005,0.63,0],[0.1,0.2,0],[0.9,0.2,0],[0.5,0,0],[0.995,0.63,0],[0.72,0.99,0],[0.5,1,0],[0.28,0.99,0]];shape=mxgraph.kubernetes.icon2;kubernetesLabel=1;prIcon=pod" vertex="1" parent="1">
          <mxGeometry x="682" y="310" width="50" height="48" as="geometry" />
        </mxCell>
        <mxCell id="6-GJ8nhHcz8GcX6XCQpa-27" value="" style="aspect=fixed;sketch=0;html=1;dashed=0;whitespace=wrap;verticalLabelPosition=bottom;verticalAlign=top;fillColor=#2875E2;strokeColor=#ffffff;points=[[0.005,0.63,0],[0.1,0.2,0],[0.9,0.2,0],[0.5,0,0],[0.995,0.63,0],[0.72,0.99,0],[0.5,1,0],[0.28,0.99,0]];shape=mxgraph.kubernetes.icon2;kubernetesLabel=1;prIcon=svc" vertex="1" parent="1">
          <mxGeometry x="745" y="490" width="50" height="48" as="geometry" />
        </mxCell>
        <mxCell id="6-GJ8nhHcz8GcX6XCQpa-28" value="" style="aspect=fixed;sketch=0;html=1;dashed=0;whitespace=wrap;verticalLabelPosition=bottom;verticalAlign=top;fillColor=#2875E2;strokeColor=#ffffff;points=[[0.005,0.63,0],[0.1,0.2,0],[0.9,0.2,0],[0.5,0,0],[0.995,0.63,0],[0.72,0.99,0],[0.5,1,0],[0.28,0.99,0]];shape=mxgraph.kubernetes.icon2;prIcon=node" vertex="1" parent="1">
          <mxGeometry x="762" y="376" width="50" height="48" as="geometry" />
        </mxCell>
        <mxCell id="6-GJ8nhHcz8GcX6XCQpa-30" value="" style="aspect=fixed;sketch=0;html=1;dashed=0;whitespace=wrap;verticalLabelPosition=bottom;verticalAlign=top;fillColor=#2875E2;strokeColor=#ffffff;points=[[0.005,0.63,0],[0.1,0.2,0],[0.9,0.2,0],[0.5,0,0],[0.995,0.63,0],[0.72,0.99,0],[0.5,1,0],[0.28,0.99,0]];shape=mxgraph.kubernetes.icon2;kubernetesLabel=1;prIcon=pod" vertex="1" parent="1">
          <mxGeometry x="842" y="310" width="50" height="48" as="geometry" />
        </mxCell>
        <mxCell id="6-GJ8nhHcz8GcX6XCQpa-31" value="" style="whiteSpace=wrap;html=1;aspect=fixed;" vertex="1" parent="1">
          <mxGeometry x="932" y="260" width="138" height="138" as="geometry" />
        </mxCell>
        <mxCell id="6-GJ8nhHcz8GcX6XCQpa-32" value="" style="aspect=fixed;sketch=0;html=1;dashed=0;whitespace=wrap;verticalLabelPosition=bottom;verticalAlign=top;fillColor=#2875E2;strokeColor=#ffffff;points=[[0.005,0.63,0],[0.1,0.2,0],[0.9,0.2,0],[0.5,0,0],[0.995,0.63,0],[0.72,0.99,0],[0.5,1,0],[0.28,0.99,0]];shape=mxgraph.kubernetes.icon2;prIcon=node" vertex="1" parent="1">
          <mxGeometry x="922" y="376" width="50" height="48" as="geometry" />
        </mxCell>
        <mxCell id="6-GJ8nhHcz8GcX6XCQpa-41" style="edgeStyle=orthogonalEdgeStyle;rounded=0;orthogonalLoop=1;jettySize=auto;html=1;entryX=0.5;entryY=0;entryDx=0;entryDy=0;" edge="1" parent="1" source="6-GJ8nhHcz8GcX6XCQpa-34" target="6-GJ8nhHcz8GcX6XCQpa-38">
          <mxGeometry relative="1" as="geometry" />
        </mxCell>
        <mxCell id="6-GJ8nhHcz8GcX6XCQpa-43" style="edgeStyle=orthogonalEdgeStyle;rounded=0;orthogonalLoop=1;jettySize=auto;html=1;entryX=0.5;entryY=0;entryDx=0;entryDy=0;" edge="1" parent="1" source="6-GJ8nhHcz8GcX6XCQpa-34" target="6-GJ8nhHcz8GcX6XCQpa-40">
          <mxGeometry relative="1" as="geometry" />
        </mxCell>
        <mxCell id="6-GJ8nhHcz8GcX6XCQpa-34" value="" style="aspect=fixed;sketch=0;html=1;dashed=0;whitespace=wrap;verticalLabelPosition=bottom;verticalAlign=top;fillColor=#2875E2;strokeColor=#ffffff;points=[[0.005,0.63,0],[0.1,0.2,0],[0.9,0.2,0],[0.5,0,0],[0.995,0.63,0],[0.72,0.99,0],[0.5,1,0],[0.28,0.99,0]];shape=mxgraph.kubernetes.icon2;prIcon=user" vertex="1" parent="1">
          <mxGeometry x="997" y="111" width="50" height="48" as="geometry" />
        </mxCell>
        <mxCell id="6-GJ8nhHcz8GcX6XCQpa-42" style="edgeStyle=orthogonalEdgeStyle;rounded=0;orthogonalLoop=1;jettySize=auto;html=1;entryX=0.326;entryY=-0.029;entryDx=0;entryDy=0;entryPerimeter=0;" edge="1" parent="1" source="6-GJ8nhHcz8GcX6XCQpa-34" target="6-GJ8nhHcz8GcX6XCQpa-21">
          <mxGeometry relative="1" as="geometry" />
        </mxCell>
        <mxCell id="6-GJ8nhHcz8GcX6XCQpa-51" value="" style="aspect=fixed;sketch=0;html=1;dashed=0;whitespace=wrap;verticalLabelPosition=bottom;verticalAlign=top;fillColor=#2875E2;strokeColor=#ffffff;points=[[0.005,0.63,0],[0.1,0.2,0],[0.9,0.2,0],[0.5,0,0],[0.995,0.63,0],[0.72,0.99,0],[0.5,1,0],[0.28,0.99,0]];shape=mxgraph.kubernetes.icon2;kubernetesLabel=1;prIcon=k_proxy" vertex="1" parent="1">
          <mxGeometry x="1020" y="260" width="50" height="48" as="geometry" />
        </mxCell>
        <mxCell id="6-GJ8nhHcz8GcX6XCQpa-55" style="edgeStyle=orthogonalEdgeStyle;rounded=0;orthogonalLoop=1;jettySize=auto;html=1;exitX=0.005;exitY=0.63;exitDx=0;exitDy=0;exitPerimeter=0;entryX=0.5;entryY=1;entryDx=0;entryDy=0;entryPerimeter=0;" edge="1" parent="1" source="6-GJ8nhHcz8GcX6XCQpa-27" target="6-GJ8nhHcz8GcX6XCQpa-25">
          <mxGeometry relative="1" as="geometry" />
        </mxCell>
        <mxCell id="6-GJ8nhHcz8GcX6XCQpa-56" style="edgeStyle=orthogonalEdgeStyle;rounded=0;orthogonalLoop=1;jettySize=auto;html=1;entryX=0.5;entryY=1;entryDx=0;entryDy=0;entryPerimeter=0;" edge="1" parent="1" source="6-GJ8nhHcz8GcX6XCQpa-27" target="6-GJ8nhHcz8GcX6XCQpa-30">
          <mxGeometry relative="1" as="geometry" />
        </mxCell>
        <mxCell id="6-GJ8nhHcz8GcX6XCQpa-57" value="" style="aspect=fixed;sketch=0;html=1;dashed=0;whitespace=wrap;verticalLabelPosition=bottom;verticalAlign=top;fillColor=#2875E2;strokeColor=#ffffff;points=[[0.005,0.63,0],[0.1,0.2,0],[0.9,0.2,0],[0.5,0,0],[0.995,0.63,0],[0.72,0.99,0],[0.5,1,0],[0.28,0.99,0]];shape=mxgraph.kubernetes.icon2;kubernetesLabel=1;prIcon=k_proxy" vertex="1" parent="1">
          <mxGeometry x="792" y="260" width="50" height="48" as="geometry" />
        </mxCell>
        <mxCell id="6-GJ8nhHcz8GcX6XCQpa-58" value="" style="aspect=fixed;sketch=0;html=1;dashed=0;whitespace=wrap;verticalLabelPosition=bottom;verticalAlign=top;fillColor=#2875E2;strokeColor=#ffffff;points=[[0.005,0.63,0],[0.1,0.2,0],[0.9,0.2,0],[0.5,0,0],[0.995,0.63,0],[0.72,0.99,0],[0.5,1,0],[0.28,0.99,0]];shape=mxgraph.kubernetes.icon2;kubernetesLabel=1;prIcon=k_proxy" vertex="1" parent="1">
          <mxGeometry x="632" y="262" width="50" height="48" as="geometry" />
        </mxCell>
        <mxCell id="6-GJ8nhHcz8GcX6XCQpa-59" style="edgeStyle=orthogonalEdgeStyle;rounded=0;orthogonalLoop=1;jettySize=auto;html=1;exitX=0.5;exitY=1;exitDx=0;exitDy=0;exitPerimeter=0;entryX=0.5;entryY=1;entryDx=0;entryDy=0;entryPerimeter=0;" edge="1" parent="1" source="6-GJ8nhHcz8GcX6XCQpa-51" target="6-GJ8nhHcz8GcX6XCQpa-27">
          <mxGeometry relative="1" as="geometry" />
        </mxCell>
        <mxCell id="6-GJ8nhHcz8GcX6XCQpa-66" style="edgeStyle=orthogonalEdgeStyle;rounded=0;orthogonalLoop=1;jettySize=auto;html=1;exitX=0.5;exitY=1;exitDx=0;exitDy=0;exitPerimeter=0;entryX=0.5;entryY=1;entryDx=0;entryDy=0;entryPerimeter=0;" edge="1" parent="1" source="6-GJ8nhHcz8GcX6XCQpa-57" target="6-GJ8nhHcz8GcX6XCQpa-27">
          <mxGeometry relative="1" as="geometry" />
        </mxCell>
        <mxCell id="6-GJ8nhHcz8GcX6XCQpa-69" style="edgeStyle=orthogonalEdgeStyle;rounded=0;orthogonalLoop=1;jettySize=auto;html=1;exitX=0.5;exitY=1;exitDx=0;exitDy=0;exitPerimeter=0;entryX=0.5;entryY=1;entryDx=0;entryDy=0;entryPerimeter=0;" edge="1" parent="1" source="6-GJ8nhHcz8GcX6XCQpa-58" target="6-GJ8nhHcz8GcX6XCQpa-27">
          <mxGeometry relative="1" as="geometry" />
        </mxCell>
        <mxCell id="QsnZHVb56CLQz8VyhmmF-2" value="" style="edgeStyle=orthogonalEdgeStyle;rounded=0;orthogonalLoop=1;jettySize=auto;html=1;exitX=0.5;exitY=1;exitDx=0;exitDy=0;exitPerimeter=0;entryX=0.5;entryY=0;entryDx=0;entryDy=0;entryPerimeter=0;" edge="1" parent="1" source="6-GJ8nhHcz8GcX6XCQpa-7" target="QsnZHVb56CLQz8VyhmmF-1">
          <mxGeometry relative="1" as="geometry">
            <mxPoint x="231" y="338" as="sourcePoint" />
            <mxPoint x="117" y="460" as="targetPoint" />
            <Array as="points">
              <mxPoint x="231" y="360" />
              <mxPoint x="117" y="360" />
            </Array>
          </mxGeometry>
        </mxCell>
        <mxCell id="QsnZHVb56CLQz8VyhmmF-1" value="" style="aspect=fixed;sketch=0;html=1;dashed=0;whitespace=wrap;verticalLabelPosition=bottom;verticalAlign=top;fillColor=#2875E2;strokeColor=#ffffff;points=[[0.005,0.63,0],[0.1,0.2,0],[0.9,0.2,0],[0.5,0,0],[0.995,0.63,0],[0.72,0.99,0],[0.5,1,0],[0.28,0.99,0]];shape=mxgraph.kubernetes.icon2;kubernetesLabel=1;prIcon=k_proxy" vertex="1" parent="1">
          <mxGeometry x="92" y="390" width="50" height="48" as="geometry" />
        </mxCell>
        <mxCell id="QsnZHVb56CLQz8VyhmmF-3" value="" style="aspect=fixed;sketch=0;html=1;dashed=0;whitespace=wrap;verticalLabelPosition=bottom;verticalAlign=top;fillColor=#2875E2;strokeColor=#ffffff;points=[[0.005,0.63,0],[0.1,0.2,0],[0.9,0.2,0],[0.5,0,0],[0.995,0.63,0],[0.72,0.99,0],[0.5,1,0],[0.28,0.99,0]];shape=mxgraph.kubernetes.icon2;kubernetesLabel=1;prIcon=k_proxy" vertex="1" parent="1">
          <mxGeometry x="312" y="390" width="50" height="48" as="geometry" />
        </mxCell>
        <mxCell id="QsnZHVb56CLQz8VyhmmF-5" style="edgeStyle=orthogonalEdgeStyle;rounded=0;orthogonalLoop=1;jettySize=auto;html=1;exitX=0.5;exitY=1;exitDx=0;exitDy=0;exitPerimeter=0;entryX=0.5;entryY=0;entryDx=0;entryDy=0;entryPerimeter=0;" edge="1" parent="1" source="6-GJ8nhHcz8GcX6XCQpa-7" target="QsnZHVb56CLQz8VyhmmF-3">
          <mxGeometry relative="1" as="geometry">
            <Array as="points">
              <mxPoint x="231" y="360" />
              <mxPoint x="337" y="360" />
            </Array>
          </mxGeometry>
        </mxCell>
        <mxCell id="4tJwQTXMlbhv3zjdptzA-1" value="&lt;span style=&quot;background-color: initial;&quot;&gt;spec.type::NodePort&lt;/span&gt;" style="text;html=1;align=left;verticalAlign=middle;whiteSpace=wrap;rounded=0;" vertex="1" parent="1">
          <mxGeometry x="711" y="460" width="120" height="50" as="geometry" />
        </mxCell>
        <mxCell id="4tJwQTXMlbhv3zjdptzA-2" value="&lt;span style=&quot;background-color: initial;&quot;&gt;Expose to Outside&amp;nbsp;&lt;/span&gt;&lt;div&gt;&lt;span style=&quot;background-color: initial;&quot;&gt;Using&amp;nbsp; Loadbalancer&lt;/span&gt;&lt;/div&gt;" style="text;html=1;align=left;verticalAlign=middle;whiteSpace=wrap;rounded=0;" vertex="1" parent="1">
          <mxGeometry x="166" y="40" width="130" height="50" as="geometry" />
        </mxCell>
        <mxCell id="T-g-BQrbmEZNeKUg1tSC-1" value="&lt;span style=&quot;background-color: initial;&quot;&gt;Expose to Outside&lt;/span&gt;&lt;div&gt;&lt;span style=&quot;background-color: initial;&quot;&gt;Using NodePort&lt;/span&gt;&lt;/div&gt;" style="text;html=1;align=left;verticalAlign=middle;whiteSpace=wrap;rounded=0;" vertex="1" parent="1">
          <mxGeometry x="772" y="30" width="110.5" height="50" as="geometry" />
        </mxCell>
        <mxCell id="6-GJ8nhHcz8GcX6XCQpa-39" value="nodeIp2:8080" style="rounded=0;whiteSpace=wrap;html=1;" vertex="1" parent="1">
          <mxGeometry x="782" y="250" width="90" height="20" as="geometry" />
        </mxCell>
        <mxCell id="6-GJ8nhHcz8GcX6XCQpa-40" value="nodeIP1:8080" style="rounded=0;whiteSpace=wrap;html=1;" vertex="1" parent="1">
          <mxGeometry x="642" y="250" width="94" height="20" as="geometry" />
        </mxCell>
        <mxCell id="6-GJ8nhHcz8GcX6XCQpa-38" value="nodeIP3:8080" style="rounded=0;whiteSpace=wrap;html=1;" vertex="1" parent="1">
          <mxGeometry x="982" y="250" width="80" height="20" as="geometry" />
        </mxCell>
      </root>
    </mxGraphModel>
  </diagram>
  <diagram id="HxTb2eh-yyO17RYKVXca" name="Page-3">
    <mxGraphModel dx="1653" dy="1148" grid="1" gridSize="10" guides="1" tooltips="1" connect="1" arrows="1" fold="1" page="1" pageScale="1" pageWidth="1169" pageHeight="827" math="0" shadow="0">
      <root>
        <mxCell id="0" />
        <mxCell id="1" parent="0" />
        <mxCell id="GPrSuiE8ehxtjhRAJUu8-1" value="" style="whiteSpace=wrap;html=1;aspect=fixed;" vertex="1" parent="1">
          <mxGeometry x="210" y="310" width="138" height="138" as="geometry" />
        </mxCell>
        <mxCell id="GPrSuiE8ehxtjhRAJUu8-2" value="" style="whiteSpace=wrap;html=1;aspect=fixed;" vertex="1" parent="1">
          <mxGeometry x="50" y="310" width="138" height="138" as="geometry" />
        </mxCell>
        <mxCell id="GPrSuiE8ehxtjhRAJUu8-3" value="" style="aspect=fixed;sketch=0;html=1;dashed=0;whitespace=wrap;verticalLabelPosition=bottom;verticalAlign=top;fillColor=#2875E2;strokeColor=#ffffff;points=[[0.005,0.63,0],[0.1,0.2,0],[0.9,0.2,0],[0.5,0,0],[0.995,0.63,0],[0.72,0.99,0],[0.5,1,0],[0.28,0.99,0]];shape=mxgraph.kubernetes.icon2;prIcon=node" vertex="1" parent="1">
          <mxGeometry x="40" y="426" width="50" height="48" as="geometry" />
        </mxCell>
        <mxCell id="GPrSuiE8ehxtjhRAJUu8-4" value="" style="aspect=fixed;sketch=0;html=1;dashed=0;whitespace=wrap;verticalLabelPosition=bottom;verticalAlign=top;fillColor=#2875E2;strokeColor=#ffffff;points=[[0.005,0.63,0],[0.1,0.2,0],[0.9,0.2,0],[0.5,0,0],[0.995,0.63,0],[0.72,0.99,0],[0.5,1,0],[0.28,0.99,0]];shape=mxgraph.kubernetes.icon2;kubernetesLabel=1;prIcon=pod" vertex="1" parent="1">
          <mxGeometry x="60" y="360" width="50" height="48" as="geometry" />
        </mxCell>
        <mxCell id="GPrSuiE8ehxtjhRAJUu8-5" value="" style="aspect=fixed;sketch=0;html=1;dashed=0;whitespace=wrap;verticalLabelPosition=bottom;verticalAlign=top;fillColor=#2875E2;strokeColor=#ffffff;points=[[0.005,0.63,0],[0.1,0.2,0],[0.9,0.2,0],[0.5,0,0],[0.995,0.63,0],[0.72,0.99,0],[0.5,1,0],[0.28,0.99,0]];shape=mxgraph.kubernetes.icon2;kubernetesLabel=1;prIcon=pod" vertex="1" parent="1">
          <mxGeometry x="120" y="360" width="50" height="48" as="geometry" />
        </mxCell>
        <mxCell id="GPrSuiE8ehxtjhRAJUu8-6" style="edgeStyle=orthogonalEdgeStyle;rounded=0;orthogonalLoop=1;jettySize=auto;html=1;" edge="1" parent="1" target="GPrSuiE8ehxtjhRAJUu8-10" source="CWXqHd-0Wa6oV66kAadZ-3">
          <mxGeometry relative="1" as="geometry">
            <mxPoint x="199" y="280" as="sourcePoint" />
            <Array as="points">
              <mxPoint x="305" y="280" />
            </Array>
          </mxGeometry>
        </mxCell>
        <mxCell id="GPrSuiE8ehxtjhRAJUu8-7" value="" style="aspect=fixed;sketch=0;html=1;dashed=0;whitespace=wrap;verticalLabelPosition=bottom;verticalAlign=top;fillColor=#2875E2;strokeColor=#ffffff;points=[[0.005,0.63,0],[0.1,0.2,0],[0.9,0.2,0],[0.5,0,0],[0.995,0.63,0],[0.72,0.99,0],[0.5,1,0],[0.28,0.99,0]];shape=mxgraph.kubernetes.icon2;kubernetesLabel=1;prIcon=svc" vertex="1" parent="1">
          <mxGeometry x="174" y="186" width="50" height="48" as="geometry" />
        </mxCell>
        <mxCell id="GPrSuiE8ehxtjhRAJUu8-8" value="" style="aspect=fixed;sketch=0;html=1;dashed=0;whitespace=wrap;verticalLabelPosition=bottom;verticalAlign=top;fillColor=#2875E2;strokeColor=#ffffff;points=[[0.005,0.63,0],[0.1,0.2,0],[0.9,0.2,0],[0.5,0,0],[0.995,0.63,0],[0.72,0.99,0],[0.5,1,0],[0.28,0.99,0]];shape=mxgraph.kubernetes.icon2;prIcon=node" vertex="1" parent="1">
          <mxGeometry x="200" y="426" width="50" height="48" as="geometry" />
        </mxCell>
        <mxCell id="GPrSuiE8ehxtjhRAJUu8-9" value="" style="aspect=fixed;sketch=0;html=1;dashed=0;whitespace=wrap;verticalLabelPosition=bottom;verticalAlign=top;fillColor=#2875E2;strokeColor=#ffffff;points=[[0.005,0.63,0],[0.1,0.2,0],[0.9,0.2,0],[0.5,0,0],[0.995,0.63,0],[0.72,0.99,0],[0.5,1,0],[0.28,0.99,0]];shape=mxgraph.kubernetes.icon2;kubernetesLabel=1;prIcon=pod" vertex="1" parent="1">
          <mxGeometry x="220" y="360" width="50" height="48" as="geometry" />
        </mxCell>
        <mxCell id="GPrSuiE8ehxtjhRAJUu8-10" value="" style="aspect=fixed;sketch=0;html=1;dashed=0;whitespace=wrap;verticalLabelPosition=bottom;verticalAlign=top;fillColor=#2875E2;strokeColor=#ffffff;points=[[0.005,0.63,0],[0.1,0.2,0],[0.9,0.2,0],[0.5,0,0],[0.995,0.63,0],[0.72,0.99,0],[0.5,1,0],[0.28,0.99,0]];shape=mxgraph.kubernetes.icon2;kubernetesLabel=1;prIcon=pod" vertex="1" parent="1">
          <mxGeometry x="280" y="360" width="50" height="48" as="geometry" />
        </mxCell>
        <mxCell id="GPrSuiE8ehxtjhRAJUu8-11" value="" style="whiteSpace=wrap;html=1;aspect=fixed;" vertex="1" parent="1">
          <mxGeometry x="370" y="310" width="138" height="138" as="geometry" />
        </mxCell>
        <mxCell id="GPrSuiE8ehxtjhRAJUu8-12" value="" style="aspect=fixed;sketch=0;html=1;dashed=0;whitespace=wrap;verticalLabelPosition=bottom;verticalAlign=top;fillColor=#2875E2;strokeColor=#ffffff;points=[[0.005,0.63,0],[0.1,0.2,0],[0.9,0.2,0],[0.5,0,0],[0.995,0.63,0],[0.72,0.99,0],[0.5,1,0],[0.28,0.99,0]];shape=mxgraph.kubernetes.icon2;prIcon=node" vertex="1" parent="1">
          <mxGeometry x="360" y="426" width="50" height="48" as="geometry" />
        </mxCell>
        <mxCell id="GPrSuiE8ehxtjhRAJUu8-13" style="edgeStyle=orthogonalEdgeStyle;rounded=0;orthogonalLoop=1;jettySize=auto;html=1;exitX=0.5;exitY=1;exitDx=0;exitDy=0;exitPerimeter=0;entryX=0.5;entryY=0;entryDx=0;entryDy=0;entryPerimeter=0;" edge="1" parent="1" source="CWXqHd-0Wa6oV66kAadZ-1" target="GPrSuiE8ehxtjhRAJUu8-4">
          <mxGeometry relative="1" as="geometry">
            <Array as="points">
              <mxPoint x="85" y="280" />
            </Array>
          </mxGeometry>
        </mxCell>
        <mxCell id="GPrSuiE8ehxtjhRAJUu8-14" value="" style="aspect=fixed;sketch=0;html=1;dashed=0;whitespace=wrap;verticalLabelPosition=bottom;verticalAlign=top;fillColor=#2875E2;strokeColor=#ffffff;points=[[0.005,0.63,0],[0.1,0.2,0],[0.9,0.2,0],[0.5,0,0],[0.995,0.63,0],[0.72,0.99,0],[0.5,1,0],[0.28,0.99,0]];shape=mxgraph.kubernetes.icon2;prIcon=user" vertex="1" parent="1">
          <mxGeometry x="360" y="190" width="50" height="48" as="geometry" />
        </mxCell>
        <mxCell id="GPrSuiE8ehxtjhRAJUu8-15" style="edgeStyle=orthogonalEdgeStyle;rounded=0;orthogonalLoop=1;jettySize=auto;html=1;entryX=0.995;entryY=0.63;entryDx=0;entryDy=0;entryPerimeter=0;" edge="1" parent="1" source="GPrSuiE8ehxtjhRAJUu8-14" target="GPrSuiE8ehxtjhRAJUu8-7">
          <mxGeometry relative="1" as="geometry" />
        </mxCell>
        <mxCell id="GPrSuiE8ehxtjhRAJUu8-18" value="insider cluster" style="edgeLabel;html=1;align=center;verticalAlign=middle;resizable=0;points=[];" vertex="1" connectable="0" parent="GPrSuiE8ehxtjhRAJUu8-15">
          <mxGeometry x="-0.1475" y="1" relative="1" as="geometry">
            <mxPoint as="offset" />
          </mxGeometry>
        </mxCell>
        <mxCell id="GPrSuiE8ehxtjhRAJUu8-16" value="Use ClusterIP" style="text;html=1;align=center;verticalAlign=middle;whiteSpace=wrap;rounded=0;" vertex="1" parent="1">
          <mxGeometry x="144" y="65" width="110" height="30" as="geometry" />
        </mxCell>
        <mxCell id="GPrSuiE8ehxtjhRAJUu8-19" value="" style="whiteSpace=wrap;html=1;aspect=fixed;" vertex="1" parent="1">
          <mxGeometry x="765" y="310" width="138" height="138" as="geometry" />
        </mxCell>
        <mxCell id="GPrSuiE8ehxtjhRAJUu8-20" value="" style="whiteSpace=wrap;html=1;aspect=fixed;" vertex="1" parent="1">
          <mxGeometry x="605" y="310" width="138" height="138" as="geometry" />
        </mxCell>
        <mxCell id="GPrSuiE8ehxtjhRAJUu8-21" value="" style="aspect=fixed;sketch=0;html=1;dashed=0;whitespace=wrap;verticalLabelPosition=bottom;verticalAlign=top;fillColor=#2875E2;strokeColor=#ffffff;points=[[0.005,0.63,0],[0.1,0.2,0],[0.9,0.2,0],[0.5,0,0],[0.995,0.63,0],[0.72,0.99,0],[0.5,1,0],[0.28,0.99,0]];shape=mxgraph.kubernetes.icon2;prIcon=node" vertex="1" parent="1">
          <mxGeometry x="595" y="426" width="50" height="48" as="geometry" />
        </mxCell>
        <mxCell id="CWXqHd-0Wa6oV66kAadZ-10" style="edgeStyle=orthogonalEdgeStyle;rounded=0;orthogonalLoop=1;jettySize=auto;html=1;exitX=0.5;exitY=0;exitDx=0;exitDy=0;exitPerimeter=0;" edge="1" parent="1" source="GPrSuiE8ehxtjhRAJUu8-22" target="CWXqHd-0Wa6oV66kAadZ-9">
          <mxGeometry relative="1" as="geometry" />
        </mxCell>
        <mxCell id="GPrSuiE8ehxtjhRAJUu8-22" value="" style="aspect=fixed;sketch=0;html=1;dashed=0;whitespace=wrap;verticalLabelPosition=bottom;verticalAlign=top;fillColor=#2875E2;strokeColor=#ffffff;points=[[0.005,0.63,0],[0.1,0.2,0],[0.9,0.2,0],[0.5,0,0],[0.995,0.63,0],[0.72,0.99,0],[0.5,1,0],[0.28,0.99,0]];shape=mxgraph.kubernetes.icon2;kubernetesLabel=1;prIcon=pod" vertex="1" parent="1">
          <mxGeometry x="615" y="360" width="50" height="48" as="geometry" />
        </mxCell>
        <mxCell id="GPrSuiE8ehxtjhRAJUu8-23" value="" style="aspect=fixed;sketch=0;html=1;dashed=0;whitespace=wrap;verticalLabelPosition=bottom;verticalAlign=top;fillColor=#2875E2;strokeColor=#ffffff;points=[[0.005,0.63,0],[0.1,0.2,0],[0.9,0.2,0],[0.5,0,0],[0.995,0.63,0],[0.72,0.99,0],[0.5,1,0],[0.28,0.99,0]];shape=mxgraph.kubernetes.icon2;kubernetesLabel=1;prIcon=pod" vertex="1" parent="1">
          <mxGeometry x="675" y="360" width="50" height="48" as="geometry" />
        </mxCell>
        <mxCell id="GPrSuiE8ehxtjhRAJUu8-37" style="edgeStyle=orthogonalEdgeStyle;rounded=0;orthogonalLoop=1;jettySize=auto;html=1;exitX=0.5;exitY=0;exitDx=0;exitDy=0;exitPerimeter=0;entryX=0.5;entryY=1;entryDx=0;entryDy=0;" edge="1" parent="1" source="GPrSuiE8ehxtjhRAJUu8-25" target="GPrSuiE8ehxtjhRAJUu8-35">
          <mxGeometry relative="1" as="geometry" />
        </mxCell>
        <mxCell id="GPrSuiE8ehxtjhRAJUu8-38" value="FQDN" style="edgeLabel;html=1;align=center;verticalAlign=middle;resizable=0;points=[];" vertex="1" connectable="0" parent="GPrSuiE8ehxtjhRAJUu8-37">
          <mxGeometry x="0.0894" y="-3" relative="1" as="geometry">
            <mxPoint x="1" as="offset" />
          </mxGeometry>
        </mxCell>
        <mxCell id="GPrSuiE8ehxtjhRAJUu8-25" value="" style="aspect=fixed;sketch=0;html=1;dashed=0;whitespace=wrap;verticalLabelPosition=bottom;verticalAlign=top;fillColor=#2875E2;strokeColor=#ffffff;points=[[0.005,0.63,0],[0.1,0.2,0],[0.9,0.2,0],[0.5,0,0],[0.995,0.63,0],[0.72,0.99,0],[0.5,1,0],[0.28,0.99,0]];shape=mxgraph.kubernetes.icon2;kubernetesLabel=1;prIcon=svc" vertex="1" parent="1">
          <mxGeometry x="729" y="186" width="50" height="48" as="geometry" />
        </mxCell>
        <mxCell id="GPrSuiE8ehxtjhRAJUu8-26" value="" style="aspect=fixed;sketch=0;html=1;dashed=0;whitespace=wrap;verticalLabelPosition=bottom;verticalAlign=top;fillColor=#2875E2;strokeColor=#ffffff;points=[[0.005,0.63,0],[0.1,0.2,0],[0.9,0.2,0],[0.5,0,0],[0.995,0.63,0],[0.72,0.99,0],[0.5,1,0],[0.28,0.99,0]];shape=mxgraph.kubernetes.icon2;prIcon=node" vertex="1" parent="1">
          <mxGeometry x="755" y="426" width="50" height="48" as="geometry" />
        </mxCell>
        <mxCell id="GPrSuiE8ehxtjhRAJUu8-27" value="" style="aspect=fixed;sketch=0;html=1;dashed=0;whitespace=wrap;verticalLabelPosition=bottom;verticalAlign=top;fillColor=#2875E2;strokeColor=#ffffff;points=[[0.005,0.63,0],[0.1,0.2,0],[0.9,0.2,0],[0.5,0,0],[0.995,0.63,0],[0.72,0.99,0],[0.5,1,0],[0.28,0.99,0]];shape=mxgraph.kubernetes.icon2;kubernetesLabel=1;prIcon=pod" vertex="1" parent="1">
          <mxGeometry x="775" y="360" width="50" height="48" as="geometry" />
        </mxCell>
        <mxCell id="GPrSuiE8ehxtjhRAJUu8-29" value="" style="whiteSpace=wrap;html=1;aspect=fixed;labelPosition=center;verticalLabelPosition=top;align=center;verticalAlign=bottom;" vertex="1" parent="1">
          <mxGeometry x="925" y="310" width="138" height="138" as="geometry" />
        </mxCell>
        <mxCell id="GPrSuiE8ehxtjhRAJUu8-28" value="" style="aspect=fixed;sketch=0;html=1;dashed=0;whitespace=wrap;verticalLabelPosition=bottom;verticalAlign=top;fillColor=#2875E2;strokeColor=#ffffff;points=[[0.005,0.63,0],[0.1,0.2,0],[0.9,0.2,0],[0.5,0,0],[0.995,0.63,0],[0.72,0.99,0],[0.5,1,0],[0.28,0.99,0]];shape=mxgraph.kubernetes.icon2;kubernetesLabel=1;prIcon=pod" vertex="1" parent="1">
          <mxGeometry x="835" y="360" width="50" height="48" as="geometry" />
        </mxCell>
        <mxCell id="GPrSuiE8ehxtjhRAJUu8-30" value="" style="aspect=fixed;sketch=0;html=1;dashed=0;whitespace=wrap;verticalLabelPosition=bottom;verticalAlign=top;fillColor=#2875E2;strokeColor=#ffffff;points=[[0.005,0.63,0],[0.1,0.2,0],[0.9,0.2,0],[0.5,0,0],[0.995,0.63,0],[0.72,0.99,0],[0.5,1,0],[0.28,0.99,0]];shape=mxgraph.kubernetes.icon2;prIcon=node" vertex="1" parent="1">
          <mxGeometry x="915" y="426" width="50" height="48" as="geometry" />
        </mxCell>
        <mxCell id="GPrSuiE8ehxtjhRAJUu8-35" value="svc.xyz.com:443" style="text;html=1;align=center;verticalAlign=middle;whiteSpace=wrap;rounded=0;" vertex="1" parent="1">
          <mxGeometry x="710" y="95" width="92" height="30" as="geometry" />
        </mxCell>
        <mxCell id="GPrSuiE8ehxtjhRAJUu8-39" style="edgeStyle=orthogonalEdgeStyle;rounded=0;orthogonalLoop=1;jettySize=auto;html=1;exitX=0.5;exitY=0;exitDx=0;exitDy=0;exitPerimeter=0;entryX=0.005;entryY=0.63;entryDx=0;entryDy=0;entryPerimeter=0;" edge="1" parent="1" source="GPrSuiE8ehxtjhRAJUu8-23" target="GPrSuiE8ehxtjhRAJUu8-25">
          <mxGeometry relative="1" as="geometry" />
        </mxCell>
        <mxCell id="GPrSuiE8ehxtjhRAJUu8-40" style="edgeStyle=orthogonalEdgeStyle;rounded=0;orthogonalLoop=1;jettySize=auto;html=1;exitX=0.56;exitY=0.208;exitDx=0;exitDy=0;exitPerimeter=0;entryX=0.995;entryY=0.63;entryDx=0;entryDy=0;entryPerimeter=0;" edge="1" parent="1" source="GPrSuiE8ehxtjhRAJUu8-27" target="GPrSuiE8ehxtjhRAJUu8-25">
          <mxGeometry relative="1" as="geometry" />
        </mxCell>
        <mxCell id="CWXqHd-0Wa6oV66kAadZ-2" value="" style="edgeStyle=orthogonalEdgeStyle;rounded=0;orthogonalLoop=1;jettySize=auto;html=1;exitX=0.5;exitY=1;exitDx=0;exitDy=0;exitPerimeter=0;entryX=0.5;entryY=0;entryDx=0;entryDy=0;entryPerimeter=0;" edge="1" parent="1" source="GPrSuiE8ehxtjhRAJUu8-7" target="CWXqHd-0Wa6oV66kAadZ-1">
          <mxGeometry relative="1" as="geometry">
            <Array as="points">
              <mxPoint x="199" y="270" />
              <mxPoint x="85" y="270" />
            </Array>
            <mxPoint x="199" y="234" as="sourcePoint" />
            <mxPoint x="85" y="360" as="targetPoint" />
          </mxGeometry>
        </mxCell>
        <mxCell id="CWXqHd-0Wa6oV66kAadZ-1" value="" style="aspect=fixed;sketch=0;html=1;dashed=0;whitespace=wrap;verticalLabelPosition=bottom;verticalAlign=top;fillColor=#2875E2;strokeColor=#ffffff;points=[[0.005,0.63,0],[0.1,0.2,0],[0.9,0.2,0],[0.5,0,0],[0.995,0.63,0],[0.72,0.99,0],[0.5,1,0],[0.28,0.99,0]];shape=mxgraph.kubernetes.icon2;kubernetesLabel=1;prIcon=k_proxy" vertex="1" parent="1">
          <mxGeometry x="60" y="290" width="50" height="48" as="geometry" />
        </mxCell>
        <mxCell id="CWXqHd-0Wa6oV66kAadZ-3" value="" style="aspect=fixed;sketch=0;html=1;dashed=0;whitespace=wrap;verticalLabelPosition=bottom;verticalAlign=top;fillColor=#2875E2;strokeColor=#ffffff;points=[[0.005,0.63,0],[0.1,0.2,0],[0.9,0.2,0],[0.5,0,0],[0.995,0.63,0],[0.72,0.99,0],[0.5,1,0],[0.28,0.99,0]];shape=mxgraph.kubernetes.icon2;kubernetesLabel=1;prIcon=k_proxy" vertex="1" parent="1">
          <mxGeometry x="280" y="290" width="50" height="48" as="geometry" />
        </mxCell>
        <mxCell id="CWXqHd-0Wa6oV66kAadZ-5" style="edgeStyle=orthogonalEdgeStyle;rounded=0;orthogonalLoop=1;jettySize=auto;html=1;exitX=0.5;exitY=1;exitDx=0;exitDy=0;exitPerimeter=0;entryX=0.5;entryY=0;entryDx=0;entryDy=0;entryPerimeter=0;" edge="1" parent="1" source="GPrSuiE8ehxtjhRAJUu8-7" target="CWXqHd-0Wa6oV66kAadZ-3">
          <mxGeometry relative="1" as="geometry">
            <Array as="points">
              <mxPoint x="199" y="270" />
              <mxPoint x="305" y="270" />
            </Array>
          </mxGeometry>
        </mxCell>
        <mxCell id="CWXqHd-0Wa6oV66kAadZ-6" value="svc.cluster.local: IN CNAME svc.xyz.com" style="image;sketch=0;aspect=fixed;html=1;points=[];align=center;fontSize=12;image=img/lib/mscae/DNS.svg;labelPosition=center;verticalLabelPosition=top;verticalAlign=bottom;" vertex="1" parent="1">
          <mxGeometry x="900" y="294" width="40" height="40" as="geometry" />
        </mxCell>
        <mxCell id="CWXqHd-0Wa6oV66kAadZ-7" value="spec.type:ExternalName" style="text;html=1;align=center;verticalAlign=middle;whiteSpace=wrap;rounded=0;" vertex="1" parent="1">
          <mxGeometry x="765" y="186" width="140" height="30" as="geometry" />
        </mxCell>
        <mxCell id="CWXqHd-0Wa6oV66kAadZ-11" style="edgeStyle=orthogonalEdgeStyle;rounded=0;orthogonalLoop=1;jettySize=auto;html=1;" edge="1" parent="1" source="CWXqHd-0Wa6oV66kAadZ-9">
          <mxGeometry relative="1" as="geometry">
            <mxPoint x="640" y="130" as="targetPoint" />
          </mxGeometry>
        </mxCell>
        <mxCell id="CWXqHd-0Wa6oV66kAadZ-9" value="hostnetwork" style="rounded=0;whiteSpace=wrap;html=1;" vertex="1" parent="1">
          <mxGeometry x="605" y="300" width="70" height="10" as="geometry" />
        </mxCell>
        <mxCell id="CWXqHd-0Wa6oV66kAadZ-12" value="172.217.166.100" style="text;html=1;align=center;verticalAlign=middle;whiteSpace=wrap;rounded=0;" vertex="1" parent="1">
          <mxGeometry x="595" y="95" width="92" height="30" as="geometry" />
        </mxCell>
        <mxCell id="ShVL_74BqkOzYsoJogWz-1" value="spec.type:ClusterIP" style="text;html=1;align=center;verticalAlign=middle;whiteSpace=wrap;rounded=0;" vertex="1" parent="1">
          <mxGeometry x="66" y="190" width="134" height="30" as="geometry" />
        </mxCell>
        <mxCell id="ShVL_74BqkOzYsoJogWz-2" value="Access external service" style="text;html=1;align=center;verticalAlign=middle;whiteSpace=wrap;rounded=0;" vertex="1" parent="1">
          <mxGeometry x="665" y="65" width="110" height="30" as="geometry" />
        </mxCell>
      </root>
    </mxGraphModel>
  </diagram>
</mxfile>
